%TF.GenerationSoftware,KiCad,Pcbnew,9.0.7*%
%TF.CreationDate,2026-01-20T00:58:21+01:00*%
%TF.ProjectId,beta-main,62657461-2d6d-4616-996e-2e6b69636164,rev?*%
%TF.SameCoordinates,Original*%
%TF.FileFunction,Copper,L4,Bot*%
%TF.FilePolarity,Positive*%
%FSLAX46Y46*%
G04 Gerber Fmt 4.6, Leading zero omitted, Abs format (unit mm)*
G04 Created by KiCad (PCBNEW 9.0.7) date 2026-01-20 00:58:21*
%MOMM*%
%LPD*%
G01*
G04 APERTURE LIST*
G04 Aperture macros list*
%AMRoundRect*
0 Rectangle with rounded corners*
0 $1 Rounding radius*
0 $2 $3 $4 $5 $6 $7 $8 $9 X,Y pos of 4 corners*
0 Add a 4 corners polygon primitive as box body*
4,1,4,$2,$3,$4,$5,$6,$7,$8,$9,$2,$3,0*
0 Add four circle primitives for the rounded corners*
1,1,$1+$1,$2,$3*
1,1,$1+$1,$4,$5*
1,1,$1+$1,$6,$7*
1,1,$1+$1,$8,$9*
0 Add four rect primitives between the rounded corners*
20,1,$1+$1,$2,$3,$4,$5,0*
20,1,$1+$1,$4,$5,$6,$7,0*
20,1,$1+$1,$6,$7,$8,$9,0*
20,1,$1+$1,$8,$9,$2,$3,0*%
G04 Aperture macros list end*
%ADD10C,0.200000*%
%TA.AperFunction,NonConductor*%
%ADD11C,0.200000*%
%TD*%
%TA.AperFunction,ComponentPad*%
%ADD12RoundRect,0.250000X0.625000X-0.350000X0.625000X0.350000X-0.625000X0.350000X-0.625000X-0.350000X0*%
%TD*%
%TA.AperFunction,ComponentPad*%
%ADD13O,1.750000X1.200000*%
%TD*%
%TA.AperFunction,ComponentPad*%
%ADD14RoundRect,0.250000X-0.725000X0.600000X-0.725000X-0.600000X0.725000X-0.600000X0.725000X0.600000X0*%
%TD*%
%TA.AperFunction,ComponentPad*%
%ADD15O,1.950000X1.700000*%
%TD*%
%TA.AperFunction,ComponentPad*%
%ADD16RoundRect,0.250000X0.350000X0.625000X-0.350000X0.625000X-0.350000X-0.625000X0.350000X-0.625000X0*%
%TD*%
%TA.AperFunction,ComponentPad*%
%ADD17O,1.200000X1.750000*%
%TD*%
%TA.AperFunction,ComponentPad*%
%ADD18C,5.400000*%
%TD*%
%TA.AperFunction,ComponentPad*%
%ADD19RoundRect,0.250000X0.725000X-0.600000X0.725000X0.600000X-0.725000X0.600000X-0.725000X-0.600000X0*%
%TD*%
%TA.AperFunction,ComponentPad*%
%ADD20C,0.800000*%
%TD*%
%TA.AperFunction,ComponentPad*%
%ADD21C,6.400000*%
%TD*%
%TA.AperFunction,ComponentPad*%
%ADD22RoundRect,1.500000X-1.500000X-1.500000X1.500000X-1.500000X1.500000X1.500000X-1.500000X1.500000X0*%
%TD*%
%TA.AperFunction,ComponentPad*%
%ADD23C,6.000000*%
%TD*%
%TA.AperFunction,ComponentPad*%
%ADD24RoundRect,0.250000X-0.625000X0.350000X-0.625000X-0.350000X0.625000X-0.350000X0.625000X0.350000X0*%
%TD*%
%TA.AperFunction,ViaPad*%
%ADD25C,0.600000*%
%TD*%
%TA.AperFunction,Conductor*%
%ADD26C,0.290000*%
%TD*%
%TA.AperFunction,Conductor*%
%ADD27C,1.000000*%
%TD*%
%TA.AperFunction,Conductor*%
%ADD28C,0.500000*%
%TD*%
%TA.AperFunction,Conductor*%
%ADD29C,0.200000*%
%TD*%
%TA.AperFunction,Conductor*%
%ADD30C,0.300000*%
%TD*%
%TA.AperFunction,Conductor*%
%ADD31C,0.360000*%
%TD*%
G04 APERTURE END LIST*
D10*
D11*
X79495476Y-156660552D02*
X79495476Y-157327219D01*
X79257381Y-156279600D02*
X79019286Y-156993885D01*
X79019286Y-156993885D02*
X79638333Y-156993885D01*
D12*
%TO.P,J23,1,Pin_1*%
%TO.N,+3V3*%
X64450000Y-121500000D03*
D13*
%TO.P,J23,2,Pin_2*%
%TO.N,/I2S0_SCLK*%
X64450000Y-119500000D03*
%TO.P,J23,3,Pin_3*%
%TO.N,/I2S0_WS*%
X64450000Y-117500000D03*
%TO.P,J23,4,Pin_4*%
%TO.N,/I2S0_SDI1*%
X64450000Y-115500000D03*
%TO.P,J23,5,Pin_5*%
%TO.N,+3V3*%
X64450000Y-113500000D03*
%TO.P,J23,6,Pin_6*%
%TO.N,GND*%
X64450000Y-111500000D03*
%TD*%
D14*
%TO.P,J10,1,Pin_1*%
%TO.N,/Peripherals/SIG*%
X66525000Y-61000000D03*
D15*
%TO.P,J10,2,Pin_2*%
%TO.N,+BATT*%
X66525000Y-63500000D03*
%TO.P,J10,3,Pin_3*%
%TO.N,GND*%
X66525000Y-66000000D03*
%TD*%
D16*
%TO.P,J19,1,Pin_1*%
%TO.N,+BATT*%
X75000000Y-150550000D03*
D17*
%TO.P,J19,2,Pin_2*%
%TO.N,Net-(D2-K)*%
X73000000Y-150550000D03*
%TD*%
D16*
%TO.P,J26,1,Pin_1*%
%TO.N,/GPIO/BATT_INT*%
X125000000Y-150550000D03*
D17*
%TO.P,J26,2,Pin_2*%
%TO.N,/Peripherals/SENSOR_SDA*%
X123000000Y-150550000D03*
%TO.P,J26,3,Pin_3*%
%TO.N,/Peripherals/SENSOR_SCL*%
X121000000Y-150550000D03*
%TO.P,J26,4,Pin_4*%
%TO.N,GND*%
X119000000Y-150550000D03*
%TD*%
D18*
%TO.P,MH11,1,1*%
%TO.N,GND*%
X71000000Y-124500000D03*
%TD*%
D19*
%TO.P,J11,1,Pin_1*%
%TO.N,/Peripherals/SIG*%
X133975000Y-66000000D03*
D15*
%TO.P,J11,2,Pin_2*%
%TO.N,+BATT*%
X133975000Y-63500000D03*
%TO.P,J11,3,Pin_3*%
%TO.N,GND*%
X133975000Y-61000000D03*
%TD*%
D12*
%TO.P,J15,1,Pin_1*%
%TO.N,+3V3*%
X134500000Y-55500000D03*
D13*
%TO.P,J15,2,Pin_2*%
%TO.N,/Peripherals/SENSOR_SDA*%
X134500000Y-53500000D03*
%TO.P,J15,3,Pin_3*%
%TO.N,/Peripherals/SENSOR_SCL*%
X134500000Y-51500000D03*
%TO.P,J15,4,Pin_4*%
%TO.N,GND*%
X134500000Y-49500000D03*
%TD*%
D19*
%TO.P,J13,1,Pin_1*%
%TO.N,/Peripherals/SIG*%
X133975000Y-150000000D03*
D15*
%TO.P,J13,2,Pin_2*%
%TO.N,+BATT*%
X133975000Y-147500000D03*
%TO.P,J13,3,Pin_3*%
%TO.N,GND*%
X133975000Y-145000000D03*
%TD*%
D16*
%TO.P,J24,1,Pin_1*%
%TO.N,+BATT*%
X114000000Y-150550000D03*
D17*
%TO.P,J24,2,Pin_2*%
%TO.N,Net-(D2-K)*%
X112000000Y-150550000D03*
%TD*%
D20*
%TO.P,MH7,1,1*%
%TO.N,GND*%
X136400000Y-156500000D03*
X135697056Y-158197056D03*
X135697056Y-154802944D03*
X134000000Y-158900000D03*
D21*
X134000000Y-156500000D03*
D20*
X134000000Y-154100000D03*
X132302944Y-158197056D03*
X132302944Y-154802944D03*
X131600000Y-156500000D03*
%TD*%
D16*
%TO.P,J20,1,Pin_1*%
%TO.N,+BATT*%
X82000000Y-150550000D03*
D17*
%TO.P,J20,2,Pin_2*%
%TO.N,Net-(D2-K)*%
X80000000Y-150550000D03*
%TD*%
D22*
%TO.P,J18,1,Pin_1*%
%TO.N,GND*%
X96375000Y-155500000D03*
D23*
%TO.P,J18,2,Pin_2*%
%TO.N,+BATT*%
X103575000Y-155500000D03*
%TD*%
D18*
%TO.P,MH12,1,1*%
%TO.N,GND*%
X129000000Y-124500000D03*
%TD*%
D24*
%TO.P,J14,1,Pin_1*%
%TO.N,+3V3*%
X66050000Y-49500000D03*
D13*
%TO.P,J14,2,Pin_2*%
%TO.N,/Peripherals/SENSOR_SDA*%
X66050000Y-51500000D03*
%TO.P,J14,3,Pin_3*%
%TO.N,/Peripherals/SENSOR_SCL*%
X66050000Y-53500000D03*
%TO.P,J14,4,Pin_4*%
%TO.N,GND*%
X66050000Y-55500000D03*
%TD*%
D12*
%TO.P,J1,1,Pin_1*%
%TO.N,Net-(J1-Pin_1)*%
X64450000Y-91500000D03*
D13*
%TO.P,J1,2,Pin_2*%
%TO.N,Net-(J1-Pin_2)*%
X64450000Y-89500000D03*
%TD*%
D24*
%TO.P,J3,1,Pin_1*%
%TO.N,VBUS*%
X135500000Y-71500000D03*
D13*
%TO.P,J3,2,Pin_2*%
%TO.N,/High Speed Serial/USB3-1-D_N*%
X135500000Y-73500000D03*
%TO.P,J3,3,Pin_3*%
%TO.N,/High Speed Serial/USB3-1-D_P*%
X135500000Y-75500000D03*
%TO.P,J3,4,Pin_4*%
%TO.N,/High Speed Serial/USB3-1-RX_N*%
X135500000Y-77500000D03*
%TO.P,J3,5,Pin_5*%
%TO.N,/High Speed Serial/USB3-1-RX_P*%
X135500000Y-79500000D03*
%TO.P,J3,6,Pin_6*%
%TO.N,/High Speed Serial/USB3-1-TX_N*%
X135500000Y-81500000D03*
%TO.P,J3,7,Pin_7*%
%TO.N,/High Speed Serial/USB3-1-TX_P*%
X135500000Y-83500000D03*
%TO.P,J3,8,Pin_8*%
%TO.N,GND*%
X135500000Y-85500000D03*
%TD*%
D20*
%TO.P,MH5,1,1*%
%TO.N,GND*%
X68400000Y-156500000D03*
X67697056Y-158197056D03*
X67697056Y-154802944D03*
X66000000Y-158900000D03*
D21*
X66000000Y-156500000D03*
D20*
X66000000Y-154100000D03*
X64302944Y-158197056D03*
X64302944Y-154802944D03*
X63600000Y-156500000D03*
%TD*%
D18*
%TO.P,MH9,1,1*%
%TO.N,GND*%
X71000000Y-75500000D03*
%TD*%
D24*
%TO.P,J2,1,Pin_1*%
%TO.N,VBUS*%
X135500000Y-114500000D03*
D13*
%TO.P,J2,2,Pin_2*%
%TO.N,/High Speed Serial/USB3-0-D_N*%
X135500000Y-116500000D03*
%TO.P,J2,3,Pin_3*%
%TO.N,/High Speed Serial/USB3-0-D_P*%
X135500000Y-118500000D03*
%TO.P,J2,4,Pin_4*%
%TO.N,/High Speed Serial/USB3-0-RX_N*%
X135500000Y-120500000D03*
%TO.P,J2,5,Pin_5*%
%TO.N,/High Speed Serial/USB3-0-RX_P*%
X135500000Y-122500000D03*
%TO.P,J2,6,Pin_6*%
%TO.N,/High Speed Serial/USB3-0-TX_N*%
X135500000Y-124500000D03*
%TO.P,J2,7,Pin_7*%
%TO.N,/High Speed Serial/USB3-0-TX_P*%
X135500000Y-126500000D03*
%TO.P,J2,8,Pin_8*%
%TO.N,GND*%
X135500000Y-128500000D03*
%TD*%
D12*
%TO.P,J22,1,Pin_1*%
%TO.N,+3V3*%
X64450000Y-106500000D03*
D13*
%TO.P,J22,2,Pin_2*%
%TO.N,/I2S0_SCLK*%
X64450000Y-104500000D03*
%TO.P,J22,3,Pin_3*%
%TO.N,/I2S0_WS*%
X64450000Y-102500000D03*
%TO.P,J22,4,Pin_4*%
%TO.N,/I2S0_SDI0*%
X64450000Y-100500000D03*
%TO.P,J22,5,Pin_5*%
%TO.N,GND*%
X64450000Y-98500000D03*
%TO.P,J22,6,Pin_6*%
X64450000Y-96500000D03*
%TD*%
D20*
%TO.P,MH3,1,1*%
%TO.N,GND*%
X131600000Y-43500000D03*
X132302944Y-41802944D03*
X132302944Y-45197056D03*
X134000000Y-41100000D03*
D21*
X134000000Y-43500000D03*
D20*
X134000000Y-45900000D03*
X135697056Y-41802944D03*
X135697056Y-45197056D03*
X136400000Y-43500000D03*
%TD*%
D12*
%TO.P,J16,1,Pin_1*%
%TO.N,+3V3*%
X134450000Y-139500000D03*
D13*
%TO.P,J16,2,Pin_2*%
%TO.N,/Peripherals/SENSOR_SDA*%
X134450000Y-137500000D03*
%TO.P,J16,3,Pin_3*%
%TO.N,/Peripherals/SENSOR_SCL*%
X134450000Y-135500000D03*
%TO.P,J16,4,Pin_4*%
%TO.N,GND*%
X134450000Y-133500000D03*
%TD*%
D12*
%TO.P,J21,1,Pin_1*%
%TO.N,/GPIO/PWR_BUT*%
X64450000Y-128500000D03*
D13*
%TO.P,J21,2,Pin_2*%
%TO.N,GND*%
X64450000Y-126500000D03*
%TD*%
D16*
%TO.P,J25,1,Pin_1*%
%TO.N,+BATT*%
X89000000Y-150550000D03*
D17*
%TO.P,J25,2,Pin_2*%
%TO.N,Net-(D2-K)*%
X87000000Y-150550000D03*
%TD*%
D18*
%TO.P,MH10,1,1*%
%TO.N,GND*%
X129000000Y-75500000D03*
%TD*%
D20*
%TO.P,MH1,1,1*%
%TO.N,GND*%
X63600000Y-43500000D03*
X64302944Y-41802944D03*
X64302944Y-45197056D03*
X66000000Y-41100000D03*
D21*
X66000000Y-43500000D03*
D20*
X66000000Y-45900000D03*
X67697056Y-41802944D03*
X67697056Y-45197056D03*
X68400000Y-43500000D03*
%TD*%
D14*
%TO.P,J12,1,Pin_1*%
%TO.N,/Peripherals/SIG*%
X66025000Y-145000000D03*
D15*
%TO.P,J12,2,Pin_2*%
%TO.N,+BATT*%
X66025000Y-147500000D03*
%TO.P,J12,3,Pin_3*%
%TO.N,GND*%
X66025000Y-150000000D03*
%TD*%
D24*
%TO.P,J17,1,Pin_1*%
%TO.N,+3V3*%
X65550000Y-133500000D03*
D13*
%TO.P,J17,2,Pin_2*%
%TO.N,/Peripherals/SENSOR_SDA*%
X65550000Y-135500000D03*
%TO.P,J17,3,Pin_3*%
%TO.N,/Peripherals/SENSOR_SCL*%
X65550000Y-137500000D03*
%TO.P,J17,4,Pin_4*%
%TO.N,GND*%
X65550000Y-139500000D03*
%TD*%
D25*
%TO.N,+BATT*%
X89500000Y-148000000D03*
X92500000Y-142500000D03*
X68500000Y-63500000D03*
X132000000Y-63500000D03*
X68000000Y-147500000D03*
X95250000Y-142500000D03*
X75500000Y-148000000D03*
X113500000Y-148000000D03*
X82500000Y-148000000D03*
X132000000Y-147500000D03*
%TO.N,GND*%
X83600000Y-104000000D03*
X83600000Y-100200000D03*
X82400000Y-94800000D03*
X112800000Y-140600000D03*
X86000000Y-135750000D03*
X86000000Y-138750000D03*
X99951539Y-60919263D03*
X66000000Y-96500000D03*
X67000000Y-139500000D03*
X127000000Y-97600000D03*
X97151539Y-65919263D03*
X68500000Y-66000000D03*
X80546860Y-68138919D03*
X100887500Y-138737500D03*
X132000000Y-145000000D03*
X83600000Y-98550000D03*
X119400000Y-106200000D03*
X83600000Y-105800000D03*
X109137500Y-136987500D03*
X73425000Y-101250000D03*
X119400000Y-103800000D03*
X83600000Y-94800000D03*
X114500000Y-52500000D03*
X86000000Y-137250000D03*
X113500000Y-60000000D03*
X83600000Y-111800000D03*
X82400000Y-92800000D03*
X116400000Y-96000000D03*
X99000000Y-134250000D03*
X101000000Y-57750000D03*
X68000000Y-150000000D03*
X97950000Y-128400000D03*
X98951539Y-60919263D03*
X99000000Y-138750000D03*
X119400000Y-105000000D03*
X83600000Y-103000000D03*
X99000000Y-140250000D03*
X133000000Y-49500000D03*
X133750000Y-129250000D03*
X114600000Y-100200000D03*
X119400000Y-111000000D03*
X127000000Y-94400000D03*
X127000000Y-70800000D03*
X107000000Y-57750000D03*
X100887500Y-140237500D03*
X97500000Y-70000000D03*
X82400000Y-96650000D03*
X83600000Y-96400000D03*
X95500000Y-65500000D03*
X127000000Y-114400000D03*
X119400000Y-102600000D03*
X100887500Y-137237500D03*
X83750000Y-134250000D03*
X83600000Y-92800000D03*
X114600000Y-112200000D03*
X117600000Y-98320000D03*
X98000000Y-57750000D03*
X101400000Y-132100000D03*
X133000000Y-133500000D03*
X116400000Y-97200000D03*
X117600000Y-96000000D03*
X119400000Y-107400000D03*
X118500000Y-148000000D03*
X85500000Y-52500000D03*
X82400000Y-102800000D03*
X132000000Y-61000000D03*
X90000000Y-66000000D03*
X127000000Y-107600000D03*
X83850000Y-61180000D03*
X82400000Y-107000000D03*
X83600000Y-106800000D03*
X91750000Y-136000000D03*
X116400000Y-98400000D03*
X99000000Y-137250000D03*
X83600000Y-93600000D03*
X71000000Y-109000000D03*
X127000000Y-104600000D03*
X119400000Y-112200000D03*
X117600000Y-97200000D03*
X116300000Y-138800000D03*
X116400000Y-94600000D03*
X86000000Y-140250000D03*
X82400000Y-104000000D03*
X127000000Y-101400000D03*
X119400000Y-108600000D03*
X67500000Y-55500000D03*
X119400000Y-109800000D03*
X82400000Y-105800000D03*
X104000000Y-57750000D03*
X66000000Y-126500000D03*
X82400000Y-93600000D03*
X105637500Y-138987500D03*
X117600000Y-94600000D03*
X66500000Y-111500000D03*
X82400000Y-99400000D03*
%TO.N,+5V*%
X105106250Y-137693750D03*
X95650000Y-130000000D03*
X92500000Y-131200000D03*
X99000000Y-135700000D03*
X109200000Y-137800000D03*
X89200000Y-130100000D03*
X88750000Y-134500000D03*
X92000000Y-127000000D03*
X80600000Y-109100000D03*
%TO.N,+3V3*%
X77800000Y-103800000D03*
X87350000Y-61180000D03*
X78400000Y-88000000D03*
X83600000Y-108200000D03*
X82350000Y-61180000D03*
X96500000Y-60921400D03*
X102266606Y-69766606D03*
X125400000Y-88600000D03*
X112500000Y-134700000D03*
X67500000Y-49500000D03*
X67400000Y-116200000D03*
X66500000Y-106500000D03*
X67400000Y-114800000D03*
X66900000Y-133500000D03*
X123600000Y-139400000D03*
X113300000Y-131700000D03*
X66500000Y-121500000D03*
X100000000Y-66050000D03*
X85100000Y-67530000D03*
X123400000Y-86600000D03*
X96000000Y-70000000D03*
X133000000Y-55500000D03*
X77049000Y-95600000D03*
X76400000Y-133400000D03*
X107400000Y-127000000D03*
X133000000Y-139500000D03*
X66500000Y-113500000D03*
X92750000Y-57750000D03*
%TO.N,VBUS*%
X124000000Y-114000000D03*
X102600000Y-127000000D03*
%TO.N,Net-(J1-Pin_1)*%
X66000000Y-91500000D03*
%TO.N,Net-(J1-Pin_2)*%
X66000000Y-89500000D03*
%TO.N,/High Speed Serial/USB3-0-D_P*%
X134000000Y-117900000D03*
X118000000Y-117900000D03*
%TO.N,/High Speed Serial/USB3-0-D_N*%
X134000000Y-117100000D03*
X118000000Y-117100000D03*
%TO.N,/High Speed Serial/USB3-1-TX_P*%
X116000000Y-80800000D03*
X126926854Y-79708310D03*
X131201415Y-83998585D03*
X114125412Y-80000000D03*
%TO.N,/High Speed Serial/USB3-1-TX_N*%
X116000000Y-80000000D03*
X114125412Y-80800000D03*
X131750940Y-83417185D03*
X127492540Y-79142624D03*
%TO.N,/High Speed Serial/USB3-1-RX_N*%
X116200000Y-83600000D03*
X114200000Y-84400000D03*
%TO.N,/High Speed Serial/USB3-1-RX_P*%
X114200000Y-83600000D03*
X116200000Y-84400000D03*
%TO.N,/SCL0*%
X85390000Y-108000000D03*
X126750000Y-95445043D03*
%TO.N,/MIPI0_D0_P*%
X122800000Y-99100000D03*
X126994068Y-99100000D03*
%TO.N,/SDA0*%
X127500000Y-96000000D03*
X85400000Y-109000000D03*
%TO.N,/MIPI0_D0_N*%
X122800000Y-99900000D03*
X126994068Y-99900000D03*
%TO.N,/SCL1*%
X85388928Y-103567997D03*
X92800000Y-69200000D03*
%TO.N,/CAM_GPIO0*%
X77600000Y-86200000D03*
X77000000Y-111200000D03*
X77563911Y-60013908D03*
X97000000Y-57750000D03*
%TO.N,/SDA1*%
X92800000Y-70200000D03*
X85400000Y-104400000D03*
%TO.N,/CAM_GPIO1*%
X76200000Y-111200000D03*
X96000000Y-57750000D03*
X76800000Y-60000000D03*
X76800000Y-86200000D03*
%TO.N,/Peripherals/SIG*%
X68000000Y-145000000D03*
X78400000Y-130500000D03*
X132000000Y-66000000D03*
X132000000Y-150000000D03*
X91350000Y-68400000D03*
X84387500Y-69580000D03*
X124000000Y-66600000D03*
%TO.N,/Peripherals/SENSOR_SCL*%
X91400000Y-64000000D03*
X121100000Y-135500000D03*
X67000000Y-137500000D03*
X133000000Y-135500000D03*
X80600000Y-99500000D03*
X119800000Y-136800000D03*
X73000000Y-53600000D03*
X89500000Y-127000000D03*
X74150000Y-53600000D03*
X120500000Y-148000000D03*
X91400000Y-62400000D03*
X89500000Y-124500000D03*
%TO.N,/GPIO/SDI*%
X101500000Y-66000000D03*
X80600000Y-101600000D03*
%TO.N,/GPIO/UART3_RX*%
X85400000Y-100000000D03*
X89500000Y-65330000D03*
%TO.N,/GPIO/UART3_TX*%
X90000000Y-69500000D03*
X80600000Y-100600000D03*
%TO.N,/GPIO/I2C2_SCL*%
X85400000Y-99150000D03*
X103000000Y-66000000D03*
%TO.N,/GPIO/I2C2_SDA*%
X85400000Y-102800000D03*
X103750000Y-65000000D03*
%TO.N,/Peripherals/SENSOR_SDA*%
X133000000Y-137500000D03*
X67000000Y-135500000D03*
X88000000Y-127000000D03*
X122500000Y-148000000D03*
X85400000Y-98000000D03*
%TO.N,/GPIO/PWR_BUT*%
X66000000Y-128500000D03*
%TO.N,/GPIO/FAN_PWM*%
X79750000Y-130500000D03*
X80600000Y-96000000D03*
%TO.N,Net-(D2-K)*%
X87500000Y-148000000D03*
X111500000Y-148000000D03*
X80500000Y-148000000D03*
X73500000Y-148000000D03*
%TO.N,/I2S0_WS*%
X77800000Y-99800000D03*
X85400000Y-97200000D03*
X66000000Y-102500000D03*
%TO.N,/I2S0_SCLK*%
X66500000Y-119500000D03*
X66000000Y-104500000D03*
%TO.N,/VBUS_EN*%
X114500000Y-94500000D03*
X96850000Y-128400000D03*
%TO.N,/I2S0_SDI0*%
X77800000Y-100800000D03*
X66000000Y-100500000D03*
X80600000Y-98050000D03*
%TO.N,/I2S0_SDI1*%
X80500000Y-103000000D03*
X66500000Y-115500000D03*
X85400000Y-101950000D03*
%TO.N,/GPIO/BATT_INT*%
X80500000Y-104000000D03*
X122800000Y-135600000D03*
X122800000Y-138400000D03*
X124500000Y-148000000D03*
X93200000Y-123600000D03*
%TD*%
D26*
%TO.N,+BATT*%
X114000000Y-150550000D02*
X114000000Y-148500000D01*
X82000000Y-148500000D02*
X82500000Y-148000000D01*
D27*
X68000000Y-147500000D02*
X66025000Y-147500000D01*
D26*
X75000000Y-148500000D02*
X75000000Y-150550000D01*
X75500000Y-148000000D02*
X75000000Y-148500000D01*
X89000000Y-148500000D02*
X89500000Y-148000000D01*
X114000000Y-148500000D02*
X113500000Y-148000000D01*
D27*
X132000000Y-147500000D02*
X133975000Y-147500000D01*
D26*
X82000000Y-150550000D02*
X82000000Y-148500000D01*
D27*
X68500000Y-63500000D02*
X66525000Y-63500000D01*
D26*
X89000000Y-150550000D02*
X89000000Y-148500000D01*
D27*
X132000000Y-63500000D02*
X133975000Y-63500000D01*
D28*
%TO.N,GND*%
X67000000Y-139500000D02*
X65550000Y-139500000D01*
X67500000Y-55500000D02*
X66050000Y-55500000D01*
X134500000Y-128500000D02*
X133750000Y-129250000D01*
X119000000Y-150550000D02*
X119000000Y-148500000D01*
D27*
X132000000Y-61000000D02*
X133975000Y-61000000D01*
D28*
X133000000Y-49500000D02*
X134500000Y-49500000D01*
X133000000Y-133500000D02*
X134450000Y-133500000D01*
D27*
X68000000Y-150000000D02*
X66025000Y-150000000D01*
X68500000Y-66000000D02*
X66525000Y-66000000D01*
D28*
X66000000Y-126500000D02*
X64450000Y-126500000D01*
X64475000Y-96500000D02*
X66000000Y-96500000D01*
D29*
X66500000Y-111500000D02*
X64450000Y-111500000D01*
D28*
X135500000Y-128500000D02*
X134500000Y-128500000D01*
D27*
X132000000Y-145000000D02*
X133975000Y-145000000D01*
D28*
X64450000Y-96500000D02*
X64450000Y-98500000D01*
X119000000Y-148500000D02*
X118500000Y-148000000D01*
%TO.N,+5V*%
X92000000Y-127000000D02*
X92000000Y-116500000D01*
X81500000Y-115500000D02*
X80600000Y-114600000D01*
X80600000Y-114600000D02*
X80600000Y-109100000D01*
X92000000Y-116500000D02*
X91000000Y-115500000D01*
X91000000Y-115500000D02*
X81500000Y-115500000D01*
%TO.N,+3V3*%
X66900000Y-133500000D02*
X65550000Y-133500000D01*
D30*
X64450000Y-121500000D02*
X66500000Y-121500000D01*
D28*
X133000000Y-55500000D02*
X134500000Y-55500000D01*
D30*
X64450000Y-113500000D02*
X66500000Y-113500000D01*
D29*
X66500000Y-106500000D02*
X64450000Y-106500000D01*
D30*
X123400000Y-86800000D02*
X123400000Y-86600000D01*
D28*
X67500000Y-49500000D02*
X66050000Y-49500000D01*
D29*
X67400000Y-116200000D02*
X67400000Y-114800000D01*
D28*
X133000000Y-139500000D02*
X134450000Y-139500000D01*
D30*
X125400000Y-88600000D02*
X125200000Y-88600000D01*
X125200000Y-88600000D02*
X123400000Y-86800000D01*
D28*
%TO.N,VBUS*%
X102600000Y-127000000D02*
X102600000Y-115600000D01*
X137000000Y-72000000D02*
X137000000Y-114000000D01*
X135500000Y-71500000D02*
X136500000Y-71500000D01*
X124000000Y-114000000D02*
X104200000Y-114000000D01*
X102600000Y-115600000D02*
X104200000Y-114000000D01*
X137000000Y-114000000D02*
X136500000Y-114500000D01*
X136500000Y-114500000D02*
X135500000Y-114500000D01*
X136500000Y-71500000D02*
X137000000Y-72000000D01*
D29*
%TO.N,Net-(J1-Pin_1)*%
X64450000Y-91500000D02*
X66000000Y-91500000D01*
%TO.N,Net-(J1-Pin_2)*%
X64450000Y-89500000D02*
X66000000Y-89500000D01*
D31*
%TO.N,/High Speed Serial/USB3-0-D_P*%
X134900000Y-117900000D02*
X135500000Y-118500000D01*
X134000000Y-117900000D02*
X134900000Y-117900000D01*
%TO.N,/High Speed Serial/USB3-0-D_N*%
X134900000Y-117100000D02*
X135500000Y-116500000D01*
X134000000Y-117100000D02*
X134900000Y-117100000D01*
D29*
%TO.N,/SCL0*%
X85390000Y-108000000D02*
X94500000Y-108000000D01*
X122804957Y-91500000D02*
X126750000Y-95445043D01*
X111000000Y-91500000D02*
X122804957Y-91500000D01*
X94500000Y-108000000D02*
X111000000Y-91500000D01*
%TO.N,/SDA0*%
X111500000Y-92500000D02*
X122500000Y-92500000D01*
X95000000Y-109000000D02*
X111500000Y-92500000D01*
X85400000Y-109000000D02*
X95000000Y-109000000D01*
X127496043Y-95996043D02*
X127500000Y-96000000D01*
X122500000Y-92500000D02*
X125996043Y-95996043D01*
X125996043Y-95996043D02*
X127496043Y-95996043D01*
%TO.N,/SCL1*%
X92400000Y-102000000D02*
X92400000Y-71205612D01*
X90800000Y-103600000D02*
X92400000Y-102000000D01*
X85420931Y-103600000D02*
X90800000Y-103600000D01*
X92400000Y-71205612D02*
X92200000Y-71005612D01*
X92200000Y-69800000D02*
X92800000Y-69200000D01*
X85388928Y-103567997D02*
X85420931Y-103600000D01*
X92200000Y-71005612D02*
X92200000Y-69800000D01*
%TO.N,/CAM_GPIO0*%
X77000000Y-110600000D02*
X76499000Y-110099000D01*
X77000000Y-111200000D02*
X77000000Y-110600000D01*
X80800000Y-59800000D02*
X77777819Y-59800000D01*
X76499000Y-110099000D02*
X76499000Y-87301000D01*
X76499000Y-87301000D02*
X77600000Y-86200000D01*
X97000000Y-57750000D02*
X97000000Y-59000000D01*
X96200000Y-59800000D02*
X80800000Y-59800000D01*
X77777819Y-59800000D02*
X77563911Y-60013908D01*
X97000000Y-59000000D02*
X96200000Y-59800000D01*
%TO.N,/SDA1*%
X93200000Y-70902001D02*
X93205612Y-70896388D01*
X85400000Y-104400000D02*
X91400000Y-104400000D01*
X93200000Y-102600000D02*
X93200000Y-70902001D01*
X93205612Y-70896388D02*
X93205612Y-70605612D01*
X93205612Y-70605612D02*
X92800000Y-70200000D01*
X91400000Y-104400000D02*
X93200000Y-102600000D01*
%TO.N,/CAM_GPIO1*%
X77600000Y-59200000D02*
X76800000Y-60000000D01*
X80400000Y-59200000D02*
X77600000Y-59200000D01*
X76200000Y-111200000D02*
X76200000Y-110800000D01*
X76000000Y-110600000D02*
X76000000Y-87000000D01*
X96000000Y-57750000D02*
X96000000Y-58800000D01*
X95600000Y-59200000D02*
X80400000Y-59200000D01*
X76200000Y-110800000D02*
X76000000Y-110600000D01*
X76000000Y-87000000D02*
X76800000Y-86200000D01*
X96000000Y-58800000D02*
X95600000Y-59200000D01*
%TO.N,/Peripherals/SIG*%
X77780000Y-69580000D02*
X84387500Y-69580000D01*
X124000000Y-66600000D02*
X122600000Y-68000000D01*
X122600000Y-68000000D02*
X92000000Y-68000000D01*
X74000000Y-61000000D02*
X66525000Y-61000000D01*
X76020000Y-69580000D02*
X75600000Y-69160000D01*
X75600000Y-69160000D02*
X75600000Y-62600000D01*
D28*
X68000000Y-145000000D02*
X66025000Y-145000000D01*
D29*
X76020000Y-69580000D02*
X77780000Y-69580000D01*
X78400000Y-121650000D02*
X75500000Y-118750000D01*
D28*
X132000000Y-150000000D02*
X133975000Y-150000000D01*
D29*
X78400000Y-130500000D02*
X78400000Y-121650000D01*
X133975000Y-66000000D02*
X132000000Y-66000000D01*
X75500000Y-118750000D02*
X75500000Y-70100000D01*
X75500000Y-70100000D02*
X76020000Y-69580000D01*
X92000000Y-68000000D02*
X91600000Y-68400000D01*
X91600000Y-68400000D02*
X91350000Y-68400000D01*
X75600000Y-62600000D02*
X74000000Y-61000000D01*
%TO.N,/Peripherals/SENSOR_SCL*%
X80600000Y-99500000D02*
X81150000Y-99500000D01*
X72900000Y-53500000D02*
X66050000Y-53500000D01*
X83000000Y-100000000D02*
X84400000Y-98600000D01*
D30*
X121000000Y-148500000D02*
X120500000Y-148000000D01*
D29*
X119600000Y-62400000D02*
X120000000Y-62000000D01*
X88400000Y-64000000D02*
X91400000Y-64000000D01*
D30*
X121000000Y-150550000D02*
X121000000Y-148500000D01*
D29*
X87600000Y-64800000D02*
X88400000Y-64000000D01*
X120000000Y-52500000D02*
X121000000Y-51500000D01*
X88600000Y-116600000D02*
X89500000Y-117500000D01*
D28*
X133000000Y-135500000D02*
X134450000Y-135500000D01*
D29*
X77800000Y-62400000D02*
X119600000Y-62400000D01*
X87600000Y-98200000D02*
X87600000Y-64800000D01*
X74150000Y-53600000D02*
X74600000Y-54050000D01*
X73000000Y-53600000D02*
X72900000Y-53500000D01*
X80100000Y-99500000D02*
X79800000Y-99800000D01*
X81150000Y-99500000D02*
X81650000Y-100000000D01*
X121000000Y-51500000D02*
X134500000Y-51500000D01*
X87200000Y-98600000D02*
X87600000Y-98200000D01*
X74600000Y-59200000D02*
X77800000Y-62400000D01*
X74600000Y-54050000D02*
X74600000Y-59200000D01*
X89500000Y-117500000D02*
X89500000Y-127000000D01*
D28*
X67000000Y-137500000D02*
X65550000Y-137500000D01*
D29*
X79800000Y-115600000D02*
X80800000Y-116600000D01*
X84400000Y-98600000D02*
X87200000Y-98600000D01*
X80800000Y-116600000D02*
X88600000Y-116600000D01*
D30*
X119800000Y-136800000D02*
X121100000Y-135500000D01*
D29*
X80600000Y-99500000D02*
X80100000Y-99500000D01*
X79800000Y-99800000D02*
X79800000Y-115600000D01*
X120000000Y-62000000D02*
X120000000Y-52500000D01*
X81650000Y-100000000D02*
X83000000Y-100000000D01*
%TO.N,/GPIO/SDI*%
X90100000Y-101400000D02*
X90800000Y-100700000D01*
X90800000Y-100700000D02*
X90800000Y-69400000D01*
X90800000Y-69400000D02*
X90200000Y-68800000D01*
X101400000Y-66600000D02*
X101500000Y-66500000D01*
X90200000Y-68800000D02*
X90200000Y-67200000D01*
X90200000Y-67200000D02*
X90800000Y-66600000D01*
X101500000Y-66500000D02*
X101500000Y-66000000D01*
X80600000Y-101600000D02*
X80800000Y-101400000D01*
X80800000Y-101400000D02*
X90100000Y-101400000D01*
X90800000Y-66600000D02*
X101400000Y-66600000D01*
%TO.N,/GPIO/UART3_RX*%
X89200000Y-99300000D02*
X89200000Y-65630000D01*
X85400000Y-100000000D02*
X88500000Y-100000000D01*
X88500000Y-100000000D02*
X89200000Y-99300000D01*
X89200000Y-65630000D02*
X89500000Y-65330000D01*
%TO.N,/GPIO/UART3_TX*%
X80600000Y-100600000D02*
X80800000Y-100800000D01*
X89150000Y-100800000D02*
X90000000Y-99950000D01*
X80800000Y-100800000D02*
X89150000Y-100800000D01*
X90000000Y-99950000D02*
X90000000Y-69500000D01*
%TO.N,/GPIO/I2C2_SCL*%
X103000000Y-65200000D02*
X102579000Y-64779000D01*
X102579000Y-64779000D02*
X89174612Y-64779000D01*
X87650000Y-99150000D02*
X85400000Y-99150000D01*
X88400000Y-65553612D02*
X88400000Y-98400000D01*
X89174612Y-64779000D02*
X88400000Y-65553612D01*
X88400000Y-98400000D02*
X87650000Y-99150000D01*
X103000000Y-66000000D02*
X103000000Y-65200000D01*
%TO.N,/GPIO/I2C2_SDA*%
X103200000Y-67200000D02*
X103800000Y-66600000D01*
X91200000Y-67200000D02*
X103200000Y-67200000D01*
X90800000Y-67600000D02*
X91200000Y-67200000D01*
X103800000Y-66600000D02*
X103800000Y-65050000D01*
X91600000Y-69600000D02*
X90800000Y-68800000D01*
X90400000Y-102800000D02*
X91600000Y-101600000D01*
X90800000Y-68800000D02*
X90800000Y-67600000D01*
X91600000Y-101600000D02*
X91600000Y-69600000D01*
X85400000Y-102800000D02*
X90400000Y-102800000D01*
X103800000Y-65050000D02*
X103750000Y-65000000D01*
%TO.N,/Peripherals/SENSOR_SDA*%
X82400000Y-98600000D02*
X83000000Y-98000000D01*
X121000000Y-54400000D02*
X121000000Y-62500000D01*
X86800000Y-97600000D02*
X86800000Y-63600000D01*
X87400000Y-118000000D02*
X80000000Y-118000000D01*
X77600000Y-63200000D02*
X73600000Y-59200000D01*
X88000000Y-118600000D02*
X87400000Y-118000000D01*
X78800000Y-101600000D02*
X79200000Y-101200000D01*
X121000000Y-62500000D02*
X120300000Y-63200000D01*
X78800000Y-116800000D02*
X78800000Y-101600000D01*
X80829232Y-98600000D02*
X82400000Y-98600000D01*
X80371768Y-98601000D02*
X80828232Y-98601000D01*
X88000000Y-127000000D02*
X88000000Y-118600000D01*
D30*
X123000000Y-148500000D02*
X122500000Y-148000000D01*
D29*
X72700000Y-51500000D02*
X66050000Y-51500000D01*
X79800000Y-98600000D02*
X80370768Y-98600000D01*
X86400000Y-98000000D02*
X86800000Y-97600000D01*
D28*
X133000000Y-137500000D02*
X134450000Y-137500000D01*
D29*
X79200000Y-101200000D02*
X79200000Y-99200000D01*
X73600000Y-52400000D02*
X72700000Y-51500000D01*
X120300000Y-63200000D02*
X87200000Y-63200000D01*
D30*
X123000000Y-150550000D02*
X123000000Y-148500000D01*
D29*
X85400000Y-98000000D02*
X86400000Y-98000000D01*
X80828232Y-98601000D02*
X80829232Y-98600000D01*
X134500000Y-53500000D02*
X121900000Y-53500000D01*
X79200000Y-99200000D02*
X79800000Y-98600000D01*
X83000000Y-98000000D02*
X85400000Y-98000000D01*
X80370768Y-98600000D02*
X80371768Y-98601000D01*
X86800000Y-63600000D02*
X86400000Y-63200000D01*
X121900000Y-53500000D02*
X121000000Y-54400000D01*
X86400000Y-63200000D02*
X77600000Y-63200000D01*
D28*
X67000000Y-135500000D02*
X65550000Y-135500000D01*
D29*
X87200000Y-63200000D02*
X86800000Y-63600000D01*
X73600000Y-59200000D02*
X73600000Y-52400000D01*
X80000000Y-118000000D02*
X78800000Y-116800000D01*
D28*
%TO.N,/GPIO/PWR_BUT*%
X64450000Y-128500000D02*
X66000000Y-128500000D01*
D29*
%TO.N,/GPIO/FAN_PWM*%
X79750000Y-121750000D02*
X77700000Y-119700000D01*
X77200000Y-109900000D02*
X77200000Y-96400000D01*
X79750000Y-130500000D02*
X79750000Y-121750000D01*
X77700000Y-110400000D02*
X77200000Y-109900000D01*
X77600000Y-96000000D02*
X80600000Y-96000000D01*
X77200000Y-96400000D02*
X77600000Y-96000000D01*
X77700000Y-119700000D02*
X77700000Y-110400000D01*
D26*
%TO.N,Net-(D2-K)*%
X80500000Y-148000000D02*
X80000000Y-148500000D01*
X73000000Y-148500000D02*
X73000000Y-150550000D01*
X87000000Y-148500000D02*
X87000000Y-150550000D01*
X80000000Y-148500000D02*
X80000000Y-150550000D01*
X87500000Y-148000000D02*
X87000000Y-148500000D01*
X112000000Y-150550000D02*
X112000000Y-148500000D01*
X73500000Y-148000000D02*
X73000000Y-148500000D01*
X112000000Y-148500000D02*
X111500000Y-148000000D01*
D29*
%TO.N,/I2S0_WS*%
X63300000Y-102500000D02*
X64450000Y-102500000D01*
X63100000Y-117300000D02*
X63100000Y-102700000D01*
X64450000Y-117500000D02*
X63300000Y-117500000D01*
X78800000Y-97200000D02*
X85400000Y-97200000D01*
X77800000Y-99800000D02*
X77800000Y-98200000D01*
X63100000Y-102700000D02*
X63300000Y-102500000D01*
X64450000Y-102500000D02*
X66000000Y-102500000D01*
X77800000Y-98200000D02*
X78800000Y-97200000D01*
X63300000Y-117500000D02*
X63100000Y-117300000D01*
%TO.N,/I2S0_SCLK*%
X64450000Y-104500000D02*
X66000000Y-104500000D01*
X64450000Y-119500000D02*
X66500000Y-119500000D01*
%TO.N,/VBUS_EN*%
X111000000Y-94500000D02*
X96850000Y-108650000D01*
X114500000Y-94500000D02*
X111000000Y-94500000D01*
X96850000Y-108650000D02*
X96850000Y-128400000D01*
%TO.N,/I2S0_SDI0*%
X78600000Y-100400000D02*
X78200000Y-100800000D01*
X79350000Y-98050000D02*
X78600000Y-98800000D01*
X78600000Y-98800000D02*
X78600000Y-100400000D01*
X80600000Y-98050000D02*
X79350000Y-98050000D01*
X78200000Y-100800000D02*
X77800000Y-100800000D01*
X64450000Y-100500000D02*
X66000000Y-100500000D01*
%TO.N,/I2S0_SDI1*%
X80500000Y-103000000D02*
X80750000Y-103000000D01*
X80750000Y-103000000D02*
X81800000Y-101950000D01*
X64450000Y-115500000D02*
X66500000Y-115500000D01*
X81800000Y-101950000D02*
X85400000Y-101950000D01*
D30*
%TO.N,/GPIO/BATT_INT*%
X122800000Y-135600000D02*
X122800000Y-138400000D01*
D29*
X80500000Y-107900000D02*
X81400000Y-108800000D01*
D30*
X125000000Y-148500000D02*
X124500000Y-148000000D01*
D29*
X82500000Y-114500000D02*
X91500000Y-114500000D01*
X93200000Y-116200000D02*
X93200000Y-123600000D01*
X91500000Y-114500000D02*
X93200000Y-116200000D01*
X81400000Y-113400000D02*
X82500000Y-114500000D01*
D30*
X125000000Y-150550000D02*
X125000000Y-148500000D01*
D29*
X81400000Y-108800000D02*
X81400000Y-113400000D01*
X80500000Y-104000000D02*
X80500000Y-107900000D01*
%TD*%
%TA.AperFunction,Conductor*%
%TO.N,+BATT*%
G36*
X74666442Y-62519685D02*
G01*
X74687084Y-62536319D01*
X74963181Y-62812416D01*
X74996666Y-62873739D01*
X74999500Y-62900097D01*
X74999500Y-69073330D01*
X74999499Y-69073348D01*
X74999499Y-69243353D01*
X75000000Y-69250992D01*
X75000000Y-69731798D01*
X74995850Y-69747284D01*
X74996506Y-69761027D01*
X74983390Y-69793793D01*
X74976302Y-69806070D01*
X74975115Y-69808127D01*
X74940423Y-69868215D01*
X74899499Y-70020943D01*
X74899499Y-70020945D01*
X74899499Y-70189046D01*
X74899500Y-70189059D01*
X74899500Y-118663330D01*
X74899499Y-118663348D01*
X74899499Y-118829054D01*
X74899498Y-118829054D01*
X74899499Y-118829057D01*
X74940423Y-118981785D01*
X74967439Y-119028578D01*
X75019477Y-119118712D01*
X75019481Y-119118717D01*
X75138349Y-119237585D01*
X75138355Y-119237590D01*
X77763181Y-121862416D01*
X77796666Y-121923739D01*
X77799500Y-121950097D01*
X77799500Y-129920234D01*
X77779815Y-129987273D01*
X77778602Y-129989125D01*
X77690609Y-130120814D01*
X77690602Y-130120827D01*
X77630264Y-130266498D01*
X77630261Y-130266510D01*
X77599500Y-130421153D01*
X77599500Y-130578846D01*
X77630261Y-130733489D01*
X77630264Y-130733501D01*
X77690602Y-130879172D01*
X77690609Y-130879185D01*
X77778210Y-131010288D01*
X77778213Y-131010292D01*
X77889707Y-131121786D01*
X77889711Y-131121789D01*
X78020814Y-131209390D01*
X78020827Y-131209397D01*
X78166498Y-131269735D01*
X78166503Y-131269737D01*
X78316131Y-131299500D01*
X78321153Y-131300499D01*
X78321156Y-131300500D01*
X78321158Y-131300500D01*
X78478844Y-131300500D01*
X78478845Y-131300499D01*
X78633497Y-131269737D01*
X78779179Y-131209394D01*
X78910289Y-131121789D01*
X78910925Y-131121153D01*
X78987319Y-131044760D01*
X79048642Y-131011275D01*
X79118334Y-131016259D01*
X79162681Y-131044760D01*
X79239707Y-131121786D01*
X79239711Y-131121789D01*
X79370814Y-131209390D01*
X79370827Y-131209397D01*
X79516498Y-131269735D01*
X79516503Y-131269737D01*
X79666131Y-131299500D01*
X79671153Y-131300499D01*
X79671156Y-131300500D01*
X79671158Y-131300500D01*
X79828844Y-131300500D01*
X79828845Y-131300499D01*
X79983497Y-131269737D01*
X80129179Y-131209394D01*
X80260289Y-131121789D01*
X80260925Y-131121153D01*
X91699500Y-131121153D01*
X91699500Y-131278846D01*
X91730261Y-131433489D01*
X91730264Y-131433501D01*
X91790602Y-131579172D01*
X91790609Y-131579185D01*
X91878210Y-131710288D01*
X91878213Y-131710292D01*
X91989707Y-131821786D01*
X91989711Y-131821789D01*
X92120814Y-131909390D01*
X92120827Y-131909397D01*
X92266498Y-131969735D01*
X92266503Y-131969737D01*
X92421153Y-132000499D01*
X92421156Y-132000500D01*
X92421158Y-132000500D01*
X92578844Y-132000500D01*
X92578845Y-132000499D01*
X92733497Y-131969737D01*
X92879179Y-131909394D01*
X93010289Y-131821789D01*
X93121789Y-131710289D01*
X93209394Y-131579179D01*
X93269737Y-131433497D01*
X93300500Y-131278842D01*
X93300500Y-131121158D01*
X93300500Y-131121155D01*
X93300499Y-131121153D01*
X93279634Y-131016259D01*
X93269737Y-130966503D01*
X93254888Y-130930653D01*
X93209397Y-130820827D01*
X93209390Y-130820814D01*
X93121789Y-130689711D01*
X93121786Y-130689707D01*
X93010292Y-130578213D01*
X93010288Y-130578210D01*
X92879185Y-130490609D01*
X92879172Y-130490602D01*
X92733501Y-130430264D01*
X92733489Y-130430261D01*
X92578845Y-130399500D01*
X92578842Y-130399500D01*
X92421158Y-130399500D01*
X92421155Y-130399500D01*
X92266510Y-130430261D01*
X92266498Y-130430264D01*
X92120827Y-130490602D01*
X92120814Y-130490609D01*
X91989711Y-130578210D01*
X91989707Y-130578213D01*
X91878213Y-130689707D01*
X91878210Y-130689711D01*
X91790609Y-130820814D01*
X91790602Y-130820827D01*
X91730264Y-130966498D01*
X91730261Y-130966510D01*
X91699500Y-131121153D01*
X80260925Y-131121153D01*
X80303868Y-131078210D01*
X80354694Y-131027385D01*
X80371786Y-131010292D01*
X80371789Y-131010289D01*
X80459394Y-130879179D01*
X80519737Y-130733497D01*
X80550500Y-130578842D01*
X80550500Y-130421158D01*
X80550500Y-130421155D01*
X80550499Y-130421153D01*
X80519738Y-130266510D01*
X80519737Y-130266503D01*
X80483427Y-130178842D01*
X80459397Y-130120827D01*
X80459390Y-130120814D01*
X80434763Y-130083957D01*
X80392799Y-130021153D01*
X88399500Y-130021153D01*
X88399500Y-130178846D01*
X88430261Y-130333489D01*
X88430264Y-130333501D01*
X88490602Y-130479172D01*
X88490609Y-130479185D01*
X88578210Y-130610288D01*
X88578213Y-130610292D01*
X88689707Y-130721786D01*
X88689711Y-130721789D01*
X88820814Y-130809390D01*
X88820827Y-130809397D01*
X88966498Y-130869735D01*
X88966503Y-130869737D01*
X89116131Y-130899500D01*
X89121153Y-130900499D01*
X89121156Y-130900500D01*
X89121158Y-130900500D01*
X89278844Y-130900500D01*
X89278845Y-130900499D01*
X89433497Y-130869737D01*
X89551592Y-130820821D01*
X89579172Y-130809397D01*
X89579172Y-130809396D01*
X89579179Y-130809394D01*
X89710289Y-130721789D01*
X89821789Y-130610289D01*
X89909394Y-130479179D01*
X89969737Y-130333497D01*
X90000500Y-130178842D01*
X90000500Y-130021158D01*
X90000500Y-130021155D01*
X89984209Y-129939258D01*
X89984209Y-129939257D01*
X89980608Y-129921153D01*
X94849500Y-129921153D01*
X94849500Y-130078846D01*
X94880261Y-130233489D01*
X94880264Y-130233501D01*
X94940602Y-130379172D01*
X94940609Y-130379185D01*
X95028210Y-130510288D01*
X95028213Y-130510292D01*
X95139707Y-130621786D01*
X95139711Y-130621789D01*
X95270814Y-130709390D01*
X95270827Y-130709397D01*
X95416498Y-130769735D01*
X95416503Y-130769737D01*
X95571153Y-130800499D01*
X95571156Y-130800500D01*
X95571158Y-130800500D01*
X95728844Y-130800500D01*
X95728845Y-130800499D01*
X95883497Y-130769737D01*
X96029179Y-130709394D01*
X96160289Y-130621789D01*
X96271789Y-130510289D01*
X96359394Y-130379179D01*
X96419737Y-130233497D01*
X96450500Y-130078842D01*
X96450500Y-129921158D01*
X96450500Y-129921155D01*
X96450499Y-129921153D01*
X96419738Y-129766510D01*
X96419737Y-129766503D01*
X96400812Y-129720814D01*
X96359397Y-129620827D01*
X96359390Y-129620814D01*
X96271789Y-129489711D01*
X96271786Y-129489707D01*
X96160292Y-129378213D01*
X96160288Y-129378210D01*
X96029185Y-129290609D01*
X96029172Y-129290602D01*
X95883501Y-129230264D01*
X95883489Y-129230261D01*
X95728845Y-129199500D01*
X95728842Y-129199500D01*
X95571158Y-129199500D01*
X95571155Y-129199500D01*
X95416510Y-129230261D01*
X95416498Y-129230264D01*
X95270827Y-129290602D01*
X95270814Y-129290609D01*
X95139711Y-129378210D01*
X95139707Y-129378213D01*
X95028213Y-129489707D01*
X95028210Y-129489711D01*
X94940609Y-129620814D01*
X94940602Y-129620827D01*
X94880264Y-129766498D01*
X94880261Y-129766510D01*
X94849500Y-129921153D01*
X89980608Y-129921153D01*
X89969738Y-129866510D01*
X89969737Y-129866503D01*
X89928314Y-129766498D01*
X89909397Y-129720827D01*
X89909390Y-129720814D01*
X89821789Y-129589711D01*
X89821786Y-129589707D01*
X89710292Y-129478213D01*
X89710288Y-129478210D01*
X89579185Y-129390609D01*
X89579172Y-129390602D01*
X89433501Y-129330264D01*
X89433489Y-129330261D01*
X89278845Y-129299500D01*
X89278842Y-129299500D01*
X89121158Y-129299500D01*
X89121155Y-129299500D01*
X88966510Y-129330261D01*
X88966498Y-129330264D01*
X88820827Y-129390602D01*
X88820814Y-129390609D01*
X88689711Y-129478210D01*
X88689707Y-129478213D01*
X88578213Y-129589707D01*
X88578210Y-129589711D01*
X88490609Y-129720814D01*
X88490602Y-129720827D01*
X88430264Y-129866498D01*
X88430261Y-129866510D01*
X88399500Y-130021153D01*
X80392799Y-130021153D01*
X80371398Y-129989125D01*
X80350520Y-129922448D01*
X80350500Y-129920234D01*
X80350500Y-128124000D01*
X80370185Y-128056961D01*
X80422989Y-128011206D01*
X80474500Y-128000000D01*
X95963652Y-128000000D01*
X96030691Y-128019685D01*
X96076446Y-128072489D01*
X96086390Y-128141647D01*
X96081233Y-128160434D01*
X96082031Y-128160676D01*
X96080261Y-128166510D01*
X96049500Y-128321153D01*
X96049500Y-128478846D01*
X96080261Y-128633489D01*
X96080264Y-128633501D01*
X96140602Y-128779172D01*
X96140609Y-128779185D01*
X96228210Y-128910288D01*
X96228213Y-128910292D01*
X96339707Y-129021786D01*
X96339711Y-129021789D01*
X96470814Y-129109390D01*
X96470827Y-129109397D01*
X96615530Y-129169334D01*
X96616503Y-129169737D01*
X96766131Y-129199500D01*
X96771153Y-129200499D01*
X96771156Y-129200500D01*
X96771158Y-129200500D01*
X96928844Y-129200500D01*
X96928845Y-129200499D01*
X97083497Y-129169737D01*
X97229179Y-129109394D01*
X97331111Y-129041284D01*
X97397786Y-129020408D01*
X97465166Y-129038892D01*
X97468847Y-129041257D01*
X97570821Y-129109394D01*
X97570823Y-129109395D01*
X97570827Y-129109397D01*
X97715530Y-129169334D01*
X97716503Y-129169737D01*
X97866131Y-129199500D01*
X97871153Y-129200499D01*
X97871156Y-129200500D01*
X97871158Y-129200500D01*
X98028844Y-129200500D01*
X98028845Y-129200499D01*
X98183497Y-129169737D01*
X98329179Y-129109394D01*
X98460289Y-129021789D01*
X98571789Y-128910289D01*
X98659394Y-128779179D01*
X98719737Y-128633497D01*
X98750500Y-128478842D01*
X98750500Y-128321158D01*
X98750500Y-128321155D01*
X98750499Y-128321153D01*
X98719738Y-128166510D01*
X98719737Y-128166503D01*
X98719732Y-128166492D01*
X98717969Y-128160676D01*
X98720549Y-128159893D01*
X98714314Y-128102008D01*
X98745576Y-128039523D01*
X98805657Y-128003858D01*
X98836348Y-128000000D01*
X121500000Y-128000000D01*
X121500000Y-124320259D01*
X125799500Y-124320259D01*
X125799500Y-124679740D01*
X125839746Y-125036935D01*
X125839748Y-125036951D01*
X125919737Y-125387407D01*
X125919741Y-125387419D01*
X126038465Y-125726711D01*
X126194432Y-126050579D01*
X126194434Y-126050582D01*
X126385685Y-126354956D01*
X126609812Y-126636003D01*
X126863997Y-126890188D01*
X127145044Y-127114315D01*
X127449418Y-127305566D01*
X127773292Y-127461536D01*
X128028119Y-127550703D01*
X128112580Y-127580258D01*
X128112592Y-127580262D01*
X128463052Y-127660252D01*
X128820260Y-127700499D01*
X128820261Y-127700500D01*
X128820264Y-127700500D01*
X129179739Y-127700500D01*
X129179739Y-127700499D01*
X129536948Y-127660252D01*
X129887408Y-127580262D01*
X130226708Y-127461536D01*
X130550582Y-127305566D01*
X130854956Y-127114315D01*
X131136003Y-126890188D01*
X131390188Y-126636003D01*
X131614315Y-126354956D01*
X131805566Y-126050582D01*
X131961536Y-125726708D01*
X132080262Y-125387408D01*
X132160252Y-125036948D01*
X132200500Y-124679736D01*
X132200500Y-124320264D01*
X132160252Y-123963052D01*
X132080262Y-123612592D01*
X131961536Y-123273292D01*
X131805566Y-122949418D01*
X131614315Y-122645044D01*
X131390188Y-122363997D01*
X131136003Y-122109812D01*
X130854956Y-121885685D01*
X130550582Y-121694434D01*
X130550579Y-121694432D01*
X130226711Y-121538465D01*
X129887419Y-121419741D01*
X129887407Y-121419737D01*
X129536951Y-121339748D01*
X129536935Y-121339746D01*
X129179740Y-121299500D01*
X129179736Y-121299500D01*
X128820264Y-121299500D01*
X128820259Y-121299500D01*
X128463064Y-121339746D01*
X128463048Y-121339748D01*
X128112592Y-121419737D01*
X128112580Y-121419741D01*
X127773288Y-121538465D01*
X127449420Y-121694432D01*
X127145045Y-121885684D01*
X126863997Y-122109811D01*
X126609811Y-122363997D01*
X126385684Y-122645045D01*
X126194432Y-122949420D01*
X126038465Y-123273288D01*
X125919741Y-123612580D01*
X125919737Y-123612592D01*
X125839748Y-123963048D01*
X125839746Y-123963064D01*
X125799500Y-124320259D01*
X121500000Y-124320259D01*
X121500000Y-121551362D01*
X121519685Y-121484323D01*
X121536319Y-121463681D01*
X123266511Y-119733489D01*
X125000000Y-118000000D01*
X125000000Y-114321153D01*
X126199500Y-114321153D01*
X126199500Y-114478846D01*
X126230261Y-114633489D01*
X126230264Y-114633501D01*
X126290602Y-114779172D01*
X126290609Y-114779185D01*
X126378210Y-114910288D01*
X126378213Y-114910292D01*
X126489707Y-115021786D01*
X126489711Y-115021789D01*
X126620814Y-115109390D01*
X126620827Y-115109397D01*
X126765530Y-115169334D01*
X126766503Y-115169737D01*
X126921153Y-115200499D01*
X126921156Y-115200500D01*
X126921158Y-115200500D01*
X127078844Y-115200500D01*
X127078845Y-115200499D01*
X127233497Y-115169737D01*
X127379179Y-115109394D01*
X127510289Y-115021789D01*
X127621789Y-114910289D01*
X127709394Y-114779179D01*
X127769737Y-114633497D01*
X127800500Y-114478842D01*
X127800500Y-114321158D01*
X127800500Y-114321155D01*
X127800499Y-114321153D01*
X127783063Y-114233497D01*
X127769737Y-114166503D01*
X127769735Y-114166498D01*
X127709397Y-114020827D01*
X127709390Y-114020814D01*
X127621789Y-113889711D01*
X127621786Y-113889707D01*
X127510292Y-113778213D01*
X127510288Y-113778210D01*
X127379185Y-113690609D01*
X127379172Y-113690602D01*
X127233501Y-113630264D01*
X127233489Y-113630261D01*
X127078845Y-113599500D01*
X127078842Y-113599500D01*
X126921158Y-113599500D01*
X126921155Y-113599500D01*
X126766510Y-113630261D01*
X126766498Y-113630264D01*
X126620827Y-113690602D01*
X126620814Y-113690609D01*
X126489711Y-113778210D01*
X126489707Y-113778213D01*
X126378213Y-113889707D01*
X126378210Y-113889711D01*
X126290609Y-114020814D01*
X126290602Y-114020827D01*
X126230264Y-114166498D01*
X126230261Y-114166510D01*
X126199500Y-114321153D01*
X125000000Y-114321153D01*
X125000000Y-107521153D01*
X126199500Y-107521153D01*
X126199500Y-107678846D01*
X126230261Y-107833489D01*
X126230264Y-107833501D01*
X126290602Y-107979172D01*
X126290609Y-107979185D01*
X126378210Y-108110288D01*
X126378213Y-108110292D01*
X126489707Y-108221786D01*
X126489711Y-108221789D01*
X126620814Y-108309390D01*
X126620827Y-108309397D01*
X126758695Y-108366503D01*
X126766503Y-108369737D01*
X126921153Y-108400499D01*
X126921156Y-108400500D01*
X126921158Y-108400500D01*
X127078844Y-108400500D01*
X127078845Y-108400499D01*
X127233497Y-108369737D01*
X127379179Y-108309394D01*
X127510289Y-108221789D01*
X127621789Y-108110289D01*
X127709394Y-107979179D01*
X127769737Y-107833497D01*
X127800500Y-107678842D01*
X127800500Y-107521158D01*
X127800500Y-107521155D01*
X127800499Y-107521153D01*
X127779686Y-107416520D01*
X127769737Y-107366503D01*
X127742398Y-107300500D01*
X127709397Y-107220827D01*
X127709390Y-107220814D01*
X127621789Y-107089711D01*
X127621786Y-107089707D01*
X127510292Y-106978213D01*
X127510288Y-106978210D01*
X127379185Y-106890609D01*
X127379172Y-106890602D01*
X127233501Y-106830264D01*
X127233489Y-106830261D01*
X127078845Y-106799500D01*
X127078842Y-106799500D01*
X126921158Y-106799500D01*
X126921155Y-106799500D01*
X126766510Y-106830261D01*
X126766498Y-106830264D01*
X126620827Y-106890602D01*
X126620814Y-106890609D01*
X126489711Y-106978210D01*
X126489707Y-106978213D01*
X126378213Y-107089707D01*
X126378210Y-107089711D01*
X126290609Y-107220814D01*
X126290602Y-107220827D01*
X126230264Y-107366498D01*
X126230261Y-107366510D01*
X126199500Y-107521153D01*
X125000000Y-107521153D01*
X125000000Y-104521153D01*
X126199500Y-104521153D01*
X126199500Y-104678846D01*
X126230261Y-104833489D01*
X126230264Y-104833501D01*
X126290602Y-104979172D01*
X126290609Y-104979185D01*
X126378210Y-105110288D01*
X126378213Y-105110292D01*
X126489707Y-105221786D01*
X126489711Y-105221789D01*
X126620814Y-105309390D01*
X126620827Y-105309397D01*
X126693296Y-105339414D01*
X126766503Y-105369737D01*
X126921153Y-105400499D01*
X126921156Y-105400500D01*
X126921158Y-105400500D01*
X127078844Y-105400500D01*
X127078845Y-105400499D01*
X127233497Y-105369737D01*
X127379179Y-105309394D01*
X127510289Y-105221789D01*
X127621789Y-105110289D01*
X127709394Y-104979179D01*
X127769737Y-104833497D01*
X127800500Y-104678842D01*
X127800500Y-104521158D01*
X127800500Y-104521155D01*
X127800499Y-104521153D01*
X127792083Y-104478842D01*
X127769737Y-104366503D01*
X127728314Y-104266498D01*
X127709397Y-104220827D01*
X127709390Y-104220814D01*
X127621789Y-104089711D01*
X127621786Y-104089707D01*
X127510292Y-103978213D01*
X127510288Y-103978210D01*
X127379185Y-103890609D01*
X127379172Y-103890602D01*
X127233501Y-103830264D01*
X127233489Y-103830261D01*
X127078845Y-103799500D01*
X127078842Y-103799500D01*
X126921158Y-103799500D01*
X126921155Y-103799500D01*
X126766510Y-103830261D01*
X126766498Y-103830264D01*
X126620827Y-103890602D01*
X126620814Y-103890609D01*
X126489711Y-103978210D01*
X126489707Y-103978213D01*
X126378213Y-104089707D01*
X126378210Y-104089711D01*
X126290609Y-104220814D01*
X126290602Y-104220827D01*
X126230264Y-104366498D01*
X126230261Y-104366510D01*
X126199500Y-104521153D01*
X125000000Y-104521153D01*
X125000000Y-96148597D01*
X125019685Y-96081558D01*
X125072489Y-96035803D01*
X125141647Y-96025859D01*
X125205203Y-96054884D01*
X125211681Y-96060916D01*
X125511182Y-96360417D01*
X125511192Y-96360428D01*
X125515522Y-96364758D01*
X125515523Y-96364759D01*
X125627327Y-96476563D01*
X125627329Y-96476564D01*
X125627333Y-96476567D01*
X125764252Y-96555616D01*
X125764259Y-96555620D01*
X125850925Y-96578842D01*
X125916985Y-96596543D01*
X125916986Y-96596543D01*
X126707363Y-96596543D01*
X126774402Y-96616228D01*
X126820157Y-96669032D01*
X126830101Y-96738190D01*
X126801076Y-96801746D01*
X126754815Y-96835104D01*
X126620827Y-96890602D01*
X126620814Y-96890609D01*
X126489711Y-96978210D01*
X126489707Y-96978213D01*
X126378213Y-97089707D01*
X126378210Y-97089711D01*
X126290609Y-97220814D01*
X126290602Y-97220827D01*
X126230264Y-97366498D01*
X126230261Y-97366510D01*
X126199500Y-97521153D01*
X126199500Y-97678846D01*
X126230261Y-97833489D01*
X126230264Y-97833501D01*
X126290602Y-97979172D01*
X126290609Y-97979185D01*
X126378210Y-98110288D01*
X126378213Y-98110292D01*
X126489707Y-98221786D01*
X126489711Y-98221789D01*
X126524322Y-98244916D01*
X126569127Y-98298529D01*
X126577834Y-98367854D01*
X126547679Y-98430881D01*
X126524323Y-98451119D01*
X126483781Y-98478208D01*
X126483775Y-98478213D01*
X126372281Y-98589707D01*
X126372278Y-98589711D01*
X126284677Y-98720814D01*
X126284670Y-98720827D01*
X126224332Y-98866498D01*
X126224329Y-98866510D01*
X126193568Y-99021153D01*
X126193568Y-99178846D01*
X126224329Y-99333489D01*
X126224332Y-99333501D01*
X126273642Y-99452548D01*
X126281111Y-99522018D01*
X126273642Y-99547452D01*
X126224332Y-99666498D01*
X126224329Y-99666510D01*
X126193568Y-99821153D01*
X126193568Y-99978846D01*
X126224329Y-100133489D01*
X126224332Y-100133501D01*
X126284670Y-100279172D01*
X126284677Y-100279185D01*
X126372278Y-100410288D01*
X126372281Y-100410292D01*
X126483776Y-100521787D01*
X126483779Y-100521789D01*
X126518389Y-100544915D01*
X126524321Y-100548878D01*
X126569127Y-100602491D01*
X126577834Y-100671815D01*
X126547680Y-100734843D01*
X126524324Y-100755082D01*
X126489709Y-100778211D01*
X126378213Y-100889707D01*
X126378210Y-100889711D01*
X126290609Y-101020814D01*
X126290602Y-101020827D01*
X126230264Y-101166498D01*
X126230261Y-101166510D01*
X126199500Y-101321153D01*
X126199500Y-101478846D01*
X126230261Y-101633489D01*
X126230264Y-101633501D01*
X126290602Y-101779172D01*
X126290609Y-101779185D01*
X126378210Y-101910288D01*
X126378213Y-101910292D01*
X126489707Y-102021786D01*
X126489711Y-102021789D01*
X126620814Y-102109390D01*
X126620827Y-102109397D01*
X126766498Y-102169735D01*
X126766503Y-102169737D01*
X126916131Y-102199500D01*
X126921153Y-102200499D01*
X126921156Y-102200500D01*
X126921158Y-102200500D01*
X127078844Y-102200500D01*
X127078845Y-102200499D01*
X127233497Y-102169737D01*
X127351592Y-102120821D01*
X127379172Y-102109397D01*
X127379172Y-102109396D01*
X127379179Y-102109394D01*
X127510289Y-102021789D01*
X127621789Y-101910289D01*
X127709394Y-101779179D01*
X127769737Y-101633497D01*
X127800500Y-101478842D01*
X127800500Y-101321158D01*
X127800500Y-101321155D01*
X127800499Y-101321153D01*
X127778269Y-101209397D01*
X127769737Y-101166503D01*
X127751215Y-101121786D01*
X127709397Y-101020827D01*
X127709390Y-101020814D01*
X127621789Y-100889711D01*
X127621786Y-100889707D01*
X127510292Y-100778213D01*
X127510288Y-100778210D01*
X127469745Y-100751120D01*
X127424940Y-100697508D01*
X127416233Y-100628183D01*
X127446387Y-100565155D01*
X127469744Y-100544916D01*
X127504357Y-100521789D01*
X127615857Y-100410289D01*
X127703462Y-100279179D01*
X127763805Y-100133497D01*
X127794568Y-99978842D01*
X127794568Y-99821158D01*
X127794568Y-99821155D01*
X127794567Y-99821153D01*
X127771198Y-99703669D01*
X127763805Y-99666503D01*
X127714493Y-99547452D01*
X127707024Y-99477983D01*
X127714493Y-99452548D01*
X127763803Y-99333501D01*
X127763805Y-99333497D01*
X127794568Y-99178842D01*
X127794568Y-99021158D01*
X127794568Y-99021155D01*
X127794567Y-99021153D01*
X127778780Y-98941789D01*
X127763805Y-98866503D01*
X127748805Y-98830289D01*
X127703465Y-98720827D01*
X127703458Y-98720814D01*
X127615857Y-98589711D01*
X127615854Y-98589707D01*
X127504360Y-98478213D01*
X127504354Y-98478208D01*
X127469744Y-98455082D01*
X127424940Y-98401470D01*
X127416233Y-98332145D01*
X127446388Y-98269117D01*
X127469747Y-98248878D01*
X127475677Y-98244916D01*
X127510289Y-98221789D01*
X127621789Y-98110289D01*
X127709394Y-97979179D01*
X127769737Y-97833497D01*
X127800500Y-97678842D01*
X127800500Y-97521158D01*
X127800500Y-97521155D01*
X127800499Y-97521153D01*
X127794867Y-97492840D01*
X127769737Y-97366503D01*
X127763425Y-97351265D01*
X127709397Y-97220827D01*
X127709390Y-97220814D01*
X127621789Y-97089711D01*
X127621786Y-97089707D01*
X127537476Y-97005397D01*
X127503991Y-96944074D01*
X127508975Y-96874382D01*
X127550847Y-96818449D01*
X127600965Y-96796099D01*
X127733497Y-96769737D01*
X127879179Y-96709394D01*
X128010289Y-96621789D01*
X128121789Y-96510289D01*
X128209394Y-96379179D01*
X128269737Y-96233497D01*
X128300500Y-96078842D01*
X128300500Y-95921158D01*
X128300500Y-95921155D01*
X128300499Y-95921153D01*
X128274531Y-95790606D01*
X128269737Y-95766503D01*
X128262694Y-95749500D01*
X128209397Y-95620827D01*
X128209390Y-95620814D01*
X128121789Y-95489711D01*
X128121786Y-95489707D01*
X128010292Y-95378213D01*
X128010288Y-95378210D01*
X127879185Y-95290609D01*
X127879172Y-95290602D01*
X127733501Y-95230264D01*
X127733491Y-95230261D01*
X127600965Y-95203900D01*
X127539054Y-95171515D01*
X127504480Y-95110799D01*
X127508220Y-95041030D01*
X127537474Y-94994603D01*
X127621789Y-94910289D01*
X127709394Y-94779179D01*
X127769737Y-94633497D01*
X127800500Y-94478842D01*
X127800500Y-94321158D01*
X127800500Y-94321155D01*
X127800499Y-94321153D01*
X127794245Y-94289711D01*
X127769737Y-94166503D01*
X127728904Y-94067922D01*
X127709397Y-94020827D01*
X127709390Y-94020814D01*
X127621789Y-93889711D01*
X127621786Y-93889707D01*
X127510292Y-93778213D01*
X127510288Y-93778210D01*
X127379185Y-93690609D01*
X127379172Y-93690602D01*
X127233501Y-93630264D01*
X127233489Y-93630261D01*
X127078845Y-93599500D01*
X127078842Y-93599500D01*
X126921158Y-93599500D01*
X126921155Y-93599500D01*
X126766510Y-93630261D01*
X126766498Y-93630264D01*
X126620827Y-93690602D01*
X126620814Y-93690609D01*
X126489711Y-93778210D01*
X126489707Y-93778213D01*
X126378213Y-93889707D01*
X126378210Y-93889711D01*
X126328249Y-93964484D01*
X126274637Y-94009289D01*
X126205312Y-94017996D01*
X126142285Y-93987842D01*
X126137466Y-93983274D01*
X125036319Y-92882127D01*
X125002834Y-92820804D01*
X125000000Y-92794446D01*
X125000000Y-89486348D01*
X125019685Y-89419309D01*
X125072489Y-89373554D01*
X125141647Y-89363610D01*
X125160434Y-89368766D01*
X125160676Y-89367969D01*
X125166492Y-89369732D01*
X125166503Y-89369737D01*
X125321153Y-89400499D01*
X125321156Y-89400500D01*
X125321158Y-89400500D01*
X125478844Y-89400500D01*
X125478845Y-89400499D01*
X125633497Y-89369737D01*
X125779179Y-89309394D01*
X125910289Y-89221789D01*
X126021789Y-89110289D01*
X126109394Y-88979179D01*
X126169737Y-88833497D01*
X126200500Y-88678842D01*
X126200500Y-88521158D01*
X126200500Y-88521155D01*
X126200499Y-88521153D01*
X126192338Y-88480127D01*
X126169737Y-88366503D01*
X126114645Y-88233497D01*
X126109397Y-88220827D01*
X126109390Y-88220814D01*
X126021789Y-88089711D01*
X126021786Y-88089707D01*
X125910292Y-87978213D01*
X125910288Y-87978210D01*
X125779185Y-87890609D01*
X125779172Y-87890602D01*
X125633501Y-87830264D01*
X125633489Y-87830261D01*
X125478845Y-87799500D01*
X125478842Y-87799500D01*
X125370808Y-87799500D01*
X125303769Y-87779815D01*
X125283127Y-87763181D01*
X125036319Y-87516373D01*
X125002834Y-87455050D01*
X125000000Y-87428692D01*
X125000000Y-83919738D01*
X130400915Y-83919738D01*
X130400915Y-84077431D01*
X130431676Y-84232074D01*
X130431679Y-84232086D01*
X130492017Y-84377757D01*
X130492024Y-84377770D01*
X130579625Y-84508873D01*
X130579628Y-84508877D01*
X130691122Y-84620371D01*
X130691126Y-84620374D01*
X130822229Y-84707975D01*
X130822242Y-84707982D01*
X130967913Y-84768320D01*
X130967918Y-84768322D01*
X131122568Y-84799084D01*
X131122571Y-84799085D01*
X131122573Y-84799085D01*
X131280259Y-84799085D01*
X131280260Y-84799084D01*
X131434912Y-84768322D01*
X131580594Y-84707979D01*
X131711704Y-84620374D01*
X131823204Y-84508874D01*
X131910809Y-84377764D01*
X131934256Y-84321158D01*
X131971325Y-84231665D01*
X132015166Y-84177261D01*
X132038434Y-84164556D01*
X132130112Y-84126582D01*
X132130112Y-84126581D01*
X132130119Y-84126579D01*
X132261229Y-84038974D01*
X132372729Y-83927474D01*
X132460334Y-83796364D01*
X132520677Y-83650682D01*
X132551440Y-83496027D01*
X132551440Y-83338343D01*
X132551440Y-83338340D01*
X132551439Y-83338338D01*
X132520677Y-83183688D01*
X132476716Y-83077555D01*
X132460337Y-83038012D01*
X132460330Y-83037999D01*
X132372729Y-82906896D01*
X132372726Y-82906892D01*
X132261232Y-82795398D01*
X132261228Y-82795395D01*
X132130125Y-82707794D01*
X132130112Y-82707787D01*
X131984441Y-82647449D01*
X131984429Y-82647446D01*
X131829785Y-82616685D01*
X131829782Y-82616685D01*
X131672098Y-82616685D01*
X131672095Y-82616685D01*
X131517450Y-82647446D01*
X131517438Y-82647449D01*
X131371767Y-82707787D01*
X131371754Y-82707794D01*
X131240651Y-82795395D01*
X131240647Y-82795398D01*
X131129153Y-82906892D01*
X131129150Y-82906896D01*
X131041549Y-83037999D01*
X131041542Y-83038012D01*
X130981030Y-83184104D01*
X130937189Y-83238508D01*
X130913922Y-83251213D01*
X130822239Y-83289189D01*
X130822229Y-83289194D01*
X130691126Y-83376795D01*
X130691122Y-83376798D01*
X130579628Y-83488292D01*
X130579625Y-83488296D01*
X130492024Y-83619399D01*
X130492017Y-83619412D01*
X130431679Y-83765083D01*
X130431676Y-83765095D01*
X130400915Y-83919738D01*
X125000000Y-83919738D01*
X125000000Y-75320259D01*
X125799500Y-75320259D01*
X125799500Y-75679740D01*
X125839746Y-76036935D01*
X125839748Y-76036951D01*
X125919737Y-76387407D01*
X125919741Y-76387419D01*
X126038465Y-76726711D01*
X126194432Y-77050579D01*
X126194434Y-77050582D01*
X126385685Y-77354956D01*
X126609812Y-77636003D01*
X126863997Y-77890188D01*
X127145044Y-78114315D01*
X127235118Y-78170912D01*
X127281409Y-78223246D01*
X127292058Y-78292300D01*
X127263683Y-78356148D01*
X127216599Y-78390467D01*
X127113364Y-78433228D01*
X127113354Y-78433233D01*
X126982251Y-78520834D01*
X126982247Y-78520837D01*
X126870753Y-78632331D01*
X126870750Y-78632335D01*
X126783149Y-78763438D01*
X126783144Y-78763448D01*
X126733833Y-78882495D01*
X126689992Y-78936899D01*
X126666725Y-78949603D01*
X126547678Y-78998914D01*
X126547668Y-78998919D01*
X126416565Y-79086520D01*
X126416561Y-79086523D01*
X126305067Y-79198017D01*
X126305064Y-79198021D01*
X126217463Y-79329124D01*
X126217456Y-79329137D01*
X126157118Y-79474808D01*
X126157115Y-79474820D01*
X126126354Y-79629463D01*
X126126354Y-79787156D01*
X126157115Y-79941799D01*
X126157118Y-79941811D01*
X126217456Y-80087482D01*
X126217463Y-80087495D01*
X126305064Y-80218598D01*
X126305067Y-80218602D01*
X126416561Y-80330096D01*
X126416565Y-80330099D01*
X126547668Y-80417700D01*
X126547681Y-80417707D01*
X126693352Y-80478045D01*
X126693357Y-80478047D01*
X126848007Y-80508809D01*
X126848010Y-80508810D01*
X126848012Y-80508810D01*
X127005698Y-80508810D01*
X127005699Y-80508809D01*
X127160351Y-80478047D01*
X127306033Y-80417704D01*
X127437143Y-80330099D01*
X127548643Y-80218599D01*
X127636248Y-80087489D01*
X127639830Y-80078842D01*
X127685560Y-79968439D01*
X127729400Y-79914035D01*
X127752669Y-79901330D01*
X127871712Y-79852021D01*
X127871712Y-79852020D01*
X127871719Y-79852018D01*
X128002829Y-79764413D01*
X128114329Y-79652913D01*
X128201934Y-79521803D01*
X128262277Y-79376121D01*
X128293040Y-79221466D01*
X128293040Y-79063782D01*
X128293040Y-79063779D01*
X128293039Y-79063777D01*
X128267162Y-78933687D01*
X128262277Y-78909127D01*
X128219315Y-78805408D01*
X128211847Y-78735940D01*
X128243122Y-78673461D01*
X128303211Y-78637809D01*
X128361467Y-78637066D01*
X128463052Y-78660252D01*
X128820260Y-78700499D01*
X128820261Y-78700500D01*
X128820264Y-78700500D01*
X129179739Y-78700500D01*
X129179739Y-78700499D01*
X129536948Y-78660252D01*
X129887408Y-78580262D01*
X130226708Y-78461536D01*
X130550582Y-78305566D01*
X130854956Y-78114315D01*
X131136003Y-77890188D01*
X131390188Y-77636003D01*
X131614315Y-77354956D01*
X131805566Y-77050582D01*
X131961536Y-76726708D01*
X132080262Y-76387408D01*
X132160252Y-76036948D01*
X132200500Y-75679736D01*
X132200500Y-75320264D01*
X132160252Y-74963052D01*
X132080262Y-74612592D01*
X131961536Y-74273292D01*
X131805566Y-73949418D01*
X131614315Y-73645044D01*
X131390188Y-73363997D01*
X131136003Y-73109812D01*
X130854956Y-72885685D01*
X130550582Y-72694434D01*
X130550579Y-72694432D01*
X130226711Y-72538465D01*
X129887419Y-72419741D01*
X129887407Y-72419737D01*
X129536951Y-72339748D01*
X129536935Y-72339746D01*
X129179740Y-72299500D01*
X129179736Y-72299500D01*
X128820264Y-72299500D01*
X128820259Y-72299500D01*
X128463064Y-72339746D01*
X128463048Y-72339748D01*
X128112592Y-72419737D01*
X128112580Y-72419741D01*
X127773288Y-72538465D01*
X127449420Y-72694432D01*
X127145045Y-72885684D01*
X126863997Y-73109811D01*
X126609811Y-73363997D01*
X126385684Y-73645045D01*
X126194432Y-73949420D01*
X126038465Y-74273288D01*
X125919741Y-74612580D01*
X125919737Y-74612592D01*
X125839748Y-74963048D01*
X125839746Y-74963064D01*
X125799500Y-75320259D01*
X125000000Y-75320259D01*
X125000000Y-70721153D01*
X126199500Y-70721153D01*
X126199500Y-70878846D01*
X126230261Y-71033489D01*
X126230264Y-71033501D01*
X126290602Y-71179172D01*
X126290609Y-71179185D01*
X126378210Y-71310288D01*
X126378213Y-71310292D01*
X126489707Y-71421786D01*
X126489711Y-71421789D01*
X126620814Y-71509390D01*
X126620827Y-71509397D01*
X126766498Y-71569735D01*
X126766503Y-71569737D01*
X126921153Y-71600499D01*
X126921156Y-71600500D01*
X126921158Y-71600500D01*
X127078844Y-71600500D01*
X127078845Y-71600499D01*
X127233497Y-71569737D01*
X127379179Y-71509394D01*
X127510289Y-71421789D01*
X127621789Y-71310289D01*
X127709394Y-71179179D01*
X127769737Y-71033497D01*
X127800500Y-70878842D01*
X127800500Y-70721158D01*
X127800500Y-70721155D01*
X127800499Y-70721153D01*
X127769738Y-70566510D01*
X127769737Y-70566503D01*
X127765920Y-70557288D01*
X127709397Y-70420827D01*
X127709390Y-70420814D01*
X127621789Y-70289711D01*
X127621786Y-70289707D01*
X127510292Y-70178213D01*
X127510288Y-70178210D01*
X127379185Y-70090609D01*
X127379172Y-70090602D01*
X127233501Y-70030264D01*
X127233489Y-70030261D01*
X127078845Y-69999500D01*
X127078842Y-69999500D01*
X126921158Y-69999500D01*
X126921155Y-69999500D01*
X126766510Y-70030261D01*
X126766498Y-70030264D01*
X126620827Y-70090602D01*
X126620814Y-70090609D01*
X126489711Y-70178210D01*
X126489707Y-70178213D01*
X126378213Y-70289707D01*
X126378210Y-70289711D01*
X126290609Y-70420814D01*
X126290602Y-70420827D01*
X126230264Y-70566498D01*
X126230261Y-70566510D01*
X126199500Y-70721153D01*
X125000000Y-70721153D01*
X125000000Y-62624000D01*
X125019685Y-62556961D01*
X125072489Y-62511206D01*
X125124000Y-62500000D01*
X132664487Y-62500000D01*
X132731526Y-62519685D01*
X132777281Y-62572489D01*
X132787225Y-62641647D01*
X132764805Y-62696885D01*
X132695379Y-62792442D01*
X132598904Y-62981782D01*
X132533242Y-63183870D01*
X132533242Y-63183873D01*
X132522769Y-63250000D01*
X133570854Y-63250000D01*
X133532370Y-63316657D01*
X133500000Y-63437465D01*
X133500000Y-63562535D01*
X133532370Y-63683343D01*
X133570854Y-63750000D01*
X132522769Y-63750000D01*
X132533242Y-63816126D01*
X132533242Y-63816129D01*
X132598904Y-64018217D01*
X132695379Y-64207557D01*
X132820272Y-64379459D01*
X132820276Y-64379464D01*
X132959143Y-64518331D01*
X132992628Y-64579654D01*
X132987644Y-64649346D01*
X132945772Y-64705279D01*
X132936559Y-64711551D01*
X132781342Y-64807289D01*
X132657289Y-64931342D01*
X132565187Y-65080663D01*
X132565185Y-65080668D01*
X132523514Y-65206423D01*
X132483741Y-65263868D01*
X132419225Y-65290691D01*
X132358356Y-65281980D01*
X132233501Y-65230264D01*
X132233489Y-65230261D01*
X132078845Y-65199500D01*
X132078842Y-65199500D01*
X131921158Y-65199500D01*
X131921155Y-65199500D01*
X131766510Y-65230261D01*
X131766498Y-65230264D01*
X131620827Y-65290602D01*
X131620814Y-65290609D01*
X131489711Y-65378210D01*
X131489707Y-65378213D01*
X131378213Y-65489707D01*
X131378210Y-65489711D01*
X131290609Y-65620814D01*
X131290602Y-65620827D01*
X131230264Y-65766498D01*
X131230261Y-65766510D01*
X131199500Y-65921153D01*
X131199500Y-66078846D01*
X131230261Y-66233489D01*
X131230264Y-66233501D01*
X131290602Y-66379172D01*
X131290609Y-66379185D01*
X131378210Y-66510288D01*
X131378213Y-66510292D01*
X131489707Y-66621786D01*
X131489711Y-66621789D01*
X131620814Y-66709390D01*
X131620827Y-66709397D01*
X131766498Y-66769735D01*
X131766503Y-66769737D01*
X131886344Y-66793575D01*
X131921153Y-66800499D01*
X131921156Y-66800500D01*
X131921158Y-66800500D01*
X132078844Y-66800500D01*
X132078845Y-66800499D01*
X132233497Y-66769737D01*
X132358357Y-66718018D01*
X132427823Y-66710550D01*
X132490303Y-66741825D01*
X132523513Y-66793575D01*
X132565186Y-66919333D01*
X132565187Y-66919336D01*
X132595645Y-66968716D01*
X132657288Y-67068656D01*
X132781344Y-67192712D01*
X132930666Y-67284814D01*
X133097203Y-67339999D01*
X133199991Y-67350500D01*
X133876001Y-67350499D01*
X133943039Y-67370183D01*
X133988794Y-67422987D01*
X134000000Y-67474499D01*
X134000000Y-116182052D01*
X133980315Y-116249091D01*
X133927511Y-116294846D01*
X133900192Y-116303669D01*
X133766508Y-116330261D01*
X133766498Y-116330264D01*
X133620827Y-116390602D01*
X133620814Y-116390609D01*
X133489711Y-116478210D01*
X133489707Y-116478213D01*
X133378213Y-116589707D01*
X133378210Y-116589711D01*
X133290609Y-116720814D01*
X133290602Y-116720827D01*
X133230264Y-116866498D01*
X133230261Y-116866510D01*
X133199500Y-117021153D01*
X133199500Y-117178846D01*
X133230261Y-117333489D01*
X133230264Y-117333501D01*
X133279574Y-117452548D01*
X133287043Y-117522018D01*
X133279574Y-117547452D01*
X133230264Y-117666498D01*
X133230261Y-117666510D01*
X133199500Y-117821153D01*
X133199500Y-117978846D01*
X133230261Y-118133489D01*
X133230264Y-118133501D01*
X133290602Y-118279172D01*
X133290609Y-118279185D01*
X133378210Y-118410288D01*
X133378213Y-118410292D01*
X133489707Y-118521786D01*
X133489711Y-118521789D01*
X133620814Y-118609390D01*
X133620827Y-118609397D01*
X133731098Y-118655072D01*
X133766503Y-118669737D01*
X133818130Y-118680006D01*
X133900191Y-118696330D01*
X133962102Y-118728715D01*
X133996677Y-118789431D01*
X134000000Y-118817947D01*
X134000000Y-127887270D01*
X133980315Y-127954309D01*
X133963681Y-127974951D01*
X133434704Y-128503927D01*
X133394478Y-128530806D01*
X133370826Y-128540603D01*
X133370814Y-128540609D01*
X133239711Y-128628210D01*
X133239707Y-128628213D01*
X133128213Y-128739707D01*
X133128210Y-128739711D01*
X133040609Y-128870814D01*
X133040602Y-128870827D01*
X132980264Y-129016498D01*
X132980261Y-129016510D01*
X132949500Y-129171153D01*
X132949500Y-129328846D01*
X132980261Y-129483489D01*
X132980264Y-129483501D01*
X133040602Y-129629172D01*
X133040609Y-129629185D01*
X133128210Y-129760288D01*
X133128213Y-129760292D01*
X133239707Y-129871786D01*
X133239711Y-129871789D01*
X133370814Y-129959390D01*
X133370827Y-129959397D01*
X133444013Y-129989711D01*
X133516503Y-130019737D01*
X133671153Y-130050499D01*
X133671156Y-130050500D01*
X133671158Y-130050500D01*
X133828843Y-130050500D01*
X133851808Y-130045932D01*
X133921399Y-130052159D01*
X133976577Y-130095021D01*
X133999822Y-130160911D01*
X134000000Y-130167549D01*
X134000000Y-132309635D01*
X133980315Y-132376674D01*
X133927511Y-132422429D01*
X133914319Y-132427566D01*
X133752550Y-132480128D01*
X133598211Y-132558768D01*
X133518256Y-132616859D01*
X133458072Y-132660586D01*
X133458070Y-132660588D01*
X133458069Y-132660588D01*
X133405477Y-132713181D01*
X133378549Y-132727884D01*
X133352731Y-132744477D01*
X133346530Y-132745368D01*
X133344154Y-132746666D01*
X133317796Y-132749500D01*
X133304604Y-132749500D01*
X133257155Y-132740062D01*
X133233497Y-132730263D01*
X133233493Y-132730262D01*
X133233488Y-132730260D01*
X133078845Y-132699500D01*
X133078842Y-132699500D01*
X132921158Y-132699500D01*
X132921155Y-132699500D01*
X132766510Y-132730261D01*
X132766498Y-132730264D01*
X132620827Y-132790602D01*
X132620814Y-132790609D01*
X132489711Y-132878210D01*
X132489707Y-132878213D01*
X132378213Y-132989707D01*
X132378210Y-132989711D01*
X132290609Y-133120814D01*
X132290602Y-133120827D01*
X132230264Y-133266498D01*
X132230261Y-133266510D01*
X132199500Y-133421153D01*
X132199500Y-133578846D01*
X132230261Y-133733489D01*
X132230264Y-133733501D01*
X132290602Y-133879172D01*
X132290609Y-133879185D01*
X132378210Y-134010288D01*
X132378213Y-134010292D01*
X132489707Y-134121786D01*
X132489711Y-134121789D01*
X132620814Y-134209390D01*
X132620827Y-134209397D01*
X132720060Y-134250500D01*
X132766503Y-134269737D01*
X132883524Y-134293014D01*
X132921153Y-134300499D01*
X132921156Y-134300500D01*
X132921158Y-134300500D01*
X133078844Y-134300500D01*
X133078845Y-134300499D01*
X133155152Y-134285320D01*
X133233488Y-134269739D01*
X133233489Y-134269738D01*
X133233497Y-134269737D01*
X133257155Y-134259937D01*
X133265329Y-134258311D01*
X133269669Y-134255523D01*
X133304604Y-134250500D01*
X133317796Y-134250500D01*
X133384835Y-134270185D01*
X133405477Y-134286819D01*
X133458072Y-134339414D01*
X133458078Y-134339418D01*
X133541023Y-134399683D01*
X133555743Y-134418772D01*
X133573669Y-134434893D01*
X133576693Y-134445940D01*
X133583689Y-134455013D01*
X133585751Y-134479033D01*
X133592116Y-134502283D01*
X133588686Y-134513212D01*
X133589667Y-134524626D01*
X133578416Y-134545948D01*
X133571200Y-134568949D01*
X133560303Y-134580275D01*
X133557061Y-134586421D01*
X133547600Y-134595192D01*
X133544385Y-134597875D01*
X133458072Y-134660586D01*
X133401537Y-134717120D01*
X133397259Y-134720692D01*
X133370122Y-134732485D01*
X133344154Y-134746666D01*
X133335308Y-134747617D01*
X133333180Y-134748542D01*
X133330603Y-134748122D01*
X133317796Y-134749500D01*
X133304604Y-134749500D01*
X133257155Y-134740062D01*
X133233497Y-134730263D01*
X133233493Y-134730262D01*
X133233488Y-134730260D01*
X133078845Y-134699500D01*
X133078842Y-134699500D01*
X132921158Y-134699500D01*
X132921155Y-134699500D01*
X132766510Y-134730261D01*
X132766498Y-134730264D01*
X132620827Y-134790602D01*
X132620814Y-134790609D01*
X132489711Y-134878210D01*
X132489707Y-134878213D01*
X132378213Y-134989707D01*
X132378210Y-134989711D01*
X132290609Y-135120814D01*
X132290602Y-135120827D01*
X132230264Y-135266498D01*
X132230261Y-135266510D01*
X132199500Y-135421153D01*
X132199500Y-135578846D01*
X132230261Y-135733489D01*
X132230264Y-135733501D01*
X132290602Y-135879172D01*
X132290609Y-135879185D01*
X132378210Y-136010288D01*
X132378213Y-136010292D01*
X132489707Y-136121786D01*
X132489711Y-136121789D01*
X132620814Y-136209390D01*
X132620827Y-136209397D01*
X132761136Y-136267514D01*
X132766503Y-136269737D01*
X132870468Y-136290417D01*
X132921153Y-136300499D01*
X132921156Y-136300500D01*
X132921158Y-136300500D01*
X133078844Y-136300500D01*
X133078845Y-136300499D01*
X133185381Y-136279308D01*
X133233488Y-136269739D01*
X133233489Y-136269738D01*
X133233497Y-136269737D01*
X133257155Y-136259937D01*
X133265329Y-136258311D01*
X133269669Y-136255523D01*
X133304604Y-136250500D01*
X133317796Y-136250500D01*
X133384835Y-136270185D01*
X133405477Y-136286819D01*
X133458072Y-136339414D01*
X133458078Y-136339418D01*
X133541023Y-136399683D01*
X133555743Y-136418772D01*
X133573669Y-136434893D01*
X133576693Y-136445940D01*
X133583689Y-136455013D01*
X133585751Y-136479033D01*
X133592116Y-136502283D01*
X133588686Y-136513212D01*
X133589667Y-136524626D01*
X133578416Y-136545948D01*
X133571200Y-136568949D01*
X133560303Y-136580275D01*
X133557061Y-136586421D01*
X133547600Y-136595192D01*
X133544385Y-136597875D01*
X133458072Y-136660586D01*
X133401537Y-136717120D01*
X133397259Y-136720692D01*
X133370122Y-136732485D01*
X133344154Y-136746666D01*
X133335308Y-136747617D01*
X133333180Y-136748542D01*
X133330603Y-136748122D01*
X133317796Y-136749500D01*
X133304604Y-136749500D01*
X133257155Y-136740062D01*
X133233497Y-136730263D01*
X133233493Y-136730262D01*
X133233488Y-136730260D01*
X133078845Y-136699500D01*
X133078842Y-136699500D01*
X132921158Y-136699500D01*
X132921155Y-136699500D01*
X132766510Y-136730261D01*
X132766498Y-136730264D01*
X132620827Y-136790602D01*
X132620814Y-136790609D01*
X132489711Y-136878210D01*
X132489707Y-136878213D01*
X132378213Y-136989707D01*
X132378210Y-136989711D01*
X132290609Y-137120814D01*
X132290602Y-137120827D01*
X132230264Y-137266498D01*
X132230261Y-137266510D01*
X132199500Y-137421153D01*
X132199500Y-137578846D01*
X132230261Y-137733489D01*
X132230264Y-137733501D01*
X132290602Y-137879172D01*
X132290609Y-137879185D01*
X132378210Y-138010288D01*
X132378213Y-138010292D01*
X132489707Y-138121786D01*
X132489711Y-138121789D01*
X132620814Y-138209390D01*
X132620827Y-138209397D01*
X132724604Y-138252382D01*
X132766503Y-138269737D01*
X132921153Y-138300499D01*
X132921156Y-138300500D01*
X132921158Y-138300500D01*
X133078844Y-138300500D01*
X133078845Y-138300499D01*
X133185381Y-138279308D01*
X133233488Y-138269739D01*
X133233489Y-138269738D01*
X133233497Y-138269737D01*
X133257155Y-138259937D01*
X133265329Y-138258311D01*
X133269669Y-138255523D01*
X133304604Y-138250500D01*
X133317796Y-138250500D01*
X133384835Y-138270185D01*
X133405477Y-138286819D01*
X133443127Y-138324469D01*
X133476612Y-138385792D01*
X133471628Y-138455484D01*
X133429756Y-138511417D01*
X133420544Y-138517688D01*
X133356346Y-138557286D01*
X133238552Y-138675080D01*
X133177229Y-138708564D01*
X133126680Y-138709015D01*
X133078846Y-138699500D01*
X133078842Y-138699500D01*
X132921158Y-138699500D01*
X132921155Y-138699500D01*
X132766510Y-138730261D01*
X132766498Y-138730264D01*
X132620827Y-138790602D01*
X132620814Y-138790609D01*
X132489711Y-138878210D01*
X132489707Y-138878213D01*
X132378213Y-138989707D01*
X132378210Y-138989711D01*
X132290609Y-139120814D01*
X132290602Y-139120827D01*
X132230264Y-139266498D01*
X132230261Y-139266510D01*
X132199500Y-139421153D01*
X132199500Y-139578846D01*
X132230261Y-139733489D01*
X132230264Y-139733501D01*
X132290602Y-139879172D01*
X132290609Y-139879185D01*
X132378210Y-140010288D01*
X132378213Y-140010292D01*
X132489707Y-140121786D01*
X132489711Y-140121789D01*
X132620814Y-140209390D01*
X132620827Y-140209397D01*
X132732187Y-140255523D01*
X132766503Y-140269737D01*
X132904618Y-140297210D01*
X132921153Y-140300499D01*
X132921156Y-140300500D01*
X132921158Y-140300500D01*
X133078842Y-140300500D01*
X133126680Y-140290984D01*
X133196269Y-140297210D01*
X133238552Y-140324920D01*
X133356344Y-140442712D01*
X133505666Y-140534814D01*
X133672203Y-140589999D01*
X133774991Y-140600500D01*
X133876002Y-140600499D01*
X133943038Y-140620183D01*
X133988794Y-140672986D01*
X134000000Y-140724499D01*
X134000000Y-143525500D01*
X133980315Y-143592539D01*
X133927511Y-143638294D01*
X133876000Y-143649500D01*
X133743713Y-143649500D01*
X133695042Y-143657208D01*
X133533760Y-143682753D01*
X133331585Y-143748444D01*
X133142179Y-143844951D01*
X132966266Y-143972759D01*
X132965635Y-143971891D01*
X132906581Y-143998359D01*
X132889800Y-143999500D01*
X131901457Y-143999500D01*
X131708170Y-144037947D01*
X131708160Y-144037950D01*
X131526092Y-144113364D01*
X131526079Y-144113371D01*
X131362218Y-144222860D01*
X131362214Y-144222863D01*
X131222863Y-144362214D01*
X131222860Y-144362218D01*
X131113371Y-144526079D01*
X131113364Y-144526092D01*
X131037950Y-144708160D01*
X131037947Y-144708170D01*
X130999500Y-144901456D01*
X130999500Y-144901459D01*
X130999500Y-145098541D01*
X130999500Y-145098543D01*
X130999499Y-145098543D01*
X131037947Y-145291829D01*
X131037950Y-145291839D01*
X131113364Y-145473907D01*
X131113371Y-145473920D01*
X131222860Y-145637781D01*
X131222863Y-145637785D01*
X131362214Y-145777136D01*
X131362218Y-145777139D01*
X131526079Y-145886628D01*
X131526092Y-145886635D01*
X131708160Y-145962049D01*
X131708165Y-145962051D01*
X131708169Y-145962051D01*
X131708170Y-145962052D01*
X131901456Y-146000500D01*
X131901459Y-146000500D01*
X132889800Y-146000500D01*
X132910321Y-146006525D01*
X132931672Y-146007784D01*
X132949162Y-146017930D01*
X132956839Y-146020185D01*
X132962859Y-146024308D01*
X132968593Y-146028489D01*
X132970208Y-146030104D01*
X133135149Y-146149940D01*
X133135392Y-146150117D01*
X133156654Y-146177790D01*
X133177884Y-146205320D01*
X133177893Y-146205432D01*
X133177962Y-146205521D01*
X133180883Y-146240246D01*
X133183863Y-146274934D01*
X133183810Y-146275033D01*
X133183820Y-146275144D01*
X133167576Y-146305800D01*
X133151258Y-146336729D01*
X133151131Y-146336838D01*
X133151108Y-146336883D01*
X133151028Y-146336927D01*
X133135218Y-146350627D01*
X132970540Y-146470272D01*
X132970535Y-146470276D01*
X132820276Y-146620535D01*
X132820272Y-146620540D01*
X132695379Y-146792442D01*
X132598904Y-146981782D01*
X132533242Y-147183870D01*
X132533242Y-147183873D01*
X132522769Y-147250000D01*
X133570854Y-147250000D01*
X133532370Y-147316657D01*
X133500000Y-147437465D01*
X133500000Y-147562535D01*
X133532370Y-147683343D01*
X133570854Y-147750000D01*
X132522769Y-147750000D01*
X132533242Y-147816126D01*
X132533242Y-147816129D01*
X132598904Y-148018217D01*
X132695379Y-148207557D01*
X132820272Y-148379459D01*
X132820276Y-148379464D01*
X132959143Y-148518331D01*
X132992628Y-148579654D01*
X132987644Y-148649346D01*
X132945772Y-148705279D01*
X132936559Y-148711551D01*
X132781342Y-148807289D01*
X132657289Y-148931342D01*
X132565187Y-149080663D01*
X132565185Y-149080668D01*
X132537405Y-149164504D01*
X132523534Y-149184536D01*
X132513412Y-149206703D01*
X132503999Y-149212751D01*
X132497632Y-149221949D01*
X132475133Y-149231302D01*
X132454634Y-149244477D01*
X132437532Y-149246935D01*
X132433116Y-149248772D01*
X132419699Y-149249500D01*
X132304604Y-149249500D01*
X132257155Y-149240062D01*
X132233497Y-149230263D01*
X132233493Y-149230262D01*
X132233488Y-149230260D01*
X132078845Y-149199500D01*
X132078842Y-149199500D01*
X131921158Y-149199500D01*
X131921155Y-149199500D01*
X131766510Y-149230261D01*
X131766498Y-149230264D01*
X131620827Y-149290602D01*
X131620814Y-149290609D01*
X131489711Y-149378210D01*
X131489707Y-149378213D01*
X131378213Y-149489707D01*
X131378210Y-149489711D01*
X131290609Y-149620814D01*
X131290602Y-149620827D01*
X131230264Y-149766498D01*
X131230261Y-149766510D01*
X131199500Y-149921153D01*
X131199500Y-150078846D01*
X131230261Y-150233489D01*
X131230264Y-150233501D01*
X131290602Y-150379172D01*
X131290609Y-150379185D01*
X131378210Y-150510288D01*
X131378213Y-150510292D01*
X131489707Y-150621786D01*
X131489711Y-150621789D01*
X131620814Y-150709390D01*
X131620827Y-150709397D01*
X131732187Y-150755523D01*
X131766503Y-150769737D01*
X131918644Y-150800000D01*
X131921153Y-150800499D01*
X131921156Y-150800500D01*
X131921158Y-150800500D01*
X132078844Y-150800500D01*
X132078845Y-150800499D01*
X132196285Y-150777139D01*
X132233488Y-150769739D01*
X132233489Y-150769738D01*
X132233497Y-150769737D01*
X132257155Y-150759937D01*
X132265329Y-150758311D01*
X132269669Y-150755523D01*
X132304604Y-150750500D01*
X132419699Y-150750500D01*
X132486738Y-150770185D01*
X132532493Y-150822989D01*
X132537405Y-150835496D01*
X132565185Y-150919331D01*
X132565187Y-150919336D01*
X132600069Y-150975888D01*
X132657288Y-151068656D01*
X132781344Y-151192712D01*
X132930666Y-151284814D01*
X133097203Y-151339999D01*
X133199991Y-151350500D01*
X133876001Y-151350499D01*
X133943039Y-151370183D01*
X133988794Y-151422987D01*
X134000000Y-151474499D01*
X134000000Y-152675500D01*
X133980315Y-152742539D01*
X133927511Y-152788294D01*
X133876000Y-152799500D01*
X133818206Y-152799500D01*
X133735679Y-152807628D01*
X133456369Y-152835137D01*
X133099787Y-152906064D01*
X133099776Y-152906067D01*
X132751834Y-153011614D01*
X132415921Y-153150754D01*
X132415916Y-153150756D01*
X132095279Y-153322140D01*
X132095261Y-153322151D01*
X131792964Y-153524140D01*
X131792950Y-153524150D01*
X131511893Y-153754807D01*
X131254807Y-154011893D01*
X131024150Y-154292950D01*
X131024140Y-154292964D01*
X130822151Y-154595261D01*
X130822140Y-154595279D01*
X130650756Y-154915916D01*
X130650754Y-154915921D01*
X130511614Y-155251834D01*
X130406067Y-155599776D01*
X130406064Y-155599787D01*
X130335137Y-155956369D01*
X130299500Y-156318209D01*
X130299500Y-156681790D01*
X130335137Y-157043630D01*
X130406064Y-157400212D01*
X130406067Y-157400223D01*
X130511614Y-157748165D01*
X130650754Y-158084078D01*
X130650756Y-158084083D01*
X130775545Y-158317547D01*
X130789787Y-158385950D01*
X130764787Y-158451194D01*
X130708482Y-158492564D01*
X130666187Y-158500000D01*
X107000000Y-158500000D01*
X105783128Y-158500000D01*
X105716089Y-158480315D01*
X105670334Y-158427511D01*
X105660390Y-158358353D01*
X105689415Y-158294797D01*
X105704463Y-158280147D01*
X105867659Y-158146213D01*
X105867659Y-158146212D01*
X104979669Y-157258222D01*
X105061711Y-157195269D01*
X105270269Y-156986711D01*
X105333222Y-156904669D01*
X106221212Y-157792659D01*
X106221213Y-157792659D01*
X106389612Y-157587466D01*
X106389622Y-157587453D01*
X106580666Y-157301536D01*
X106580677Y-157301518D01*
X106742773Y-156998255D01*
X106742780Y-156998241D01*
X106874376Y-156680540D01*
X106974207Y-156351443D01*
X106974208Y-156351437D01*
X107041291Y-156014182D01*
X107041294Y-156014165D01*
X107075000Y-155671940D01*
X107075000Y-155328059D01*
X107041294Y-154985834D01*
X107041291Y-154985817D01*
X106974208Y-154648562D01*
X106974207Y-154648556D01*
X106874376Y-154319459D01*
X106742780Y-154001758D01*
X106742773Y-154001744D01*
X106580677Y-153698481D01*
X106580666Y-153698463D01*
X106389622Y-153412546D01*
X106389612Y-153412533D01*
X106221213Y-153207339D01*
X106221212Y-153207338D01*
X105333221Y-154095329D01*
X105270269Y-154013289D01*
X105061711Y-153804731D01*
X104979668Y-153741777D01*
X105867660Y-152853786D01*
X105867659Y-152853785D01*
X105662467Y-152685387D01*
X105662453Y-152685377D01*
X105376536Y-152494333D01*
X105376518Y-152494322D01*
X105073255Y-152332226D01*
X105073241Y-152332219D01*
X104755540Y-152200623D01*
X104426443Y-152100792D01*
X104426437Y-152100791D01*
X104089182Y-152033708D01*
X104089165Y-152033705D01*
X103746941Y-152000000D01*
X103403059Y-152000000D01*
X103060834Y-152033705D01*
X103060817Y-152033708D01*
X102723562Y-152100791D01*
X102723556Y-152100792D01*
X102394459Y-152200623D01*
X102076758Y-152332219D01*
X102076744Y-152332226D01*
X101773481Y-152494322D01*
X101773463Y-152494333D01*
X101487546Y-152685377D01*
X101487532Y-152685387D01*
X101282338Y-152853786D01*
X102170330Y-153741778D01*
X102088289Y-153804731D01*
X101879731Y-154013289D01*
X101816778Y-154095330D01*
X100928786Y-153207338D01*
X100760387Y-153412532D01*
X100760377Y-153412546D01*
X100569333Y-153698463D01*
X100569322Y-153698481D01*
X100407226Y-154001744D01*
X100407219Y-154001758D01*
X100275623Y-154319459D01*
X100175792Y-154648556D01*
X100175791Y-154648562D01*
X100121117Y-154923432D01*
X100088732Y-154985343D01*
X100028017Y-155019917D01*
X99958247Y-155016178D01*
X99901575Y-154975312D01*
X99875994Y-154910294D01*
X99875500Y-154899241D01*
X99875500Y-153928552D01*
X99860196Y-153714572D01*
X99818772Y-153524150D01*
X99799371Y-153434962D01*
X99799370Y-153434960D01*
X99799369Y-153434954D01*
X99699367Y-153166839D01*
X99690584Y-153150754D01*
X99587532Y-152962028D01*
X99562229Y-152915690D01*
X99562224Y-152915682D01*
X99390745Y-152686612D01*
X99390729Y-152686594D01*
X99188405Y-152484270D01*
X99188387Y-152484254D01*
X98959317Y-152312775D01*
X98959309Y-152312770D01*
X98708166Y-152175635D01*
X98708167Y-152175635D01*
X98507502Y-152100791D01*
X98440046Y-152075631D01*
X98440043Y-152075630D01*
X98440037Y-152075628D01*
X98160433Y-152014804D01*
X97946450Y-151999500D01*
X97946448Y-151999500D01*
X94803552Y-151999500D01*
X94803549Y-151999500D01*
X94589566Y-152014804D01*
X94309962Y-152075628D01*
X94041833Y-152175635D01*
X93790690Y-152312770D01*
X93790682Y-152312775D01*
X93561612Y-152484254D01*
X93561594Y-152484270D01*
X93359270Y-152686594D01*
X93359254Y-152686612D01*
X93187775Y-152915682D01*
X93187770Y-152915690D01*
X93050635Y-153166833D01*
X92950628Y-153434962D01*
X92889804Y-153714566D01*
X92874500Y-153928549D01*
X92874500Y-157071450D01*
X92889804Y-157285433D01*
X92950628Y-157565037D01*
X92950630Y-157565043D01*
X92950631Y-157565046D01*
X93035527Y-157792660D01*
X93050635Y-157833166D01*
X93187770Y-158084309D01*
X93187775Y-158084317D01*
X93350498Y-158301690D01*
X93374915Y-158367154D01*
X93360063Y-158435427D01*
X93310658Y-158484832D01*
X93251231Y-158500000D01*
X69333813Y-158500000D01*
X69266774Y-158480315D01*
X69221019Y-158427511D01*
X69211075Y-158358353D01*
X69224455Y-158317547D01*
X69316682Y-158145000D01*
X74225000Y-158145000D01*
X80575000Y-158145000D01*
X80575000Y-155605000D01*
X74225000Y-155605000D01*
X74225000Y-158145000D01*
X69316682Y-158145000D01*
X69349243Y-158084083D01*
X69349247Y-158084076D01*
X69488386Y-157748164D01*
X69593930Y-157400233D01*
X69593932Y-157400223D01*
X69593935Y-157400212D01*
X69664862Y-157043630D01*
X69669331Y-156998255D01*
X69700500Y-156681794D01*
X69700500Y-156318206D01*
X69664862Y-155956369D01*
X69644411Y-155853553D01*
X69593935Y-155599787D01*
X69593931Y-155599776D01*
X69593930Y-155599767D01*
X69488386Y-155251836D01*
X69349247Y-154915924D01*
X69274033Y-154775209D01*
X69177859Y-154595279D01*
X69177858Y-154595277D01*
X69177853Y-154595268D01*
X68975854Y-154292956D01*
X68745197Y-154011899D01*
X68745196Y-154011898D01*
X68745192Y-154011893D01*
X68488106Y-153754807D01*
X68207049Y-153524150D01*
X68207048Y-153524149D01*
X68207044Y-153524146D01*
X67904732Y-153322147D01*
X67904727Y-153322144D01*
X67904720Y-153322140D01*
X67584083Y-153150756D01*
X67584078Y-153150754D01*
X67248165Y-153011614D01*
X66900223Y-152906067D01*
X66900212Y-152906064D01*
X66543630Y-152835137D01*
X66271111Y-152808296D01*
X66181794Y-152799500D01*
X66124000Y-152799500D01*
X66056961Y-152779815D01*
X66011206Y-152727011D01*
X66000000Y-152675500D01*
X66000000Y-151474500D01*
X66019685Y-151407461D01*
X66072489Y-151361706D01*
X66124000Y-151350500D01*
X66256286Y-151350500D01*
X66256287Y-151350500D01*
X66466243Y-151317246D01*
X66668412Y-151251557D01*
X66857816Y-151155051D01*
X66872769Y-151144186D01*
X67033734Y-151027241D01*
X67034364Y-151028108D01*
X67093419Y-151001641D01*
X67110200Y-151000500D01*
X68098543Y-151000500D01*
X68228582Y-150974632D01*
X68291835Y-150962051D01*
X68473914Y-150886632D01*
X68637782Y-150777139D01*
X68777139Y-150637782D01*
X68886632Y-150473914D01*
X68962051Y-150291835D01*
X68970388Y-150249925D01*
X68982629Y-150188389D01*
X71899500Y-150188389D01*
X71899500Y-150911610D01*
X71924373Y-151068657D01*
X71926598Y-151082701D01*
X71980127Y-151247445D01*
X72058768Y-151401788D01*
X72160586Y-151541928D01*
X72283072Y-151664414D01*
X72423212Y-151766232D01*
X72577555Y-151844873D01*
X72742299Y-151898402D01*
X72913389Y-151925500D01*
X72913390Y-151925500D01*
X73086610Y-151925500D01*
X73086611Y-151925500D01*
X73257701Y-151898402D01*
X73422445Y-151844873D01*
X73576788Y-151766232D01*
X73716928Y-151664414D01*
X73824836Y-151556505D01*
X73886155Y-151523023D01*
X73955847Y-151528007D01*
X74011781Y-151569878D01*
X74018053Y-151579093D01*
X74057682Y-151643343D01*
X74181654Y-151767315D01*
X74330875Y-151859356D01*
X74330880Y-151859358D01*
X74497302Y-151914505D01*
X74497309Y-151914506D01*
X74600019Y-151924999D01*
X74749999Y-151924999D01*
X74750000Y-151924998D01*
X74750000Y-150830330D01*
X74769745Y-150850075D01*
X74855255Y-150899444D01*
X74950630Y-150925000D01*
X75049370Y-150925000D01*
X75144745Y-150899444D01*
X75230255Y-150850075D01*
X75250000Y-150830330D01*
X75250000Y-151924999D01*
X75399972Y-151924999D01*
X75399986Y-151924998D01*
X75502697Y-151914505D01*
X75669119Y-151859358D01*
X75669124Y-151859356D01*
X75818345Y-151767315D01*
X75942315Y-151643345D01*
X76034356Y-151494124D01*
X76034358Y-151494119D01*
X76089505Y-151327697D01*
X76089506Y-151327690D01*
X76099999Y-151224986D01*
X76100000Y-151224973D01*
X76100000Y-150800000D01*
X75280330Y-150800000D01*
X75300075Y-150780255D01*
X75349444Y-150694745D01*
X75375000Y-150599370D01*
X75375000Y-150500630D01*
X75349444Y-150405255D01*
X75300075Y-150319745D01*
X75280330Y-150300000D01*
X76099999Y-150300000D01*
X76099999Y-150188389D01*
X78899500Y-150188389D01*
X78899500Y-150911610D01*
X78924373Y-151068657D01*
X78926598Y-151082701D01*
X78980127Y-151247445D01*
X79058768Y-151401788D01*
X79160586Y-151541928D01*
X79283072Y-151664414D01*
X79423212Y-151766232D01*
X79577555Y-151844873D01*
X79742299Y-151898402D01*
X79913389Y-151925500D01*
X79913390Y-151925500D01*
X80086610Y-151925500D01*
X80086611Y-151925500D01*
X80257701Y-151898402D01*
X80422445Y-151844873D01*
X80576788Y-151766232D01*
X80716928Y-151664414D01*
X80824836Y-151556505D01*
X80886155Y-151523023D01*
X80955847Y-151528007D01*
X81011781Y-151569878D01*
X81018053Y-151579093D01*
X81057682Y-151643343D01*
X81181654Y-151767315D01*
X81330875Y-151859356D01*
X81330880Y-151859358D01*
X81497302Y-151914505D01*
X81497309Y-151914506D01*
X81600019Y-151924999D01*
X81749999Y-151924999D01*
X81750000Y-151924998D01*
X81750000Y-150830330D01*
X81769745Y-150850075D01*
X81855255Y-150899444D01*
X81950630Y-150925000D01*
X82049370Y-150925000D01*
X82144745Y-150899444D01*
X82230255Y-150850075D01*
X82250000Y-150830330D01*
X82250000Y-151924999D01*
X82399972Y-151924999D01*
X82399986Y-151924998D01*
X82502697Y-151914505D01*
X82669119Y-151859358D01*
X82669124Y-151859356D01*
X82818345Y-151767315D01*
X82942315Y-151643345D01*
X83034356Y-151494124D01*
X83034358Y-151494119D01*
X83089505Y-151327697D01*
X83089506Y-151327690D01*
X83099999Y-151224986D01*
X83100000Y-151224973D01*
X83100000Y-150800000D01*
X82280330Y-150800000D01*
X82300075Y-150780255D01*
X82349444Y-150694745D01*
X82375000Y-150599370D01*
X82375000Y-150500630D01*
X82349444Y-150405255D01*
X82300075Y-150319745D01*
X82280330Y-150300000D01*
X83099999Y-150300000D01*
X83099999Y-150188389D01*
X85899500Y-150188389D01*
X85899500Y-150911610D01*
X85924373Y-151068657D01*
X85926598Y-151082701D01*
X85980127Y-151247445D01*
X86058768Y-151401788D01*
X86160586Y-151541928D01*
X86283072Y-151664414D01*
X86423212Y-151766232D01*
X86577555Y-151844873D01*
X86742299Y-151898402D01*
X86913389Y-151925500D01*
X86913390Y-151925500D01*
X87086610Y-151925500D01*
X87086611Y-151925500D01*
X87257701Y-151898402D01*
X87422445Y-151844873D01*
X87576788Y-151766232D01*
X87716928Y-151664414D01*
X87824836Y-151556505D01*
X87886155Y-151523023D01*
X87955847Y-151528007D01*
X88011781Y-151569878D01*
X88018053Y-151579093D01*
X88057682Y-151643343D01*
X88181654Y-151767315D01*
X88330875Y-151859356D01*
X88330880Y-151859358D01*
X88497302Y-151914505D01*
X88497309Y-151914506D01*
X88600019Y-151924999D01*
X88749999Y-151924999D01*
X88750000Y-151924998D01*
X88750000Y-150830330D01*
X88769745Y-150850075D01*
X88855255Y-150899444D01*
X88950630Y-150925000D01*
X89049370Y-150925000D01*
X89144745Y-150899444D01*
X89230255Y-150850075D01*
X89250000Y-150830330D01*
X89250000Y-151924999D01*
X89399972Y-151924999D01*
X89399986Y-151924998D01*
X89502697Y-151914505D01*
X89669119Y-151859358D01*
X89669124Y-151859356D01*
X89818345Y-151767315D01*
X89942315Y-151643345D01*
X90034356Y-151494124D01*
X90034358Y-151494119D01*
X90089505Y-151327697D01*
X90089506Y-151327690D01*
X90099999Y-151224986D01*
X90100000Y-151224973D01*
X90100000Y-150800000D01*
X89280330Y-150800000D01*
X89300075Y-150780255D01*
X89349444Y-150694745D01*
X89375000Y-150599370D01*
X89375000Y-150500630D01*
X89349444Y-150405255D01*
X89300075Y-150319745D01*
X89280330Y-150300000D01*
X90099999Y-150300000D01*
X90099999Y-149875028D01*
X90099998Y-149875013D01*
X90089505Y-149772302D01*
X90034358Y-149605880D01*
X90034356Y-149605875D01*
X89942315Y-149456654D01*
X89818345Y-149332684D01*
X89669124Y-149240643D01*
X89669119Y-149240641D01*
X89502697Y-149185494D01*
X89502690Y-149185493D01*
X89399986Y-149175000D01*
X89250000Y-149175000D01*
X89250000Y-150269670D01*
X89230255Y-150249925D01*
X89144745Y-150200556D01*
X89049370Y-150175000D01*
X88950630Y-150175000D01*
X88855255Y-150200556D01*
X88769745Y-150249925D01*
X88750000Y-150269670D01*
X88750000Y-149175000D01*
X88600027Y-149175000D01*
X88600012Y-149175001D01*
X88497302Y-149185494D01*
X88330880Y-149240641D01*
X88330875Y-149240643D01*
X88181654Y-149332684D01*
X88057684Y-149456654D01*
X88018053Y-149520907D01*
X88001999Y-149535345D01*
X87989546Y-149552980D01*
X87976538Y-149558246D01*
X87966105Y-149567631D01*
X87944797Y-149571098D01*
X87924783Y-149579202D01*
X87910990Y-149576599D01*
X87897142Y-149578853D01*
X87877343Y-149570250D01*
X87856125Y-149566247D01*
X87838307Y-149553290D01*
X87833060Y-149551010D01*
X87827295Y-149545887D01*
X87826071Y-149544729D01*
X87716928Y-149435586D01*
X87690113Y-149416103D01*
X87684281Y-149410586D01*
X87670572Y-149387054D01*
X87653948Y-149365495D01*
X87652014Y-149355199D01*
X87649110Y-149350214D01*
X87649481Y-149341711D01*
X87645500Y-149320509D01*
X87645500Y-148888394D01*
X87665185Y-148821355D01*
X87717989Y-148775600D01*
X87733484Y-148769742D01*
X87733495Y-148769737D01*
X87733497Y-148769737D01*
X87879179Y-148709394D01*
X88010289Y-148621789D01*
X88121789Y-148510289D01*
X88209394Y-148379179D01*
X88269737Y-148233497D01*
X88300500Y-148078842D01*
X88300500Y-147921158D01*
X88300500Y-147921155D01*
X88300499Y-147921153D01*
X110699500Y-147921153D01*
X110699500Y-148078846D01*
X110730261Y-148233489D01*
X110730263Y-148233497D01*
X110790602Y-148379172D01*
X110790609Y-148379185D01*
X110878210Y-148510288D01*
X110878213Y-148510292D01*
X110989707Y-148621786D01*
X110989711Y-148621789D01*
X111120814Y-148709390D01*
X111120827Y-148709397D01*
X111272131Y-148772068D01*
X111271687Y-148773139D01*
X111324924Y-148808019D01*
X111353388Y-148871828D01*
X111354500Y-148888394D01*
X111354500Y-149320509D01*
X111334815Y-149387548D01*
X111303387Y-149420826D01*
X111283072Y-149435585D01*
X111160588Y-149558069D01*
X111160588Y-149558070D01*
X111160586Y-149558072D01*
X111145752Y-149578489D01*
X111058768Y-149698211D01*
X110980128Y-149852552D01*
X110926597Y-150017302D01*
X110899500Y-150188389D01*
X110899500Y-150911610D01*
X110924373Y-151068657D01*
X110926598Y-151082701D01*
X110980127Y-151247445D01*
X111058768Y-151401788D01*
X111160586Y-151541928D01*
X111283072Y-151664414D01*
X111423212Y-151766232D01*
X111577555Y-151844873D01*
X111742299Y-151898402D01*
X111913389Y-151925500D01*
X111913390Y-151925500D01*
X112086610Y-151925500D01*
X112086611Y-151925500D01*
X112257701Y-151898402D01*
X112422445Y-151844873D01*
X112576788Y-151766232D01*
X112716928Y-151664414D01*
X112824836Y-151556505D01*
X112886155Y-151523023D01*
X112955847Y-151528007D01*
X113011781Y-151569878D01*
X113018053Y-151579093D01*
X113057682Y-151643343D01*
X113181654Y-151767315D01*
X113330875Y-151859356D01*
X113330880Y-151859358D01*
X113497302Y-151914505D01*
X113497309Y-151914506D01*
X113600019Y-151924999D01*
X113749999Y-151924999D01*
X113750000Y-151924998D01*
X113750000Y-150830330D01*
X113769745Y-150850075D01*
X113855255Y-150899444D01*
X113950630Y-150925000D01*
X114049370Y-150925000D01*
X114144745Y-150899444D01*
X114230255Y-150850075D01*
X114250000Y-150830330D01*
X114250000Y-151924999D01*
X114399972Y-151924999D01*
X114399986Y-151924998D01*
X114502697Y-151914505D01*
X114669119Y-151859358D01*
X114669124Y-151859356D01*
X114818345Y-151767315D01*
X114942315Y-151643345D01*
X115034356Y-151494124D01*
X115034358Y-151494119D01*
X115089505Y-151327697D01*
X115089506Y-151327690D01*
X115099999Y-151224986D01*
X115100000Y-151224973D01*
X115100000Y-150800000D01*
X114280330Y-150800000D01*
X114300075Y-150780255D01*
X114349444Y-150694745D01*
X114375000Y-150599370D01*
X114375000Y-150500630D01*
X114349444Y-150405255D01*
X114300075Y-150319745D01*
X114280330Y-150300000D01*
X115099999Y-150300000D01*
X115099999Y-149875028D01*
X115099998Y-149875013D01*
X115089505Y-149772302D01*
X115034358Y-149605880D01*
X115034356Y-149605875D01*
X114942315Y-149456654D01*
X114818345Y-149332684D01*
X114669124Y-149240643D01*
X114669119Y-149240641D01*
X114502697Y-149185494D01*
X114502690Y-149185493D01*
X114399986Y-149175000D01*
X114250000Y-149175000D01*
X114250000Y-150269670D01*
X114230255Y-150249925D01*
X114144745Y-150200556D01*
X114049370Y-150175000D01*
X113950630Y-150175000D01*
X113855255Y-150200556D01*
X113769745Y-150249925D01*
X113750000Y-150269670D01*
X113750000Y-149175000D01*
X113600027Y-149175000D01*
X113600012Y-149175001D01*
X113497302Y-149185494D01*
X113330880Y-149240641D01*
X113330875Y-149240643D01*
X113181654Y-149332684D01*
X113057684Y-149456654D01*
X113018053Y-149520907D01*
X113001999Y-149535345D01*
X112989546Y-149552980D01*
X112976538Y-149558246D01*
X112966105Y-149567631D01*
X112944797Y-149571098D01*
X112924783Y-149579202D01*
X112910990Y-149576599D01*
X112897142Y-149578853D01*
X112877343Y-149570250D01*
X112856125Y-149566247D01*
X112838307Y-149553290D01*
X112833060Y-149551010D01*
X112827295Y-149545887D01*
X112826071Y-149544729D01*
X112716928Y-149435586D01*
X112690113Y-149416103D01*
X112684281Y-149410586D01*
X112670572Y-149387054D01*
X112653948Y-149365495D01*
X112652014Y-149355199D01*
X112649110Y-149350214D01*
X112649481Y-149341711D01*
X112645500Y-149320509D01*
X112645500Y-148436423D01*
X112645499Y-148436419D01*
X112620696Y-148311722D01*
X112620693Y-148311714D01*
X112608008Y-148281088D01*
X112608008Y-148281087D01*
X112572038Y-148194247D01*
X112572031Y-148194234D01*
X112501394Y-148088519D01*
X112460105Y-148047230D01*
X112334027Y-147921153D01*
X117699500Y-147921153D01*
X117699500Y-148078846D01*
X117730261Y-148233489D01*
X117730263Y-148233497D01*
X117790602Y-148379172D01*
X117790609Y-148379185D01*
X117878210Y-148510288D01*
X117878213Y-148510292D01*
X117989710Y-148621789D01*
X118114662Y-148705279D01*
X118120821Y-148709394D01*
X118144475Y-148719191D01*
X118151406Y-148723823D01*
X118156449Y-148724920D01*
X118184703Y-148746071D01*
X118213181Y-148774549D01*
X118246666Y-148835872D01*
X118249500Y-148862230D01*
X118249500Y-149417796D01*
X118229815Y-149484835D01*
X118213181Y-149505477D01*
X118160588Y-149558069D01*
X118160588Y-149558070D01*
X118160586Y-149558072D01*
X118145752Y-149578489D01*
X118058768Y-149698211D01*
X117980128Y-149852552D01*
X117926597Y-150017302D01*
X117899500Y-150188389D01*
X117899500Y-150911610D01*
X117924373Y-151068657D01*
X117926598Y-151082701D01*
X117980127Y-151247445D01*
X118058768Y-151401788D01*
X118160586Y-151541928D01*
X118283072Y-151664414D01*
X118423212Y-151766232D01*
X118577555Y-151844873D01*
X118742299Y-151898402D01*
X118913389Y-151925500D01*
X118913390Y-151925500D01*
X119086610Y-151925500D01*
X119086611Y-151925500D01*
X119257701Y-151898402D01*
X119422445Y-151844873D01*
X119576788Y-151766232D01*
X119716928Y-151664414D01*
X119839414Y-151541928D01*
X119899682Y-151458975D01*
X119955012Y-151416311D01*
X120024626Y-151410332D01*
X120086421Y-151442938D01*
X120100315Y-151458973D01*
X120160586Y-151541928D01*
X120283072Y-151664414D01*
X120423212Y-151766232D01*
X120577555Y-151844873D01*
X120742299Y-151898402D01*
X120913389Y-151925500D01*
X120913390Y-151925500D01*
X121086610Y-151925500D01*
X121086611Y-151925500D01*
X121257701Y-151898402D01*
X121422445Y-151844873D01*
X121576788Y-151766232D01*
X121716928Y-151664414D01*
X121839414Y-151541928D01*
X121899682Y-151458975D01*
X121955012Y-151416311D01*
X122024626Y-151410332D01*
X122086421Y-151442938D01*
X122100315Y-151458973D01*
X122160586Y-151541928D01*
X122283072Y-151664414D01*
X122423212Y-151766232D01*
X122577555Y-151844873D01*
X122742299Y-151898402D01*
X122913389Y-151925500D01*
X122913390Y-151925500D01*
X123086610Y-151925500D01*
X123086611Y-151925500D01*
X123257701Y-151898402D01*
X123422445Y-151844873D01*
X123576788Y-151766232D01*
X123716928Y-151664414D01*
X123824472Y-151556869D01*
X123885791Y-151523387D01*
X123955483Y-151528371D01*
X124011417Y-151570242D01*
X124017688Y-151579456D01*
X124057285Y-151643652D01*
X124057288Y-151643656D01*
X124181344Y-151767712D01*
X124330666Y-151859814D01*
X124497203Y-151914999D01*
X124599991Y-151925500D01*
X125400008Y-151925499D01*
X125400016Y-151925498D01*
X125400019Y-151925498D01*
X125456302Y-151919748D01*
X125502797Y-151914999D01*
X125669334Y-151859814D01*
X125818656Y-151767712D01*
X125942712Y-151643656D01*
X126034814Y-151494334D01*
X126089999Y-151327797D01*
X126100500Y-151225009D01*
X126100499Y-149874992D01*
X126089999Y-149772203D01*
X126034814Y-149605666D01*
X125942712Y-149456344D01*
X125818656Y-149332288D01*
X125709402Y-149264900D01*
X125662679Y-149212953D01*
X125650500Y-149159362D01*
X125650500Y-148435928D01*
X125625502Y-148310261D01*
X125625501Y-148310260D01*
X125625501Y-148310256D01*
X125613419Y-148281087D01*
X125576469Y-148191881D01*
X125576465Y-148191873D01*
X125574068Y-148188285D01*
X125505277Y-148085331D01*
X125505275Y-148085329D01*
X125505273Y-148085326D01*
X125505272Y-148085325D01*
X125317014Y-147897068D01*
X125283529Y-147835745D01*
X125283105Y-147833714D01*
X125269737Y-147766503D01*
X125245599Y-147708230D01*
X125209397Y-147620827D01*
X125209390Y-147620814D01*
X125121789Y-147489711D01*
X125121786Y-147489707D01*
X125010292Y-147378213D01*
X125010288Y-147378210D01*
X124879185Y-147290609D01*
X124879172Y-147290602D01*
X124733501Y-147230264D01*
X124733489Y-147230261D01*
X124578845Y-147199500D01*
X124578842Y-147199500D01*
X124421158Y-147199500D01*
X124421155Y-147199500D01*
X124266510Y-147230261D01*
X124266498Y-147230264D01*
X124120827Y-147290602D01*
X124120814Y-147290609D01*
X123989711Y-147378210D01*
X123989707Y-147378213D01*
X123878213Y-147489707D01*
X123878210Y-147489711D01*
X123790609Y-147620814D01*
X123790602Y-147620827D01*
X123730264Y-147766498D01*
X123730261Y-147766510D01*
X123699500Y-147921153D01*
X123699500Y-147980191D01*
X123693261Y-148001436D01*
X123691682Y-148023524D01*
X123683609Y-148034307D01*
X123679815Y-148047230D01*
X123663083Y-148061728D01*
X123649811Y-148079458D01*
X123637188Y-148084165D01*
X123627011Y-148092985D01*
X123605094Y-148096136D01*
X123584346Y-148103875D01*
X123571185Y-148101012D01*
X123557853Y-148102929D01*
X123537709Y-148093729D01*
X123516073Y-148089023D01*
X123498347Y-148075754D01*
X123494297Y-148073904D01*
X123487819Y-148067872D01*
X123317014Y-147897068D01*
X123283529Y-147835745D01*
X123283105Y-147833714D01*
X123269737Y-147766503D01*
X123245599Y-147708230D01*
X123209397Y-147620827D01*
X123209390Y-147620814D01*
X123121789Y-147489711D01*
X123121786Y-147489707D01*
X123010292Y-147378213D01*
X123010288Y-147378210D01*
X122879185Y-147290609D01*
X122879172Y-147290602D01*
X122733501Y-147230264D01*
X122733489Y-147230261D01*
X122578845Y-147199500D01*
X122578842Y-147199500D01*
X122421158Y-147199500D01*
X122421155Y-147199500D01*
X122266510Y-147230261D01*
X122266498Y-147230264D01*
X122120827Y-147290602D01*
X122120814Y-147290609D01*
X121989711Y-147378210D01*
X121989707Y-147378213D01*
X121878213Y-147489707D01*
X121878210Y-147489711D01*
X121790609Y-147620814D01*
X121790602Y-147620827D01*
X121730264Y-147766498D01*
X121730261Y-147766510D01*
X121699500Y-147921153D01*
X121699500Y-147980191D01*
X121693261Y-148001436D01*
X121691682Y-148023524D01*
X121683609Y-148034307D01*
X121679815Y-148047230D01*
X121663083Y-148061728D01*
X121649811Y-148079458D01*
X121637188Y-148084165D01*
X121627011Y-148092985D01*
X121605094Y-148096136D01*
X121584346Y-148103875D01*
X121571185Y-148101012D01*
X121557853Y-148102929D01*
X121537709Y-148093729D01*
X121516073Y-148089023D01*
X121498347Y-148075754D01*
X121494297Y-148073904D01*
X121487819Y-148067872D01*
X121317014Y-147897068D01*
X121283529Y-147835745D01*
X121283105Y-147833714D01*
X121269737Y-147766503D01*
X121245599Y-147708230D01*
X121209397Y-147620827D01*
X121209390Y-147620814D01*
X121121789Y-147489711D01*
X121121786Y-147489707D01*
X121010292Y-147378213D01*
X121010288Y-147378210D01*
X120879185Y-147290609D01*
X120879172Y-147290602D01*
X120733501Y-147230264D01*
X120733489Y-147230261D01*
X120578845Y-147199500D01*
X120578842Y-147199500D01*
X120421158Y-147199500D01*
X120421155Y-147199500D01*
X120266510Y-147230261D01*
X120266498Y-147230264D01*
X120120827Y-147290602D01*
X120120814Y-147290609D01*
X119989711Y-147378210D01*
X119989707Y-147378213D01*
X119878213Y-147489707D01*
X119878210Y-147489711D01*
X119790609Y-147620814D01*
X119790602Y-147620827D01*
X119730264Y-147766498D01*
X119730261Y-147766508D01*
X119708759Y-147874604D01*
X119676374Y-147936515D01*
X119615658Y-147971089D01*
X119545888Y-147967348D01*
X119499461Y-147938093D01*
X119246071Y-147684703D01*
X119219191Y-147644475D01*
X119209394Y-147620821D01*
X119209389Y-147620814D01*
X119121789Y-147489710D01*
X119010292Y-147378213D01*
X119010288Y-147378210D01*
X118879185Y-147290609D01*
X118879172Y-147290602D01*
X118733501Y-147230264D01*
X118733489Y-147230261D01*
X118578845Y-147199500D01*
X118578842Y-147199500D01*
X118421158Y-147199500D01*
X118421155Y-147199500D01*
X118266510Y-147230261D01*
X118266498Y-147230264D01*
X118120827Y-147290602D01*
X118120814Y-147290609D01*
X117989711Y-147378210D01*
X117989707Y-147378213D01*
X117878213Y-147489707D01*
X117878210Y-147489711D01*
X117790609Y-147620814D01*
X117790602Y-147620827D01*
X117730264Y-147766498D01*
X117730261Y-147766510D01*
X117699500Y-147921153D01*
X112334027Y-147921153D01*
X112318768Y-147905894D01*
X112285285Y-147844574D01*
X112284861Y-147842542D01*
X112269737Y-147766503D01*
X112245599Y-147708230D01*
X112209397Y-147620827D01*
X112209390Y-147620814D01*
X112121789Y-147489711D01*
X112121786Y-147489707D01*
X112010292Y-147378213D01*
X112010288Y-147378210D01*
X111879185Y-147290609D01*
X111879172Y-147290602D01*
X111733501Y-147230264D01*
X111733489Y-147230261D01*
X111578845Y-147199500D01*
X111578842Y-147199500D01*
X111421158Y-147199500D01*
X111421155Y-147199500D01*
X111266510Y-147230261D01*
X111266498Y-147230264D01*
X111120827Y-147290602D01*
X111120814Y-147290609D01*
X110989711Y-147378210D01*
X110989707Y-147378213D01*
X110878213Y-147489707D01*
X110878210Y-147489711D01*
X110790609Y-147620814D01*
X110790602Y-147620827D01*
X110730264Y-147766498D01*
X110730261Y-147766510D01*
X110699500Y-147921153D01*
X88300499Y-147921153D01*
X88279608Y-147816129D01*
X88269737Y-147766503D01*
X88254748Y-147730315D01*
X88209397Y-147620827D01*
X88209390Y-147620814D01*
X88121789Y-147489711D01*
X88121786Y-147489707D01*
X88010292Y-147378213D01*
X88010288Y-147378210D01*
X87879185Y-147290609D01*
X87879172Y-147290602D01*
X87733501Y-147230264D01*
X87733489Y-147230261D01*
X87578845Y-147199500D01*
X87578842Y-147199500D01*
X87421158Y-147199500D01*
X87421155Y-147199500D01*
X87266510Y-147230261D01*
X87266498Y-147230264D01*
X87120827Y-147290602D01*
X87120814Y-147290609D01*
X86989711Y-147378210D01*
X86989707Y-147378213D01*
X86878213Y-147489707D01*
X86878210Y-147489711D01*
X86790609Y-147620814D01*
X86790602Y-147620827D01*
X86730264Y-147766498D01*
X86730261Y-147766508D01*
X86715164Y-147842407D01*
X86682779Y-147904318D01*
X86681228Y-147905896D01*
X86498613Y-148088511D01*
X86498608Y-148088517D01*
X86498608Y-148088518D01*
X86495126Y-148093729D01*
X86427963Y-148194244D01*
X86427962Y-148194246D01*
X86411705Y-148233496D01*
X86411705Y-148233497D01*
X86379306Y-148311714D01*
X86379304Y-148311722D01*
X86354500Y-148436419D01*
X86354500Y-149320509D01*
X86334815Y-149387548D01*
X86303387Y-149420826D01*
X86283072Y-149435585D01*
X86160588Y-149558069D01*
X86160588Y-149558070D01*
X86160586Y-149558072D01*
X86145752Y-149578489D01*
X86058768Y-149698211D01*
X85980128Y-149852552D01*
X85926597Y-150017302D01*
X85899500Y-150188389D01*
X83099999Y-150188389D01*
X83099999Y-149875028D01*
X83099998Y-149875013D01*
X83089505Y-149772302D01*
X83034358Y-149605880D01*
X83034356Y-149605875D01*
X82942315Y-149456654D01*
X82818345Y-149332684D01*
X82669124Y-149240643D01*
X82669119Y-149240641D01*
X82502697Y-149185494D01*
X82502690Y-149185493D01*
X82399986Y-149175000D01*
X82250000Y-149175000D01*
X82250000Y-150269670D01*
X82230255Y-150249925D01*
X82144745Y-150200556D01*
X82049370Y-150175000D01*
X81950630Y-150175000D01*
X81855255Y-150200556D01*
X81769745Y-150249925D01*
X81750000Y-150269670D01*
X81750000Y-149175000D01*
X81600027Y-149175000D01*
X81600012Y-149175001D01*
X81497302Y-149185494D01*
X81330880Y-149240641D01*
X81330875Y-149240643D01*
X81181654Y-149332684D01*
X81057684Y-149456654D01*
X81018053Y-149520907D01*
X81001999Y-149535345D01*
X80989546Y-149552980D01*
X80976538Y-149558246D01*
X80966105Y-149567631D01*
X80944797Y-149571098D01*
X80924783Y-149579202D01*
X80910990Y-149576599D01*
X80897142Y-149578853D01*
X80877343Y-149570250D01*
X80856125Y-149566247D01*
X80838307Y-149553290D01*
X80833060Y-149551010D01*
X80827295Y-149545887D01*
X80826071Y-149544729D01*
X80716928Y-149435586D01*
X80690113Y-149416103D01*
X80684281Y-149410586D01*
X80670572Y-149387054D01*
X80653948Y-149365495D01*
X80652014Y-149355199D01*
X80649110Y-149350214D01*
X80649481Y-149341711D01*
X80645500Y-149320509D01*
X80645500Y-148888394D01*
X80665185Y-148821355D01*
X80717989Y-148775600D01*
X80733484Y-148769742D01*
X80733495Y-148769737D01*
X80733497Y-148769737D01*
X80879179Y-148709394D01*
X81010289Y-148621789D01*
X81121789Y-148510289D01*
X81209394Y-148379179D01*
X81269737Y-148233497D01*
X81300500Y-148078842D01*
X81300500Y-147921158D01*
X81300500Y-147921155D01*
X81300499Y-147921153D01*
X81279608Y-147816129D01*
X81269737Y-147766503D01*
X81254748Y-147730315D01*
X81209397Y-147620827D01*
X81209390Y-147620814D01*
X81121789Y-147489711D01*
X81121786Y-147489707D01*
X81010292Y-147378213D01*
X81010288Y-147378210D01*
X80879185Y-147290609D01*
X80879172Y-147290602D01*
X80733501Y-147230264D01*
X80733489Y-147230261D01*
X80578845Y-147199500D01*
X80578842Y-147199500D01*
X80421158Y-147199500D01*
X80421155Y-147199500D01*
X80266510Y-147230261D01*
X80266498Y-147230264D01*
X80120827Y-147290602D01*
X80120814Y-147290609D01*
X79989711Y-147378210D01*
X79989707Y-147378213D01*
X79878213Y-147489707D01*
X79878210Y-147489711D01*
X79790609Y-147620814D01*
X79790602Y-147620827D01*
X79730264Y-147766498D01*
X79730261Y-147766508D01*
X79715164Y-147842407D01*
X79682779Y-147904318D01*
X79681228Y-147905896D01*
X79498613Y-148088511D01*
X79498608Y-148088517D01*
X79498608Y-148088518D01*
X79495126Y-148093729D01*
X79427963Y-148194244D01*
X79427962Y-148194246D01*
X79411705Y-148233496D01*
X79411705Y-148233497D01*
X79379306Y-148311714D01*
X79379304Y-148311722D01*
X79354500Y-148436419D01*
X79354500Y-149320509D01*
X79334815Y-149387548D01*
X79303387Y-149420826D01*
X79283072Y-149435585D01*
X79160588Y-149558069D01*
X79160588Y-149558070D01*
X79160586Y-149558072D01*
X79145752Y-149578489D01*
X79058768Y-149698211D01*
X78980128Y-149852552D01*
X78926597Y-150017302D01*
X78899500Y-150188389D01*
X76099999Y-150188389D01*
X76099999Y-149875028D01*
X76099998Y-149875013D01*
X76089505Y-149772302D01*
X76034358Y-149605880D01*
X76034356Y-149605875D01*
X75942315Y-149456654D01*
X75818345Y-149332684D01*
X75669124Y-149240643D01*
X75669119Y-149240641D01*
X75502697Y-149185494D01*
X75502690Y-149185493D01*
X75399986Y-149175000D01*
X75250000Y-149175000D01*
X75250000Y-150269670D01*
X75230255Y-150249925D01*
X75144745Y-150200556D01*
X75049370Y-150175000D01*
X74950630Y-150175000D01*
X74855255Y-150200556D01*
X74769745Y-150249925D01*
X74750000Y-150269670D01*
X74750000Y-149175000D01*
X74600027Y-149175000D01*
X74600012Y-149175001D01*
X74497302Y-149185494D01*
X74330880Y-149240641D01*
X74330875Y-149240643D01*
X74181654Y-149332684D01*
X74057684Y-149456654D01*
X74018053Y-149520907D01*
X74001999Y-149535345D01*
X73989546Y-149552980D01*
X73976538Y-149558246D01*
X73966105Y-149567631D01*
X73944797Y-149571098D01*
X73924783Y-149579202D01*
X73910990Y-149576599D01*
X73897142Y-149578853D01*
X73877343Y-149570250D01*
X73856125Y-149566247D01*
X73838307Y-149553290D01*
X73833060Y-149551010D01*
X73827295Y-149545887D01*
X73826071Y-149544729D01*
X73716928Y-149435586D01*
X73690113Y-149416103D01*
X73684281Y-149410586D01*
X73670572Y-149387054D01*
X73653948Y-149365495D01*
X73652014Y-149355199D01*
X73649110Y-149350214D01*
X73649481Y-149341711D01*
X73645500Y-149320509D01*
X73645500Y-148888394D01*
X73665185Y-148821355D01*
X73717989Y-148775600D01*
X73733484Y-148769742D01*
X73733495Y-148769737D01*
X73733497Y-148769737D01*
X73879179Y-148709394D01*
X74010289Y-148621789D01*
X74121789Y-148510289D01*
X74209394Y-148379179D01*
X74269737Y-148233497D01*
X74300500Y-148078842D01*
X74300500Y-147921158D01*
X74300500Y-147921155D01*
X74300499Y-147921153D01*
X74279608Y-147816129D01*
X74269737Y-147766503D01*
X74254748Y-147730315D01*
X74209397Y-147620827D01*
X74209390Y-147620814D01*
X74121789Y-147489711D01*
X74121786Y-147489707D01*
X74010292Y-147378213D01*
X74010288Y-147378210D01*
X73879185Y-147290609D01*
X73879172Y-147290602D01*
X73733501Y-147230264D01*
X73733489Y-147230261D01*
X73578845Y-147199500D01*
X73578842Y-147199500D01*
X73421158Y-147199500D01*
X73421155Y-147199500D01*
X73266510Y-147230261D01*
X73266498Y-147230264D01*
X73120827Y-147290602D01*
X73120814Y-147290609D01*
X72989711Y-147378210D01*
X72989707Y-147378213D01*
X72878213Y-147489707D01*
X72878210Y-147489711D01*
X72790609Y-147620814D01*
X72790602Y-147620827D01*
X72730264Y-147766498D01*
X72730261Y-147766508D01*
X72715164Y-147842407D01*
X72682779Y-147904318D01*
X72681228Y-147905896D01*
X72498613Y-148088511D01*
X72498608Y-148088517D01*
X72498608Y-148088518D01*
X72495126Y-148093729D01*
X72427963Y-148194244D01*
X72427962Y-148194246D01*
X72411705Y-148233496D01*
X72411705Y-148233497D01*
X72379306Y-148311714D01*
X72379304Y-148311722D01*
X72354500Y-148436419D01*
X72354500Y-149320509D01*
X72334815Y-149387548D01*
X72303387Y-149420826D01*
X72283072Y-149435585D01*
X72160588Y-149558069D01*
X72160588Y-149558070D01*
X72160586Y-149558072D01*
X72145752Y-149578489D01*
X72058768Y-149698211D01*
X71980128Y-149852552D01*
X71926597Y-150017302D01*
X71899500Y-150188389D01*
X68982629Y-150188389D01*
X68988410Y-150159325D01*
X68988410Y-150159324D01*
X69000499Y-150098545D01*
X69000500Y-150098543D01*
X69000500Y-149901456D01*
X68962052Y-149708170D01*
X68962051Y-149708169D01*
X68962051Y-149708165D01*
X68949015Y-149676693D01*
X68886635Y-149526092D01*
X68886628Y-149526079D01*
X68777139Y-149362218D01*
X68777136Y-149362214D01*
X68637785Y-149222863D01*
X68637781Y-149222860D01*
X68473920Y-149113371D01*
X68473907Y-149113364D01*
X68291839Y-149037950D01*
X68291829Y-149037947D01*
X68098543Y-148999500D01*
X68098541Y-148999500D01*
X67110200Y-148999500D01*
X67089678Y-148993474D01*
X67068328Y-148992216D01*
X67050837Y-148982069D01*
X67043161Y-148979815D01*
X67037141Y-148975692D01*
X67031406Y-148971510D01*
X67029792Y-148969896D01*
X66864952Y-148850133D01*
X66864607Y-148849882D01*
X66843236Y-148822068D01*
X66822115Y-148794678D01*
X66822105Y-148794567D01*
X66822037Y-148794478D01*
X66819113Y-148759727D01*
X66816136Y-148725065D01*
X66816188Y-148724965D01*
X66816179Y-148724855D01*
X66832422Y-148694198D01*
X66848741Y-148663270D01*
X66848867Y-148663160D01*
X66848891Y-148663116D01*
X66848970Y-148663071D01*
X66864781Y-148649371D01*
X67029466Y-148529721D01*
X67179723Y-148379464D01*
X67179727Y-148379459D01*
X67304620Y-148207557D01*
X67401095Y-148018217D01*
X67466757Y-147816129D01*
X67466757Y-147816126D01*
X67477231Y-147750000D01*
X66429146Y-147750000D01*
X66467630Y-147683343D01*
X66500000Y-147562535D01*
X66500000Y-147437465D01*
X66467630Y-147316657D01*
X66429146Y-147250000D01*
X67477231Y-147250000D01*
X67466757Y-147183873D01*
X67466757Y-147183870D01*
X67401095Y-146981782D01*
X67304620Y-146792442D01*
X67179727Y-146620540D01*
X67179723Y-146620535D01*
X67040856Y-146481668D01*
X67007371Y-146420345D01*
X67012355Y-146350653D01*
X67054227Y-146294720D01*
X67063441Y-146288448D01*
X67069331Y-146284814D01*
X67069334Y-146284814D01*
X67218656Y-146192712D01*
X67342712Y-146068656D01*
X67434814Y-145919334D01*
X67462595Y-145835495D01*
X67476465Y-145815463D01*
X67486588Y-145793297D01*
X67496000Y-145787248D01*
X67502368Y-145778051D01*
X67524866Y-145768697D01*
X67545366Y-145755523D01*
X67562467Y-145753064D01*
X67566884Y-145751228D01*
X67580301Y-145750500D01*
X67695396Y-145750500D01*
X67742844Y-145759937D01*
X67766503Y-145769737D01*
X67766508Y-145769738D01*
X67766511Y-145769739D01*
X67921153Y-145800499D01*
X67921156Y-145800500D01*
X67921158Y-145800500D01*
X68078844Y-145800500D01*
X68078845Y-145800499D01*
X68233497Y-145769737D01*
X68379179Y-145709394D01*
X68510289Y-145621789D01*
X68621789Y-145510289D01*
X68709394Y-145379179D01*
X68769737Y-145233497D01*
X68800500Y-145078842D01*
X68800500Y-144921158D01*
X68800500Y-144921155D01*
X68800499Y-144921153D01*
X68769738Y-144766510D01*
X68769737Y-144766503D01*
X68735463Y-144683757D01*
X68709397Y-144620827D01*
X68709390Y-144620814D01*
X68621789Y-144489711D01*
X68621786Y-144489707D01*
X68510292Y-144378213D01*
X68510288Y-144378210D01*
X68379185Y-144290609D01*
X68379172Y-144290602D01*
X68233501Y-144230264D01*
X68233489Y-144230261D01*
X68078845Y-144199500D01*
X68078842Y-144199500D01*
X67921158Y-144199500D01*
X67921155Y-144199500D01*
X67766511Y-144230260D01*
X67766506Y-144230262D01*
X67766504Y-144230262D01*
X67766503Y-144230263D01*
X67742844Y-144240062D01*
X67734670Y-144241688D01*
X67730331Y-144244477D01*
X67695396Y-144249500D01*
X67580301Y-144249500D01*
X67513262Y-144229815D01*
X67467507Y-144177011D01*
X67462595Y-144164504D01*
X67434814Y-144080666D01*
X67342712Y-143931344D01*
X67218656Y-143807288D01*
X67069334Y-143715186D01*
X66902797Y-143660001D01*
X66902795Y-143660000D01*
X66800016Y-143649500D01*
X66124000Y-143649500D01*
X66056961Y-143629815D01*
X66011206Y-143577011D01*
X66000000Y-143525500D01*
X66000000Y-140690365D01*
X66019685Y-140623326D01*
X66072489Y-140577571D01*
X66085681Y-140572434D01*
X66130509Y-140557867D01*
X66247445Y-140519873D01*
X66401788Y-140441232D01*
X66541928Y-140339414D01*
X66594523Y-140286819D01*
X66621450Y-140272115D01*
X66647269Y-140255523D01*
X66653469Y-140254631D01*
X66655846Y-140253334D01*
X66682204Y-140250500D01*
X66695396Y-140250500D01*
X66742844Y-140259937D01*
X66766503Y-140269737D01*
X66766508Y-140269738D01*
X66766511Y-140269739D01*
X66921153Y-140300499D01*
X66921156Y-140300500D01*
X66921158Y-140300500D01*
X67078844Y-140300500D01*
X67078845Y-140300499D01*
X67233497Y-140269737D01*
X67351592Y-140220821D01*
X67379172Y-140209397D01*
X67379172Y-140209396D01*
X67379179Y-140209394D01*
X67510289Y-140121789D01*
X67621789Y-140010289D01*
X67709394Y-139879179D01*
X67712854Y-139870827D01*
X67729655Y-139830264D01*
X67769737Y-139733497D01*
X67800500Y-139578842D01*
X67800500Y-139421158D01*
X67800500Y-139421155D01*
X67800499Y-139421153D01*
X67790679Y-139371786D01*
X67769737Y-139266503D01*
X67761987Y-139247792D01*
X67709397Y-139120827D01*
X67709390Y-139120814D01*
X67621789Y-138989711D01*
X67621786Y-138989707D01*
X67510292Y-138878213D01*
X67510288Y-138878210D01*
X67379185Y-138790609D01*
X67379172Y-138790602D01*
X67233501Y-138730264D01*
X67233489Y-138730261D01*
X67078845Y-138699500D01*
X67078842Y-138699500D01*
X66921158Y-138699500D01*
X66921155Y-138699500D01*
X66766511Y-138730260D01*
X66766506Y-138730262D01*
X66766504Y-138730262D01*
X66766503Y-138730263D01*
X66742844Y-138740062D01*
X66734670Y-138741688D01*
X66730331Y-138744477D01*
X66695396Y-138749500D01*
X66682204Y-138749500D01*
X66615165Y-138729815D01*
X66594523Y-138713181D01*
X66541930Y-138660588D01*
X66541928Y-138660586D01*
X66458975Y-138600317D01*
X66444254Y-138581226D01*
X66426330Y-138565107D01*
X66423305Y-138554059D01*
X66416311Y-138544988D01*
X66414248Y-138520968D01*
X66407883Y-138497716D01*
X66411312Y-138486786D01*
X66410332Y-138475374D01*
X66421582Y-138454052D01*
X66428799Y-138431051D01*
X66439695Y-138419723D01*
X66442938Y-138413579D01*
X66452399Y-138404808D01*
X66455606Y-138402130D01*
X66541928Y-138339414D01*
X66598462Y-138282879D01*
X66602741Y-138279308D01*
X66629877Y-138267514D01*
X66655846Y-138253334D01*
X66664691Y-138252382D01*
X66666820Y-138251458D01*
X66669396Y-138251877D01*
X66682204Y-138250500D01*
X66695396Y-138250500D01*
X66742844Y-138259937D01*
X66766503Y-138269737D01*
X66766508Y-138269738D01*
X66766511Y-138269739D01*
X66921153Y-138300499D01*
X66921156Y-138300500D01*
X66921158Y-138300500D01*
X67078844Y-138300500D01*
X67078845Y-138300499D01*
X67233497Y-138269737D01*
X67379179Y-138209394D01*
X67510289Y-138121789D01*
X67621789Y-138010289D01*
X67709394Y-137879179D01*
X67769737Y-137733497D01*
X67800500Y-137578842D01*
X67800500Y-137421158D01*
X67800500Y-137421155D01*
X67800499Y-137421153D01*
X67779651Y-137316344D01*
X67769737Y-137266503D01*
X67769735Y-137266498D01*
X67709397Y-137120827D01*
X67709390Y-137120814D01*
X67621789Y-136989711D01*
X67621786Y-136989707D01*
X67510292Y-136878213D01*
X67510288Y-136878210D01*
X67379185Y-136790609D01*
X67379172Y-136790602D01*
X67233501Y-136730264D01*
X67233489Y-136730261D01*
X67078845Y-136699500D01*
X67078842Y-136699500D01*
X66921158Y-136699500D01*
X66921155Y-136699500D01*
X66766511Y-136730260D01*
X66766506Y-136730262D01*
X66766504Y-136730262D01*
X66766503Y-136730263D01*
X66742844Y-136740062D01*
X66734670Y-136741688D01*
X66730331Y-136744477D01*
X66695396Y-136749500D01*
X66682204Y-136749500D01*
X66615165Y-136729815D01*
X66594523Y-136713181D01*
X66541930Y-136660588D01*
X66541928Y-136660586D01*
X66458975Y-136600317D01*
X66444254Y-136581226D01*
X66426330Y-136565107D01*
X66423305Y-136554059D01*
X66416311Y-136544988D01*
X66414248Y-136520968D01*
X66407883Y-136497716D01*
X66411312Y-136486786D01*
X66410332Y-136475374D01*
X66421582Y-136454052D01*
X66428799Y-136431051D01*
X66439695Y-136419723D01*
X66442938Y-136413579D01*
X66452399Y-136404808D01*
X66455606Y-136402130D01*
X66541928Y-136339414D01*
X66598462Y-136282879D01*
X66602741Y-136279308D01*
X66629877Y-136267514D01*
X66655846Y-136253334D01*
X66664691Y-136252382D01*
X66666820Y-136251458D01*
X66669396Y-136251877D01*
X66682204Y-136250500D01*
X66695396Y-136250500D01*
X66742844Y-136259937D01*
X66766503Y-136269737D01*
X66766508Y-136269738D01*
X66766511Y-136269739D01*
X66921153Y-136300499D01*
X66921156Y-136300500D01*
X66921158Y-136300500D01*
X67078844Y-136300500D01*
X67078845Y-136300499D01*
X67233497Y-136269737D01*
X67379179Y-136209394D01*
X67510289Y-136121789D01*
X67621789Y-136010289D01*
X67709394Y-135879179D01*
X67769737Y-135733497D01*
X67782138Y-135671153D01*
X85199500Y-135671153D01*
X85199500Y-135828846D01*
X85230261Y-135983489D01*
X85230264Y-135983501D01*
X85290602Y-136129172D01*
X85290609Y-136129185D01*
X85378210Y-136260288D01*
X85378213Y-136260292D01*
X85489707Y-136371786D01*
X85489710Y-136371788D01*
X85489711Y-136371789D01*
X85500771Y-136379179D01*
X85527289Y-136396898D01*
X85572093Y-136450511D01*
X85580800Y-136519836D01*
X85550645Y-136582863D01*
X85527289Y-136603102D01*
X85489707Y-136628213D01*
X85378213Y-136739707D01*
X85378210Y-136739711D01*
X85290609Y-136870814D01*
X85290602Y-136870827D01*
X85230264Y-137016498D01*
X85230261Y-137016510D01*
X85199500Y-137171153D01*
X85199500Y-137328846D01*
X85230261Y-137483489D01*
X85230264Y-137483501D01*
X85290602Y-137629172D01*
X85290609Y-137629185D01*
X85378210Y-137760288D01*
X85378213Y-137760292D01*
X85489707Y-137871786D01*
X85489710Y-137871788D01*
X85489711Y-137871789D01*
X85500771Y-137879179D01*
X85527289Y-137896898D01*
X85572093Y-137950511D01*
X85580800Y-138019836D01*
X85550645Y-138082863D01*
X85527289Y-138103102D01*
X85489707Y-138128213D01*
X85378213Y-138239707D01*
X85378210Y-138239711D01*
X85290609Y-138370814D01*
X85290602Y-138370827D01*
X85230264Y-138516498D01*
X85230261Y-138516510D01*
X85199500Y-138671153D01*
X85199500Y-138828846D01*
X85230261Y-138983489D01*
X85230264Y-138983501D01*
X85290602Y-139129172D01*
X85290609Y-139129185D01*
X85378210Y-139260288D01*
X85378213Y-139260292D01*
X85489707Y-139371786D01*
X85489710Y-139371788D01*
X85489711Y-139371789D01*
X85508582Y-139384398D01*
X85527289Y-139396898D01*
X85572093Y-139450511D01*
X85580800Y-139519836D01*
X85550645Y-139582863D01*
X85527289Y-139603102D01*
X85489707Y-139628213D01*
X85378213Y-139739707D01*
X85378210Y-139739711D01*
X85290609Y-139870814D01*
X85290602Y-139870827D01*
X85230264Y-140016498D01*
X85230261Y-140016510D01*
X85199500Y-140171153D01*
X85199500Y-140328846D01*
X85230261Y-140483489D01*
X85230264Y-140483501D01*
X85290602Y-140629172D01*
X85290609Y-140629185D01*
X85378210Y-140760288D01*
X85378213Y-140760292D01*
X85489707Y-140871786D01*
X85489711Y-140871789D01*
X85620814Y-140959390D01*
X85620827Y-140959397D01*
X85766498Y-141019735D01*
X85766503Y-141019737D01*
X85858312Y-141037999D01*
X85921153Y-141050499D01*
X85921156Y-141050500D01*
X85921158Y-141050500D01*
X86078844Y-141050500D01*
X86078845Y-141050499D01*
X86233497Y-141019737D01*
X86379179Y-140959394D01*
X86510289Y-140871789D01*
X86621789Y-140760289D01*
X86709394Y-140629179D01*
X86769737Y-140483497D01*
X86800500Y-140328842D01*
X86800500Y-140171158D01*
X86800500Y-140171155D01*
X86800499Y-140171153D01*
X86784298Y-140089707D01*
X86769737Y-140016503D01*
X86753876Y-139978210D01*
X86709397Y-139870827D01*
X86709390Y-139870814D01*
X86621789Y-139739711D01*
X86621786Y-139739707D01*
X86510292Y-139628213D01*
X86510284Y-139628207D01*
X86472712Y-139603102D01*
X86427906Y-139549490D01*
X86419199Y-139480165D01*
X86449353Y-139417138D01*
X86472712Y-139396898D01*
X86499279Y-139379145D01*
X86510289Y-139371789D01*
X86621789Y-139260289D01*
X86709394Y-139129179D01*
X86712854Y-139120827D01*
X86753877Y-139021786D01*
X86769737Y-138983497D01*
X86800500Y-138828842D01*
X86800500Y-138671158D01*
X86800500Y-138671155D01*
X86800499Y-138671153D01*
X86798013Y-138658653D01*
X86769737Y-138516503D01*
X86757428Y-138486786D01*
X86709397Y-138370827D01*
X86709390Y-138370814D01*
X86621789Y-138239711D01*
X86621786Y-138239707D01*
X86510292Y-138128213D01*
X86510284Y-138128207D01*
X86472712Y-138103102D01*
X86427906Y-138049490D01*
X86419199Y-137980165D01*
X86449353Y-137917138D01*
X86472712Y-137896898D01*
X86499733Y-137878842D01*
X86510289Y-137871789D01*
X86621789Y-137760289D01*
X86709394Y-137629179D01*
X86769737Y-137483497D01*
X86800500Y-137328842D01*
X86800500Y-137171158D01*
X86800500Y-137171156D01*
X86800500Y-137171155D01*
X86800499Y-137171153D01*
X86779651Y-137066344D01*
X86769737Y-137016503D01*
X86764557Y-137003998D01*
X86709397Y-136870827D01*
X86709390Y-136870814D01*
X86621789Y-136739711D01*
X86621786Y-136739707D01*
X86510292Y-136628213D01*
X86510284Y-136628207D01*
X86472712Y-136603102D01*
X86427906Y-136549490D01*
X86419199Y-136480165D01*
X86449353Y-136417138D01*
X86472712Y-136396898D01*
X86499279Y-136379145D01*
X86510289Y-136371789D01*
X86621789Y-136260289D01*
X86709394Y-136129179D01*
X86769737Y-135983497D01*
X86782138Y-135921153D01*
X90949500Y-135921153D01*
X90949500Y-136078846D01*
X90980261Y-136233489D01*
X90980264Y-136233501D01*
X91040602Y-136379172D01*
X91040609Y-136379185D01*
X91128210Y-136510288D01*
X91128213Y-136510292D01*
X91239707Y-136621786D01*
X91239711Y-136621789D01*
X91370814Y-136709390D01*
X91370827Y-136709397D01*
X91478517Y-136754003D01*
X91516503Y-136769737D01*
X91671153Y-136800499D01*
X91671156Y-136800500D01*
X91671158Y-136800500D01*
X91828844Y-136800500D01*
X91828845Y-136800499D01*
X91983497Y-136769737D01*
X92129179Y-136709394D01*
X92260289Y-136621789D01*
X92371789Y-136510289D01*
X92459394Y-136379179D01*
X92519737Y-136233497D01*
X92550500Y-136078842D01*
X92550500Y-135921158D01*
X92550500Y-135921155D01*
X92550499Y-135921153D01*
X92536847Y-135852522D01*
X92519737Y-135766503D01*
X92467701Y-135640875D01*
X92459397Y-135620827D01*
X92459390Y-135620814D01*
X92371789Y-135489711D01*
X92371786Y-135489707D01*
X92260292Y-135378213D01*
X92260288Y-135378210D01*
X92129185Y-135290609D01*
X92129172Y-135290602D01*
X91983501Y-135230264D01*
X91983489Y-135230261D01*
X91828845Y-135199500D01*
X91828842Y-135199500D01*
X91671158Y-135199500D01*
X91671155Y-135199500D01*
X91516510Y-135230261D01*
X91516498Y-135230264D01*
X91370827Y-135290602D01*
X91370814Y-135290609D01*
X91239711Y-135378210D01*
X91239707Y-135378213D01*
X91128213Y-135489707D01*
X91128210Y-135489711D01*
X91040609Y-135620814D01*
X91040602Y-135620827D01*
X90980264Y-135766498D01*
X90980261Y-135766510D01*
X90949500Y-135921153D01*
X86782138Y-135921153D01*
X86799046Y-135836154D01*
X86800500Y-135828844D01*
X86800500Y-135671155D01*
X86800499Y-135671153D01*
X86769738Y-135516510D01*
X86769737Y-135516503D01*
X86769735Y-135516498D01*
X86709397Y-135370827D01*
X86709390Y-135370814D01*
X86621789Y-135239711D01*
X86621786Y-135239707D01*
X86510292Y-135128213D01*
X86510288Y-135128210D01*
X86379185Y-135040609D01*
X86379172Y-135040602D01*
X86233501Y-134980264D01*
X86233489Y-134980261D01*
X86078845Y-134949500D01*
X86078842Y-134949500D01*
X85921158Y-134949500D01*
X85921155Y-134949500D01*
X85766510Y-134980261D01*
X85766498Y-134980264D01*
X85620827Y-135040602D01*
X85620814Y-135040609D01*
X85489711Y-135128210D01*
X85489707Y-135128213D01*
X85378213Y-135239707D01*
X85378210Y-135239711D01*
X85290609Y-135370814D01*
X85290602Y-135370827D01*
X85230264Y-135516498D01*
X85230261Y-135516510D01*
X85199500Y-135671153D01*
X67782138Y-135671153D01*
X67792083Y-135621158D01*
X67800500Y-135578844D01*
X67800500Y-135421155D01*
X67800499Y-135421153D01*
X67780734Y-135321789D01*
X67769737Y-135266503D01*
X67769735Y-135266498D01*
X67709397Y-135120827D01*
X67709390Y-135120814D01*
X67621789Y-134989711D01*
X67621786Y-134989707D01*
X67510292Y-134878213D01*
X67510288Y-134878210D01*
X67379185Y-134790609D01*
X67379172Y-134790602D01*
X67233501Y-134730264D01*
X67233489Y-134730261D01*
X67078845Y-134699500D01*
X67078842Y-134699500D01*
X66921158Y-134699500D01*
X66921155Y-134699500D01*
X66766511Y-134730260D01*
X66766506Y-134730262D01*
X66766504Y-134730262D01*
X66766503Y-134730263D01*
X66742844Y-134740062D01*
X66734670Y-134741688D01*
X66730331Y-134744477D01*
X66695396Y-134749500D01*
X66682204Y-134749500D01*
X66615165Y-134729815D01*
X66594523Y-134713181D01*
X66556872Y-134675530D01*
X66523387Y-134614207D01*
X66528371Y-134544515D01*
X66570243Y-134488582D01*
X66579457Y-134482310D01*
X66584770Y-134479033D01*
X66643656Y-134442712D01*
X66749550Y-134336818D01*
X66810873Y-134303334D01*
X66837231Y-134300500D01*
X66978844Y-134300500D01*
X66978845Y-134300499D01*
X67133497Y-134269737D01*
X67271635Y-134212519D01*
X67279172Y-134209397D01*
X67279172Y-134209396D01*
X67279179Y-134209394D01*
X67410289Y-134121789D01*
X67521789Y-134010289D01*
X67609394Y-133879179D01*
X67612854Y-133870827D01*
X67623067Y-133846166D01*
X67669737Y-133733497D01*
X67700500Y-133578842D01*
X67700500Y-133421158D01*
X67700500Y-133421155D01*
X67684209Y-133339258D01*
X67684209Y-133339257D01*
X67680608Y-133321153D01*
X75599500Y-133321153D01*
X75599500Y-133478846D01*
X75630261Y-133633489D01*
X75630264Y-133633501D01*
X75690602Y-133779172D01*
X75690609Y-133779185D01*
X75778210Y-133910288D01*
X75778213Y-133910292D01*
X75889707Y-134021786D01*
X75889711Y-134021789D01*
X76020814Y-134109390D01*
X76020827Y-134109397D01*
X76165530Y-134169334D01*
X76166503Y-134169737D01*
X76321153Y-134200499D01*
X76321156Y-134200500D01*
X76321158Y-134200500D01*
X76478844Y-134200500D01*
X76478845Y-134200499D01*
X76626378Y-134171153D01*
X82949500Y-134171153D01*
X82949500Y-134328846D01*
X82980261Y-134483489D01*
X82980264Y-134483501D01*
X83040602Y-134629172D01*
X83040609Y-134629185D01*
X83128210Y-134760288D01*
X83128213Y-134760292D01*
X83239707Y-134871786D01*
X83239711Y-134871789D01*
X83370814Y-134959390D01*
X83370827Y-134959397D01*
X83516498Y-135019735D01*
X83516503Y-135019737D01*
X83671153Y-135050499D01*
X83671156Y-135050500D01*
X83671158Y-135050500D01*
X83828844Y-135050500D01*
X83828845Y-135050499D01*
X83983497Y-135019737D01*
X84129179Y-134959394D01*
X84260289Y-134871789D01*
X84371789Y-134760289D01*
X84459394Y-134629179D01*
X84462719Y-134621153D01*
X84477105Y-134586421D01*
X84519737Y-134483497D01*
X84532138Y-134421153D01*
X87949500Y-134421153D01*
X87949500Y-134578846D01*
X87980261Y-134733489D01*
X87980264Y-134733501D01*
X88040602Y-134879172D01*
X88040609Y-134879185D01*
X88128210Y-135010288D01*
X88128213Y-135010292D01*
X88239707Y-135121786D01*
X88239711Y-135121789D01*
X88370814Y-135209390D01*
X88370827Y-135209397D01*
X88450261Y-135242299D01*
X88516503Y-135269737D01*
X88671153Y-135300499D01*
X88671156Y-135300500D01*
X88671158Y-135300500D01*
X88828844Y-135300500D01*
X88828845Y-135300499D01*
X88983497Y-135269737D01*
X89101592Y-135220821D01*
X89129172Y-135209397D01*
X89129172Y-135209396D01*
X89129179Y-135209394D01*
X89260289Y-135121789D01*
X89371789Y-135010289D01*
X89459394Y-134879179D01*
X89519737Y-134733497D01*
X89550500Y-134578842D01*
X89550500Y-134421158D01*
X89550500Y-134421155D01*
X89550499Y-134421153D01*
X89534239Y-134339411D01*
X89519737Y-134266503D01*
X89480242Y-134171153D01*
X98199500Y-134171153D01*
X98199500Y-134328846D01*
X98230261Y-134483489D01*
X98230264Y-134483501D01*
X98290602Y-134629172D01*
X98290609Y-134629185D01*
X98378210Y-134760288D01*
X98378213Y-134760292D01*
X98489707Y-134871786D01*
X98489713Y-134871791D01*
X98489879Y-134871902D01*
X98489945Y-134871982D01*
X98494419Y-134875653D01*
X98493722Y-134876501D01*
X98534681Y-134925516D01*
X98543384Y-134994842D01*
X98513226Y-135057868D01*
X98494331Y-135074240D01*
X98494419Y-135074347D01*
X98490428Y-135077621D01*
X98489879Y-135078098D01*
X98489713Y-135078208D01*
X98489707Y-135078213D01*
X98378213Y-135189707D01*
X98378210Y-135189711D01*
X98290609Y-135320814D01*
X98290602Y-135320827D01*
X98230264Y-135466498D01*
X98230261Y-135466510D01*
X98199500Y-135621153D01*
X98199500Y-135778846D01*
X98230261Y-135933489D01*
X98230264Y-135933501D01*
X98290602Y-136079172D01*
X98290609Y-136079185D01*
X98378210Y-136210288D01*
X98378213Y-136210292D01*
X98489707Y-136321786D01*
X98489711Y-136321789D01*
X98564703Y-136371898D01*
X98609508Y-136425511D01*
X98618215Y-136494836D01*
X98588060Y-136557863D01*
X98564703Y-136578102D01*
X98489711Y-136628210D01*
X98489707Y-136628213D01*
X98378213Y-136739707D01*
X98378210Y-136739711D01*
X98290609Y-136870814D01*
X98290602Y-136870827D01*
X98230264Y-137016498D01*
X98230261Y-137016510D01*
X98199500Y-137171153D01*
X98199500Y-137328846D01*
X98230261Y-137483489D01*
X98230264Y-137483501D01*
X98290602Y-137629172D01*
X98290609Y-137629185D01*
X98378210Y-137760288D01*
X98378213Y-137760292D01*
X98489707Y-137871786D01*
X98489710Y-137871788D01*
X98489711Y-137871789D01*
X98500771Y-137879179D01*
X98527289Y-137896898D01*
X98572093Y-137950511D01*
X98580800Y-138019836D01*
X98550645Y-138082863D01*
X98527289Y-138103102D01*
X98489707Y-138128213D01*
X98378213Y-138239707D01*
X98378210Y-138239711D01*
X98290609Y-138370814D01*
X98290602Y-138370827D01*
X98230264Y-138516498D01*
X98230261Y-138516510D01*
X98199500Y-138671153D01*
X98199500Y-138828846D01*
X98230261Y-138983489D01*
X98230264Y-138983501D01*
X98290602Y-139129172D01*
X98290609Y-139129185D01*
X98378210Y-139260288D01*
X98378213Y-139260292D01*
X98489707Y-139371786D01*
X98489710Y-139371788D01*
X98489711Y-139371789D01*
X98508582Y-139384398D01*
X98527289Y-139396898D01*
X98572093Y-139450511D01*
X98580800Y-139519836D01*
X98550645Y-139582863D01*
X98527289Y-139603102D01*
X98489707Y-139628213D01*
X98378213Y-139739707D01*
X98378210Y-139739711D01*
X98290609Y-139870814D01*
X98290602Y-139870827D01*
X98230264Y-140016498D01*
X98230261Y-140016510D01*
X98199500Y-140171153D01*
X98199500Y-140328846D01*
X98230261Y-140483489D01*
X98230264Y-140483501D01*
X98290602Y-140629172D01*
X98290609Y-140629185D01*
X98378210Y-140760288D01*
X98378213Y-140760292D01*
X98489707Y-140871786D01*
X98489711Y-140871789D01*
X98620814Y-140959390D01*
X98620827Y-140959397D01*
X98766498Y-141019735D01*
X98766503Y-141019737D01*
X98858312Y-141037999D01*
X98921153Y-141050499D01*
X98921156Y-141050500D01*
X98921158Y-141050500D01*
X99078844Y-141050500D01*
X99078845Y-141050499D01*
X99233497Y-141019737D01*
X99379179Y-140959394D01*
X99510289Y-140871789D01*
X99621789Y-140760289D01*
X99709394Y-140629179D01*
X99769737Y-140483497D01*
X99800500Y-140328842D01*
X99800500Y-140171158D01*
X99800500Y-140171155D01*
X99800499Y-140171153D01*
X99784298Y-140089707D01*
X99769737Y-140016503D01*
X99753876Y-139978210D01*
X99709397Y-139870827D01*
X99709390Y-139870814D01*
X99621789Y-139739711D01*
X99621786Y-139739707D01*
X99510292Y-139628213D01*
X99510284Y-139628207D01*
X99472712Y-139603102D01*
X99427906Y-139549490D01*
X99419199Y-139480165D01*
X99449353Y-139417138D01*
X99472712Y-139396898D01*
X99499279Y-139379145D01*
X99510289Y-139371789D01*
X99621789Y-139260289D01*
X99709394Y-139129179D01*
X99712854Y-139120827D01*
X99753877Y-139021786D01*
X99769737Y-138983497D01*
X99800500Y-138828842D01*
X99800500Y-138671158D01*
X99800500Y-138671155D01*
X99800499Y-138671153D01*
X99798013Y-138658653D01*
X99769737Y-138516503D01*
X99757428Y-138486786D01*
X99709397Y-138370827D01*
X99709390Y-138370814D01*
X99621789Y-138239711D01*
X99621786Y-138239707D01*
X99510292Y-138128213D01*
X99510284Y-138128207D01*
X99472712Y-138103102D01*
X99427906Y-138049490D01*
X99419199Y-137980165D01*
X99449353Y-137917138D01*
X99472712Y-137896898D01*
X99499733Y-137878842D01*
X99510289Y-137871789D01*
X99621789Y-137760289D01*
X99709394Y-137629179D01*
X99769737Y-137483497D01*
X99800500Y-137328842D01*
X99800500Y-137171158D01*
X99800499Y-137171155D01*
X99798012Y-137158653D01*
X100087000Y-137158653D01*
X100087000Y-137316346D01*
X100117761Y-137470989D01*
X100117764Y-137471001D01*
X100178102Y-137616672D01*
X100178109Y-137616685D01*
X100265710Y-137747788D01*
X100265713Y-137747792D01*
X100377207Y-137859286D01*
X100377210Y-137859288D01*
X100377211Y-137859289D01*
X100395914Y-137871786D01*
X100414789Y-137884398D01*
X100459593Y-137938011D01*
X100468300Y-138007336D01*
X100438145Y-138070363D01*
X100414789Y-138090602D01*
X100377207Y-138115713D01*
X100265713Y-138227207D01*
X100265710Y-138227211D01*
X100178109Y-138358314D01*
X100178102Y-138358327D01*
X100117764Y-138503998D01*
X100117761Y-138504010D01*
X100087000Y-138658653D01*
X100087000Y-138816346D01*
X100117761Y-138970989D01*
X100117764Y-138971001D01*
X100178102Y-139116672D01*
X100178109Y-139116685D01*
X100265710Y-139247788D01*
X100265713Y-139247792D01*
X100377207Y-139359286D01*
X100377210Y-139359288D01*
X100377211Y-139359289D01*
X100388271Y-139366679D01*
X100414789Y-139384398D01*
X100459593Y-139438011D01*
X100468300Y-139507336D01*
X100438145Y-139570363D01*
X100414789Y-139590602D01*
X100377207Y-139615713D01*
X100265713Y-139727207D01*
X100265710Y-139727211D01*
X100178109Y-139858314D01*
X100178102Y-139858327D01*
X100117764Y-140003998D01*
X100117761Y-140004010D01*
X100087000Y-140158653D01*
X100087000Y-140316346D01*
X100117761Y-140470989D01*
X100117764Y-140471001D01*
X100178102Y-140616672D01*
X100178109Y-140616685D01*
X100265710Y-140747788D01*
X100265713Y-140747792D01*
X100377207Y-140859286D01*
X100377211Y-140859289D01*
X100508314Y-140946890D01*
X100508327Y-140946897D01*
X100653998Y-141007235D01*
X100654003Y-141007237D01*
X100808653Y-141037999D01*
X100808656Y-141038000D01*
X100808658Y-141038000D01*
X100966344Y-141038000D01*
X100966345Y-141037999D01*
X101120997Y-141007237D01*
X101266679Y-140946894D01*
X101397789Y-140859289D01*
X101509289Y-140747789D01*
X101596894Y-140616679D01*
X101636462Y-140521153D01*
X111999500Y-140521153D01*
X111999500Y-140678846D01*
X112030261Y-140833489D01*
X112030264Y-140833501D01*
X112090602Y-140979172D01*
X112090609Y-140979185D01*
X112178210Y-141110288D01*
X112178213Y-141110292D01*
X112289707Y-141221786D01*
X112289711Y-141221789D01*
X112420814Y-141309390D01*
X112420827Y-141309397D01*
X112566498Y-141369735D01*
X112566503Y-141369737D01*
X112721153Y-141400499D01*
X112721156Y-141400500D01*
X112721158Y-141400500D01*
X112878844Y-141400500D01*
X112878845Y-141400499D01*
X113033497Y-141369737D01*
X113179179Y-141309394D01*
X113310289Y-141221789D01*
X113421789Y-141110289D01*
X113509394Y-140979179D01*
X113569737Y-140833497D01*
X113600500Y-140678842D01*
X113600500Y-140521158D01*
X113600500Y-140521155D01*
X113600499Y-140521153D01*
X113600244Y-140519871D01*
X113569737Y-140366503D01*
X113569735Y-140366498D01*
X113509397Y-140220827D01*
X113509390Y-140220814D01*
X113421789Y-140089711D01*
X113421786Y-140089707D01*
X113310292Y-139978213D01*
X113310288Y-139978210D01*
X113179185Y-139890609D01*
X113179172Y-139890602D01*
X113033501Y-139830264D01*
X113033489Y-139830261D01*
X112878845Y-139799500D01*
X112878842Y-139799500D01*
X112721158Y-139799500D01*
X112721155Y-139799500D01*
X112566510Y-139830261D01*
X112566498Y-139830264D01*
X112420827Y-139890602D01*
X112420814Y-139890609D01*
X112289711Y-139978210D01*
X112289707Y-139978213D01*
X112178213Y-140089707D01*
X112178210Y-140089711D01*
X112090609Y-140220814D01*
X112090602Y-140220827D01*
X112030264Y-140366498D01*
X112030261Y-140366510D01*
X111999500Y-140521153D01*
X101636462Y-140521153D01*
X101657237Y-140470997D01*
X101688000Y-140316342D01*
X101688000Y-140158658D01*
X101688000Y-140158655D01*
X101687999Y-140158653D01*
X101660774Y-140021786D01*
X101657237Y-140004003D01*
X101657235Y-140003998D01*
X101596897Y-139858327D01*
X101596890Y-139858314D01*
X101509289Y-139727211D01*
X101509286Y-139727207D01*
X101397792Y-139615713D01*
X101397784Y-139615707D01*
X101360212Y-139590602D01*
X101315406Y-139536990D01*
X101306699Y-139467665D01*
X101336853Y-139404638D01*
X101360212Y-139384398D01*
X101386779Y-139366645D01*
X101397789Y-139359289D01*
X101509289Y-139247789D01*
X101596894Y-139116679D01*
X101657237Y-138970997D01*
X101688000Y-138816342D01*
X101688000Y-138658658D01*
X101688000Y-138658655D01*
X101687999Y-138658653D01*
X101682995Y-138633497D01*
X101657237Y-138504003D01*
X101654633Y-138497716D01*
X101596897Y-138358327D01*
X101596890Y-138358314D01*
X101509289Y-138227211D01*
X101509286Y-138227207D01*
X101397792Y-138115713D01*
X101397784Y-138115707D01*
X101360212Y-138090602D01*
X101315406Y-138036990D01*
X101306699Y-137967665D01*
X101336853Y-137904638D01*
X101360212Y-137884398D01*
X101386779Y-137866645D01*
X101397789Y-137859289D01*
X101509289Y-137747789D01*
X101596894Y-137616679D01*
X101597630Y-137614903D01*
X104305750Y-137614903D01*
X104305750Y-137772596D01*
X104336511Y-137927239D01*
X104336514Y-137927251D01*
X104396852Y-138072922D01*
X104396859Y-138072935D01*
X104484460Y-138204038D01*
X104484463Y-138204042D01*
X104595957Y-138315536D01*
X104595961Y-138315539D01*
X104727064Y-138403140D01*
X104727068Y-138403142D01*
X104727071Y-138403144D01*
X104856647Y-138456816D01*
X104911048Y-138500654D01*
X104933113Y-138566948D01*
X104923753Y-138618827D01*
X104867764Y-138753998D01*
X104867761Y-138754010D01*
X104837000Y-138908653D01*
X104837000Y-139066346D01*
X104867761Y-139220989D01*
X104867764Y-139221001D01*
X104928102Y-139366672D01*
X104928109Y-139366685D01*
X105015710Y-139497788D01*
X105015713Y-139497792D01*
X105127207Y-139609286D01*
X105127211Y-139609289D01*
X105258314Y-139696890D01*
X105258327Y-139696897D01*
X105361691Y-139739711D01*
X105404003Y-139757237D01*
X105558653Y-139787999D01*
X105558656Y-139788000D01*
X105558658Y-139788000D01*
X105716344Y-139788000D01*
X105716345Y-139787999D01*
X105870997Y-139757237D01*
X106016679Y-139696894D01*
X106147789Y-139609289D01*
X106259289Y-139497789D01*
X106346894Y-139366679D01*
X106407237Y-139220997D01*
X106438000Y-139066342D01*
X106438000Y-138908658D01*
X106438000Y-138908655D01*
X106437999Y-138908653D01*
X106422124Y-138828844D01*
X106407237Y-138754003D01*
X106402136Y-138741688D01*
X106393630Y-138721153D01*
X115499500Y-138721153D01*
X115499500Y-138878846D01*
X115530261Y-139033489D01*
X115530264Y-139033501D01*
X115590602Y-139179172D01*
X115590609Y-139179185D01*
X115678210Y-139310288D01*
X115678213Y-139310292D01*
X115789707Y-139421786D01*
X115789711Y-139421789D01*
X115920814Y-139509390D01*
X115920827Y-139509397D01*
X116017622Y-139549490D01*
X116066503Y-139569737D01*
X116171398Y-139590602D01*
X116221153Y-139600499D01*
X116221156Y-139600500D01*
X116221158Y-139600500D01*
X116378844Y-139600500D01*
X116378845Y-139600499D01*
X116533497Y-139569737D01*
X116679179Y-139509394D01*
X116810289Y-139421789D01*
X116921789Y-139310289D01*
X117009394Y-139179179D01*
X117069737Y-139033497D01*
X117100500Y-138878842D01*
X117100500Y-138721158D01*
X117100500Y-138721155D01*
X117100499Y-138721153D01*
X117078055Y-138608321D01*
X117069737Y-138566503D01*
X117050876Y-138520968D01*
X117009397Y-138420827D01*
X117009390Y-138420814D01*
X116921789Y-138289711D01*
X116921786Y-138289707D01*
X116810292Y-138178213D01*
X116810288Y-138178210D01*
X116679185Y-138090609D01*
X116679172Y-138090602D01*
X116533501Y-138030264D01*
X116533489Y-138030261D01*
X116378845Y-137999500D01*
X116378842Y-137999500D01*
X116221158Y-137999500D01*
X116221155Y-137999500D01*
X116066510Y-138030261D01*
X116066498Y-138030264D01*
X115920827Y-138090602D01*
X115920814Y-138090609D01*
X115789711Y-138178210D01*
X115789707Y-138178213D01*
X115678213Y-138289707D01*
X115678210Y-138289711D01*
X115590609Y-138420814D01*
X115590602Y-138420827D01*
X115530264Y-138566498D01*
X115530261Y-138566510D01*
X115499500Y-138721153D01*
X106393630Y-138721153D01*
X106346897Y-138608327D01*
X106346890Y-138608314D01*
X106259289Y-138477211D01*
X106259286Y-138477207D01*
X106147792Y-138365713D01*
X106147788Y-138365710D01*
X106016685Y-138278109D01*
X106016672Y-138278102D01*
X105887105Y-138224435D01*
X105832701Y-138180595D01*
X105810636Y-138114301D01*
X105819995Y-138062423D01*
X105875987Y-137927247D01*
X105906750Y-137772592D01*
X105906750Y-137614908D01*
X105906750Y-137614905D01*
X105906749Y-137614903D01*
X105897122Y-137566505D01*
X105875987Y-137460253D01*
X105860054Y-137421786D01*
X105815647Y-137314577D01*
X105815640Y-137314564D01*
X105728039Y-137183461D01*
X105728036Y-137183457D01*
X105616542Y-137071963D01*
X105616538Y-137071960D01*
X105517373Y-137005700D01*
X105517351Y-137005686D01*
X105485429Y-136984356D01*
X105485422Y-136984352D01*
X105339751Y-136924014D01*
X105339739Y-136924011D01*
X105262530Y-136908653D01*
X108337000Y-136908653D01*
X108337000Y-137066346D01*
X108367761Y-137220989D01*
X108367764Y-137221001D01*
X108428102Y-137366672D01*
X108428106Y-137366679D01*
X108443709Y-137390030D01*
X108464587Y-137456708D01*
X108455168Y-137506374D01*
X108430264Y-137566497D01*
X108430261Y-137566505D01*
X108399500Y-137721153D01*
X108399500Y-137878846D01*
X108430261Y-138033489D01*
X108430264Y-138033501D01*
X108490602Y-138179172D01*
X108490609Y-138179185D01*
X108578210Y-138310288D01*
X108578213Y-138310292D01*
X108689707Y-138421786D01*
X108689711Y-138421789D01*
X108820814Y-138509390D01*
X108820827Y-138509397D01*
X108966498Y-138569735D01*
X108966503Y-138569737D01*
X109116131Y-138599500D01*
X109121153Y-138600499D01*
X109121156Y-138600500D01*
X109121158Y-138600500D01*
X109278844Y-138600500D01*
X109278845Y-138600499D01*
X109289179Y-138598443D01*
X109314287Y-138593450D01*
X109314292Y-138593449D01*
X109399800Y-138576439D01*
X109433497Y-138569737D01*
X109579179Y-138509394D01*
X109710289Y-138421789D01*
X109821789Y-138310289D01*
X109909394Y-138179179D01*
X109969737Y-138033497D01*
X110000500Y-137878842D01*
X110000500Y-137721158D01*
X110000500Y-137721155D01*
X110000499Y-137721153D01*
X109982204Y-137629179D01*
X109969737Y-137566503D01*
X109930179Y-137471001D01*
X109909397Y-137420827D01*
X109909389Y-137420813D01*
X109893791Y-137397469D01*
X109872912Y-137330792D01*
X109882331Y-137281124D01*
X109907237Y-137220997D01*
X109938000Y-137066342D01*
X109938000Y-136908658D01*
X109938000Y-136908655D01*
X109937999Y-136908653D01*
X109907238Y-136754007D01*
X109907236Y-136754001D01*
X109893630Y-136721153D01*
X118999500Y-136721153D01*
X118999500Y-136878846D01*
X119030261Y-137033489D01*
X119030264Y-137033501D01*
X119090602Y-137179172D01*
X119090609Y-137179185D01*
X119178210Y-137310288D01*
X119178213Y-137310292D01*
X119289707Y-137421786D01*
X119289711Y-137421789D01*
X119420814Y-137509390D01*
X119420827Y-137509397D01*
X119546281Y-137561361D01*
X119566503Y-137569737D01*
X119721153Y-137600499D01*
X119721156Y-137600500D01*
X119721158Y-137600500D01*
X119878844Y-137600500D01*
X119878845Y-137600499D01*
X120033497Y-137569737D01*
X120179179Y-137509394D01*
X120310289Y-137421789D01*
X120421789Y-137310289D01*
X120509394Y-137179179D01*
X120512719Y-137171153D01*
X120533569Y-137120814D01*
X120569737Y-137033497D01*
X120583079Y-136966416D01*
X120615463Y-136904509D01*
X120616959Y-136902985D01*
X121202931Y-136317013D01*
X121264252Y-136283530D01*
X121266317Y-136283099D01*
X121333497Y-136269737D01*
X121479179Y-136209394D01*
X121610289Y-136121789D01*
X121721789Y-136010289D01*
X121809394Y-135879179D01*
X121814727Y-135866303D01*
X121825831Y-135852522D01*
X121832571Y-135836154D01*
X121847298Y-135825881D01*
X121858565Y-135811900D01*
X121875359Y-135806309D01*
X121889878Y-135796183D01*
X121907820Y-135795503D01*
X121924858Y-135789832D01*
X121942008Y-135794208D01*
X121959698Y-135793539D01*
X121975161Y-135802669D01*
X121992558Y-135807109D01*
X122004675Y-135820095D01*
X122019863Y-135829063D01*
X122035068Y-135852668D01*
X122040054Y-135858011D01*
X122042105Y-135862087D01*
X122090606Y-135979179D01*
X122132838Y-136042384D01*
X122136265Y-136049193D01*
X122141227Y-136076365D01*
X122149480Y-136102721D01*
X122149500Y-136104935D01*
X122149500Y-137895064D01*
X122129815Y-137962103D01*
X122128603Y-137963954D01*
X122090608Y-138020817D01*
X122090602Y-138020828D01*
X122030264Y-138166498D01*
X122030261Y-138166510D01*
X121999500Y-138321153D01*
X121999500Y-138478846D01*
X122030261Y-138633489D01*
X122030264Y-138633501D01*
X122090602Y-138779172D01*
X122090609Y-138779185D01*
X122178210Y-138910288D01*
X122178213Y-138910292D01*
X122289707Y-139021786D01*
X122289711Y-139021789D01*
X122420814Y-139109390D01*
X122420827Y-139109397D01*
X122558683Y-139166498D01*
X122566503Y-139169737D01*
X122676987Y-139191713D01*
X122699691Y-139196230D01*
X122761602Y-139228615D01*
X122796176Y-139289330D01*
X122799500Y-139317847D01*
X122799500Y-139478846D01*
X122830261Y-139633489D01*
X122830264Y-139633501D01*
X122890602Y-139779172D01*
X122890609Y-139779185D01*
X122978210Y-139910288D01*
X122978213Y-139910292D01*
X123089707Y-140021786D01*
X123089711Y-140021789D01*
X123220814Y-140109390D01*
X123220827Y-140109397D01*
X123365530Y-140169334D01*
X123366503Y-140169737D01*
X123521153Y-140200499D01*
X123521156Y-140200500D01*
X123521158Y-140200500D01*
X123678844Y-140200500D01*
X123678845Y-140200499D01*
X123833497Y-140169737D01*
X123979179Y-140109394D01*
X124110289Y-140021789D01*
X124221789Y-139910289D01*
X124309394Y-139779179D01*
X124369737Y-139633497D01*
X124400500Y-139478842D01*
X124400500Y-139321158D01*
X124400500Y-139321155D01*
X124400499Y-139321153D01*
X124380577Y-139221001D01*
X124369737Y-139166503D01*
X124369735Y-139166498D01*
X124309397Y-139020827D01*
X124309390Y-139020814D01*
X124221789Y-138889711D01*
X124221786Y-138889707D01*
X124110292Y-138778213D01*
X124110288Y-138778210D01*
X123979185Y-138690609D01*
X123979172Y-138690602D01*
X123833501Y-138630264D01*
X123833491Y-138630261D01*
X123700308Y-138603769D01*
X123638397Y-138571384D01*
X123603823Y-138510668D01*
X123600500Y-138482152D01*
X123600500Y-138321155D01*
X123600499Y-138321153D01*
X123594244Y-138289707D01*
X123569737Y-138166503D01*
X123548699Y-138115713D01*
X123509397Y-138020828D01*
X123509396Y-138020827D01*
X123509394Y-138020821D01*
X123471396Y-137963953D01*
X123450520Y-137897276D01*
X123450500Y-137895064D01*
X123450500Y-136104935D01*
X123470185Y-136037896D01*
X123471366Y-136036090D01*
X123509394Y-135979179D01*
X123569737Y-135833497D01*
X123600500Y-135678842D01*
X123600500Y-135521158D01*
X123600500Y-135521155D01*
X123600499Y-135521153D01*
X123589627Y-135466498D01*
X123569737Y-135366503D01*
X123542398Y-135300500D01*
X123509397Y-135220827D01*
X123509390Y-135220814D01*
X123421789Y-135089711D01*
X123421786Y-135089707D01*
X123310292Y-134978213D01*
X123310288Y-134978210D01*
X123179185Y-134890609D01*
X123179172Y-134890602D01*
X123033501Y-134830264D01*
X123033489Y-134830261D01*
X122878845Y-134799500D01*
X122878842Y-134799500D01*
X122721158Y-134799500D01*
X122721155Y-134799500D01*
X122566510Y-134830261D01*
X122566498Y-134830264D01*
X122420827Y-134890602D01*
X122420814Y-134890609D01*
X122289711Y-134978210D01*
X122289707Y-134978213D01*
X122178213Y-135089707D01*
X122178210Y-135089711D01*
X122090609Y-135220814D01*
X122090604Y-135220823D01*
X122085270Y-135233702D01*
X122041427Y-135288104D01*
X121975133Y-135310167D01*
X121907434Y-135292886D01*
X121859825Y-135241748D01*
X121856149Y-135233698D01*
X121809397Y-135120827D01*
X121809390Y-135120814D01*
X121721789Y-134989711D01*
X121721786Y-134989707D01*
X121610292Y-134878213D01*
X121610288Y-134878210D01*
X121479185Y-134790609D01*
X121479172Y-134790602D01*
X121333501Y-134730264D01*
X121333489Y-134730261D01*
X121178845Y-134699500D01*
X121178842Y-134699500D01*
X121021158Y-134699500D01*
X121021155Y-134699500D01*
X120866510Y-134730261D01*
X120866498Y-134730264D01*
X120720827Y-134790602D01*
X120720814Y-134790609D01*
X120589711Y-134878210D01*
X120589707Y-134878213D01*
X120478213Y-134989707D01*
X120478210Y-134989711D01*
X120390609Y-135120814D01*
X120390602Y-135120827D01*
X120330264Y-135266498D01*
X120330261Y-135266508D01*
X120316920Y-135333579D01*
X120284535Y-135395490D01*
X120282984Y-135397068D01*
X119697068Y-135982984D01*
X119635745Y-136016469D01*
X119633579Y-136016920D01*
X119566508Y-136030261D01*
X119566498Y-136030264D01*
X119420827Y-136090602D01*
X119420814Y-136090609D01*
X119289711Y-136178210D01*
X119289707Y-136178213D01*
X119178213Y-136289707D01*
X119178210Y-136289711D01*
X119090609Y-136420814D01*
X119090602Y-136420827D01*
X119030264Y-136566498D01*
X119030261Y-136566510D01*
X118999500Y-136721153D01*
X109893630Y-136721153D01*
X109846897Y-136608327D01*
X109846890Y-136608314D01*
X109759289Y-136477211D01*
X109759286Y-136477207D01*
X109647792Y-136365713D01*
X109647788Y-136365710D01*
X109516685Y-136278109D01*
X109516672Y-136278102D01*
X109371001Y-136217764D01*
X109370989Y-136217761D01*
X109216345Y-136187000D01*
X109216342Y-136187000D01*
X109058658Y-136187000D01*
X109058655Y-136187000D01*
X108904010Y-136217761D01*
X108903998Y-136217764D01*
X108758327Y-136278102D01*
X108758314Y-136278109D01*
X108627211Y-136365710D01*
X108627207Y-136365713D01*
X108515713Y-136477207D01*
X108515710Y-136477211D01*
X108428109Y-136608314D01*
X108428102Y-136608327D01*
X108367764Y-136753998D01*
X108367761Y-136754010D01*
X108337000Y-136908653D01*
X105262530Y-136908653D01*
X105185095Y-136893250D01*
X105185092Y-136893250D01*
X105027408Y-136893250D01*
X105027405Y-136893250D01*
X104872760Y-136924011D01*
X104872748Y-136924014D01*
X104727077Y-136984352D01*
X104727064Y-136984359D01*
X104595961Y-137071960D01*
X104595957Y-137071963D01*
X104484463Y-137183457D01*
X104484460Y-137183461D01*
X104396859Y-137314564D01*
X104396852Y-137314577D01*
X104336514Y-137460248D01*
X104336511Y-137460260D01*
X104305750Y-137614903D01*
X101597630Y-137614903D01*
X101612566Y-137578844D01*
X101619807Y-137561363D01*
X101619807Y-137561361D01*
X101641331Y-137509397D01*
X101657237Y-137470997D01*
X101688000Y-137316342D01*
X101688000Y-137158658D01*
X101688000Y-137158655D01*
X101687999Y-137158653D01*
X101680472Y-137120814D01*
X101657237Y-137004003D01*
X101651317Y-136989711D01*
X101596897Y-136858327D01*
X101596890Y-136858314D01*
X101509289Y-136727211D01*
X101509286Y-136727207D01*
X101397792Y-136615713D01*
X101397788Y-136615710D01*
X101266685Y-136528109D01*
X101266672Y-136528102D01*
X101121001Y-136467764D01*
X101120989Y-136467761D01*
X100966345Y-136437000D01*
X100966342Y-136437000D01*
X100808658Y-136437000D01*
X100808655Y-136437000D01*
X100654010Y-136467761D01*
X100653998Y-136467764D01*
X100508327Y-136528102D01*
X100508314Y-136528109D01*
X100377211Y-136615710D01*
X100377207Y-136615713D01*
X100265713Y-136727207D01*
X100265710Y-136727211D01*
X100178109Y-136858314D01*
X100178102Y-136858327D01*
X100117764Y-137003998D01*
X100117761Y-137004010D01*
X100087000Y-137158653D01*
X99798012Y-137158653D01*
X99773117Y-137033497D01*
X99769737Y-137016503D01*
X99764557Y-137003998D01*
X99709397Y-136870827D01*
X99709390Y-136870814D01*
X99621789Y-136739711D01*
X99621786Y-136739707D01*
X99510292Y-136628213D01*
X99510288Y-136628210D01*
X99435296Y-136578102D01*
X99390491Y-136524490D01*
X99381784Y-136455165D01*
X99411938Y-136392138D01*
X99435296Y-136371898D01*
X99483911Y-136339414D01*
X99510289Y-136321789D01*
X99621789Y-136210289D01*
X99709394Y-136079179D01*
X99769737Y-135933497D01*
X99800500Y-135778842D01*
X99800500Y-135621158D01*
X99800500Y-135621155D01*
X99800499Y-135621153D01*
X99793628Y-135586611D01*
X99769737Y-135466503D01*
X99750955Y-135421158D01*
X99709397Y-135320827D01*
X99709390Y-135320814D01*
X99621789Y-135189711D01*
X99621786Y-135189707D01*
X99510292Y-135078213D01*
X99510286Y-135078208D01*
X99510130Y-135078104D01*
X99510066Y-135078028D01*
X99505581Y-135074347D01*
X99506279Y-135073496D01*
X99465323Y-135024494D01*
X99456613Y-134955169D01*
X99486766Y-134892140D01*
X99505669Y-134875760D01*
X99505581Y-134875653D01*
X99509610Y-134872346D01*
X99510130Y-134871896D01*
X99510286Y-134871791D01*
X99510285Y-134871791D01*
X99510289Y-134871789D01*
X99621789Y-134760289D01*
X99709394Y-134629179D01*
X99709395Y-134629176D01*
X99709397Y-134629173D01*
X99712719Y-134621153D01*
X111699500Y-134621153D01*
X111699500Y-134778846D01*
X111730261Y-134933489D01*
X111730264Y-134933501D01*
X111790602Y-135079172D01*
X111790609Y-135079185D01*
X111878210Y-135210288D01*
X111878213Y-135210292D01*
X111989707Y-135321786D01*
X111989711Y-135321789D01*
X112120814Y-135409390D01*
X112120827Y-135409397D01*
X112258683Y-135466498D01*
X112266503Y-135469737D01*
X112421153Y-135500499D01*
X112421156Y-135500500D01*
X112421158Y-135500500D01*
X112578844Y-135500500D01*
X112578845Y-135500499D01*
X112733497Y-135469737D01*
X112879179Y-135409394D01*
X113010289Y-135321789D01*
X113121789Y-135210289D01*
X113209394Y-135079179D01*
X113211396Y-135074347D01*
X113246082Y-134990606D01*
X113269737Y-134933497D01*
X113300500Y-134778842D01*
X113300500Y-134621158D01*
X113300500Y-134621155D01*
X113300499Y-134621153D01*
X113292368Y-134580275D01*
X113269737Y-134466503D01*
X113259883Y-134442712D01*
X113209397Y-134320827D01*
X113209390Y-134320814D01*
X113121789Y-134189711D01*
X113121786Y-134189707D01*
X113010292Y-134078213D01*
X113010288Y-134078210D01*
X112879185Y-133990609D01*
X112879172Y-133990602D01*
X112733501Y-133930264D01*
X112733489Y-133930261D01*
X112578845Y-133899500D01*
X112578842Y-133899500D01*
X112421158Y-133899500D01*
X112421155Y-133899500D01*
X112266510Y-133930261D01*
X112266498Y-133930264D01*
X112120827Y-133990602D01*
X112120814Y-133990609D01*
X111989711Y-134078210D01*
X111989707Y-134078213D01*
X111878213Y-134189707D01*
X111878210Y-134189711D01*
X111790609Y-134320814D01*
X111790602Y-134320827D01*
X111730264Y-134466498D01*
X111730261Y-134466510D01*
X111699500Y-134621153D01*
X99712719Y-134621153D01*
X99734895Y-134567614D01*
X99734895Y-134567613D01*
X99743869Y-134545948D01*
X99769737Y-134483497D01*
X99800500Y-134328842D01*
X99800500Y-134171158D01*
X99800500Y-134171155D01*
X99800499Y-134171153D01*
X99782012Y-134078213D01*
X99769737Y-134016503D01*
X99764060Y-134002797D01*
X99709397Y-133870827D01*
X99709390Y-133870814D01*
X99621789Y-133739711D01*
X99621786Y-133739707D01*
X99510292Y-133628213D01*
X99510288Y-133628210D01*
X99379185Y-133540609D01*
X99379172Y-133540602D01*
X99233501Y-133480264D01*
X99233489Y-133480261D01*
X99078845Y-133449500D01*
X99078842Y-133449500D01*
X98921158Y-133449500D01*
X98921155Y-133449500D01*
X98766510Y-133480261D01*
X98766498Y-133480264D01*
X98620827Y-133540602D01*
X98620814Y-133540609D01*
X98489711Y-133628210D01*
X98489707Y-133628213D01*
X98378213Y-133739707D01*
X98378210Y-133739711D01*
X98290609Y-133870814D01*
X98290602Y-133870827D01*
X98230264Y-134016498D01*
X98230261Y-134016510D01*
X98199500Y-134171153D01*
X89480242Y-134171153D01*
X89459794Y-134121786D01*
X89459397Y-134120827D01*
X89459390Y-134120814D01*
X89371789Y-133989711D01*
X89371786Y-133989707D01*
X89260292Y-133878213D01*
X89260288Y-133878210D01*
X89129185Y-133790609D01*
X89129172Y-133790602D01*
X88983501Y-133730264D01*
X88983489Y-133730261D01*
X88828845Y-133699500D01*
X88828842Y-133699500D01*
X88671158Y-133699500D01*
X88671155Y-133699500D01*
X88516510Y-133730261D01*
X88516498Y-133730264D01*
X88370827Y-133790602D01*
X88370814Y-133790609D01*
X88239711Y-133878210D01*
X88239707Y-133878213D01*
X88128213Y-133989707D01*
X88128210Y-133989711D01*
X88040609Y-134120814D01*
X88040602Y-134120827D01*
X87980264Y-134266498D01*
X87980261Y-134266510D01*
X87949500Y-134421153D01*
X84532138Y-134421153D01*
X84538161Y-134390874D01*
X84550500Y-134328844D01*
X84550500Y-134171155D01*
X84550499Y-134171153D01*
X84532012Y-134078213D01*
X84519737Y-134016503D01*
X84514060Y-134002797D01*
X84459397Y-133870827D01*
X84459390Y-133870814D01*
X84371789Y-133739711D01*
X84371786Y-133739707D01*
X84260292Y-133628213D01*
X84260288Y-133628210D01*
X84129185Y-133540609D01*
X84129172Y-133540602D01*
X83983501Y-133480264D01*
X83983489Y-133480261D01*
X83828845Y-133449500D01*
X83828842Y-133449500D01*
X83671158Y-133449500D01*
X83671155Y-133449500D01*
X83516510Y-133480261D01*
X83516498Y-133480264D01*
X83370827Y-133540602D01*
X83370814Y-133540609D01*
X83239711Y-133628210D01*
X83239707Y-133628213D01*
X83128213Y-133739707D01*
X83128210Y-133739711D01*
X83040609Y-133870814D01*
X83040602Y-133870827D01*
X82980264Y-134016498D01*
X82980261Y-134016510D01*
X82949500Y-134171153D01*
X76626378Y-134171153D01*
X76633497Y-134169737D01*
X76751592Y-134120821D01*
X76779172Y-134109397D01*
X76779172Y-134109396D01*
X76779179Y-134109394D01*
X76825848Y-134078211D01*
X76850164Y-134061964D01*
X76881224Y-134041209D01*
X76910289Y-134021789D01*
X77021789Y-133910289D01*
X77109394Y-133779179D01*
X77169737Y-133633497D01*
X77200500Y-133478842D01*
X77200500Y-133321158D01*
X77200500Y-133321155D01*
X77200499Y-133321153D01*
X77169738Y-133166510D01*
X77169737Y-133166503D01*
X77132894Y-133077555D01*
X77109397Y-133020827D01*
X77109390Y-133020814D01*
X77021789Y-132889711D01*
X77021786Y-132889707D01*
X76910292Y-132778213D01*
X76910288Y-132778210D01*
X76779185Y-132690609D01*
X76779172Y-132690602D01*
X76633501Y-132630264D01*
X76633489Y-132630261D01*
X76478845Y-132599500D01*
X76478842Y-132599500D01*
X76321158Y-132599500D01*
X76321155Y-132599500D01*
X76166510Y-132630261D01*
X76166498Y-132630264D01*
X76020827Y-132690602D01*
X76020814Y-132690609D01*
X75889711Y-132778210D01*
X75889707Y-132778213D01*
X75778213Y-132889707D01*
X75778210Y-132889711D01*
X75690609Y-133020814D01*
X75690602Y-133020827D01*
X75630264Y-133166498D01*
X75630261Y-133166510D01*
X75599500Y-133321153D01*
X67680608Y-133321153D01*
X67669738Y-133266510D01*
X67669737Y-133266503D01*
X67669735Y-133266498D01*
X67609397Y-133120827D01*
X67609390Y-133120814D01*
X67521789Y-132989711D01*
X67521786Y-132989707D01*
X67410292Y-132878213D01*
X67410288Y-132878210D01*
X67279185Y-132790609D01*
X67279172Y-132790602D01*
X67133501Y-132730264D01*
X67133489Y-132730261D01*
X66978845Y-132699500D01*
X66978842Y-132699500D01*
X66837230Y-132699500D01*
X66770191Y-132679815D01*
X66749549Y-132663181D01*
X66643657Y-132557289D01*
X66643656Y-132557288D01*
X66518559Y-132480128D01*
X66494336Y-132465187D01*
X66494331Y-132465185D01*
X66492862Y-132464698D01*
X66327797Y-132410001D01*
X66327795Y-132410000D01*
X66225016Y-132399500D01*
X66124000Y-132399500D01*
X66056961Y-132379815D01*
X66011206Y-132327011D01*
X66000000Y-132275500D01*
X66000000Y-132021153D01*
X100599500Y-132021153D01*
X100599500Y-132178846D01*
X100630261Y-132333489D01*
X100630264Y-132333501D01*
X100690602Y-132479172D01*
X100690609Y-132479185D01*
X100778210Y-132610288D01*
X100778213Y-132610292D01*
X100889707Y-132721786D01*
X100889711Y-132721789D01*
X101020814Y-132809390D01*
X101020827Y-132809397D01*
X101166498Y-132869735D01*
X101166503Y-132869737D01*
X101321153Y-132900499D01*
X101321156Y-132900500D01*
X101321158Y-132900500D01*
X101478844Y-132900500D01*
X101478845Y-132900499D01*
X101633497Y-132869737D01*
X101779179Y-132809394D01*
X101910289Y-132721789D01*
X102021789Y-132610289D01*
X102109394Y-132479179D01*
X102115191Y-132465185D01*
X102142398Y-132399500D01*
X102169737Y-132333497D01*
X102200500Y-132178842D01*
X102200500Y-132021158D01*
X102200500Y-132021155D01*
X102200499Y-132021153D01*
X102178269Y-131909397D01*
X102169737Y-131866503D01*
X102133427Y-131778842D01*
X102109397Y-131720827D01*
X102109390Y-131720814D01*
X102084763Y-131683957D01*
X102042798Y-131621153D01*
X112499500Y-131621153D01*
X112499500Y-131778846D01*
X112530261Y-131933489D01*
X112530264Y-131933501D01*
X112590602Y-132079172D01*
X112590609Y-132079185D01*
X112678210Y-132210288D01*
X112678213Y-132210292D01*
X112789707Y-132321786D01*
X112789711Y-132321789D01*
X112920814Y-132409390D01*
X112920827Y-132409397D01*
X112962355Y-132426598D01*
X113066503Y-132469737D01*
X113221153Y-132500499D01*
X113221156Y-132500500D01*
X113221158Y-132500500D01*
X113378844Y-132500500D01*
X113378845Y-132500499D01*
X113533497Y-132469737D01*
X113679179Y-132409394D01*
X113810289Y-132321789D01*
X113921789Y-132210289D01*
X114009394Y-132079179D01*
X114069737Y-131933497D01*
X114100500Y-131778842D01*
X114100500Y-131621158D01*
X114100500Y-131621155D01*
X114100499Y-131621153D01*
X114072066Y-131478211D01*
X114069737Y-131466503D01*
X114038298Y-131390602D01*
X114009397Y-131320827D01*
X114009390Y-131320814D01*
X113921789Y-131189711D01*
X113921786Y-131189707D01*
X113810292Y-131078213D01*
X113810288Y-131078210D01*
X113679185Y-130990609D01*
X113679172Y-130990602D01*
X113533501Y-130930264D01*
X113533489Y-130930261D01*
X113378845Y-130899500D01*
X113378842Y-130899500D01*
X113221158Y-130899500D01*
X113221155Y-130899500D01*
X113066510Y-130930261D01*
X113066498Y-130930264D01*
X112920827Y-130990602D01*
X112920814Y-130990609D01*
X112789711Y-131078210D01*
X112789707Y-131078213D01*
X112678213Y-131189707D01*
X112678210Y-131189711D01*
X112590609Y-131320814D01*
X112590602Y-131320827D01*
X112530264Y-131466498D01*
X112530261Y-131466510D01*
X112499500Y-131621153D01*
X102042798Y-131621153D01*
X102021789Y-131589711D01*
X102021786Y-131589707D01*
X101910292Y-131478213D01*
X101910288Y-131478210D01*
X101779185Y-131390609D01*
X101779172Y-131390602D01*
X101633501Y-131330264D01*
X101633489Y-131330261D01*
X101478845Y-131299500D01*
X101478842Y-131299500D01*
X101321158Y-131299500D01*
X101321155Y-131299500D01*
X101166510Y-131330261D01*
X101166498Y-131330264D01*
X101020827Y-131390602D01*
X101020814Y-131390609D01*
X100889711Y-131478210D01*
X100889707Y-131478213D01*
X100778213Y-131589707D01*
X100778210Y-131589711D01*
X100690609Y-131720814D01*
X100690602Y-131720827D01*
X100630264Y-131866498D01*
X100630261Y-131866510D01*
X100599500Y-132021153D01*
X66000000Y-132021153D01*
X66000000Y-129417947D01*
X66019685Y-129350908D01*
X66072489Y-129305153D01*
X66099809Y-129296330D01*
X66168435Y-129282678D01*
X66233497Y-129269737D01*
X66379179Y-129209394D01*
X66510289Y-129121789D01*
X66621789Y-129010289D01*
X66709394Y-128879179D01*
X66712854Y-128870827D01*
X66723067Y-128846166D01*
X66769737Y-128733497D01*
X66800500Y-128578842D01*
X66800500Y-128421158D01*
X66800500Y-128421155D01*
X66800499Y-128421153D01*
X66798955Y-128413389D01*
X66769737Y-128266503D01*
X66769735Y-128266498D01*
X66709397Y-128120827D01*
X66709390Y-128120814D01*
X66621789Y-127989711D01*
X66621786Y-127989707D01*
X66510292Y-127878213D01*
X66510288Y-127878210D01*
X66379185Y-127790609D01*
X66379172Y-127790602D01*
X66233501Y-127730264D01*
X66233491Y-127730261D01*
X66099808Y-127703669D01*
X66071677Y-127688954D01*
X66042797Y-127675765D01*
X66040940Y-127672875D01*
X66037897Y-127671284D01*
X66022184Y-127643691D01*
X66005023Y-127616987D01*
X66004362Y-127612393D01*
X66003323Y-127610568D01*
X66000000Y-127582052D01*
X66000000Y-127417947D01*
X66019685Y-127350908D01*
X66072489Y-127305153D01*
X66099809Y-127296330D01*
X66176140Y-127281146D01*
X66233497Y-127269737D01*
X66379179Y-127209394D01*
X66510289Y-127121789D01*
X66621789Y-127010289D01*
X66709394Y-126879179D01*
X66769737Y-126733497D01*
X66800500Y-126578842D01*
X66800500Y-126421158D01*
X66800500Y-126421155D01*
X66800499Y-126421153D01*
X66791957Y-126378211D01*
X66769737Y-126266503D01*
X66769735Y-126266498D01*
X66709397Y-126120827D01*
X66709390Y-126120814D01*
X66621789Y-125989711D01*
X66621786Y-125989707D01*
X66510292Y-125878213D01*
X66510288Y-125878210D01*
X66379185Y-125790609D01*
X66379172Y-125790602D01*
X66233501Y-125730264D01*
X66233491Y-125730261D01*
X66099808Y-125703669D01*
X66037897Y-125671284D01*
X66003323Y-125610568D01*
X66000000Y-125582052D01*
X66000000Y-124320259D01*
X67799500Y-124320259D01*
X67799500Y-124679740D01*
X67839746Y-125036935D01*
X67839748Y-125036951D01*
X67919737Y-125387407D01*
X67919741Y-125387419D01*
X68038465Y-125726711D01*
X68194432Y-126050579D01*
X68194434Y-126050582D01*
X68385685Y-126354956D01*
X68609812Y-126636003D01*
X68863997Y-126890188D01*
X69145044Y-127114315D01*
X69449418Y-127305566D01*
X69773292Y-127461536D01*
X70028119Y-127550703D01*
X70112580Y-127580258D01*
X70112592Y-127580262D01*
X70463052Y-127660252D01*
X70820260Y-127700499D01*
X70820261Y-127700500D01*
X70820264Y-127700500D01*
X71179739Y-127700500D01*
X71179739Y-127700499D01*
X71536948Y-127660252D01*
X71887408Y-127580262D01*
X72226708Y-127461536D01*
X72550582Y-127305566D01*
X72854956Y-127114315D01*
X73136003Y-126890188D01*
X73390188Y-126636003D01*
X73614315Y-126354956D01*
X73805566Y-126050582D01*
X73961536Y-125726708D01*
X74080262Y-125387408D01*
X74160252Y-125036948D01*
X74200500Y-124679736D01*
X74200500Y-124320264D01*
X74160252Y-123963052D01*
X74080262Y-123612592D01*
X73961536Y-123273292D01*
X73805566Y-122949418D01*
X73614315Y-122645044D01*
X73390188Y-122363997D01*
X73136003Y-122109812D01*
X72854956Y-121885685D01*
X72550582Y-121694434D01*
X72550579Y-121694432D01*
X72226711Y-121538465D01*
X71887419Y-121419741D01*
X71887407Y-121419737D01*
X71536951Y-121339748D01*
X71536935Y-121339746D01*
X71179740Y-121299500D01*
X71179736Y-121299500D01*
X70820264Y-121299500D01*
X70820259Y-121299500D01*
X70463064Y-121339746D01*
X70463048Y-121339748D01*
X70112592Y-121419737D01*
X70112580Y-121419741D01*
X69773288Y-121538465D01*
X69449420Y-121694432D01*
X69145045Y-121885684D01*
X68863997Y-122109811D01*
X68609811Y-122363997D01*
X68385684Y-122645045D01*
X68194432Y-122949420D01*
X68038465Y-123273288D01*
X67919741Y-123612580D01*
X67919737Y-123612592D01*
X67839748Y-123963048D01*
X67839746Y-123963064D01*
X67799500Y-124320259D01*
X66000000Y-124320259D01*
X66000000Y-122344927D01*
X66019685Y-122277888D01*
X66072489Y-122232133D01*
X66141647Y-122222189D01*
X66171450Y-122230365D01*
X66266503Y-122269737D01*
X66421153Y-122300499D01*
X66421156Y-122300500D01*
X66421158Y-122300500D01*
X66578844Y-122300500D01*
X66578845Y-122300499D01*
X66733497Y-122269737D01*
X66879179Y-122209394D01*
X67010289Y-122121789D01*
X67121789Y-122010289D01*
X67209394Y-121879179D01*
X67269737Y-121733497D01*
X67300500Y-121578842D01*
X67300500Y-121421158D01*
X67300500Y-121421155D01*
X67300499Y-121421153D01*
X67300217Y-121419737D01*
X67269737Y-121266503D01*
X67249203Y-121216928D01*
X67209397Y-121120827D01*
X67209390Y-121120814D01*
X67121789Y-120989711D01*
X67121786Y-120989707D01*
X67010292Y-120878213D01*
X67010288Y-120878210D01*
X66879185Y-120790609D01*
X66879172Y-120790602D01*
X66733501Y-120730264D01*
X66733489Y-120730261D01*
X66578845Y-120699500D01*
X66578842Y-120699500D01*
X66421158Y-120699500D01*
X66421155Y-120699500D01*
X66266510Y-120730261D01*
X66266507Y-120730262D01*
X66266506Y-120730262D01*
X66266503Y-120730263D01*
X66185410Y-120763852D01*
X66171452Y-120769634D01*
X66101982Y-120777102D01*
X66039503Y-120745826D01*
X66003851Y-120685737D01*
X66000000Y-120655072D01*
X66000000Y-120344927D01*
X66019685Y-120277888D01*
X66072489Y-120232133D01*
X66141647Y-120222189D01*
X66171450Y-120230365D01*
X66266503Y-120269737D01*
X66421153Y-120300499D01*
X66421156Y-120300500D01*
X66421158Y-120300500D01*
X66578844Y-120300500D01*
X66578845Y-120300499D01*
X66733497Y-120269737D01*
X66879179Y-120209394D01*
X67010289Y-120121789D01*
X67121789Y-120010289D01*
X67209394Y-119879179D01*
X67269737Y-119733497D01*
X67300500Y-119578842D01*
X67300500Y-119421158D01*
X67300500Y-119421155D01*
X67300499Y-119421153D01*
X67269738Y-119266510D01*
X67269737Y-119266503D01*
X67269735Y-119266498D01*
X67209397Y-119120827D01*
X67209390Y-119120814D01*
X67121789Y-118989711D01*
X67121786Y-118989707D01*
X67010292Y-118878213D01*
X67010288Y-118878210D01*
X66879185Y-118790609D01*
X66879172Y-118790602D01*
X66733501Y-118730264D01*
X66733489Y-118730261D01*
X66578845Y-118699500D01*
X66578842Y-118699500D01*
X66421158Y-118699500D01*
X66421155Y-118699500D01*
X66266510Y-118730261D01*
X66266507Y-118730262D01*
X66266506Y-118730262D01*
X66266503Y-118730263D01*
X66185410Y-118763852D01*
X66171452Y-118769634D01*
X66101982Y-118777102D01*
X66039503Y-118745826D01*
X66003851Y-118685737D01*
X66000000Y-118655072D01*
X66000000Y-116344927D01*
X66019685Y-116277888D01*
X66072489Y-116232133D01*
X66141647Y-116222189D01*
X66171450Y-116230365D01*
X66266503Y-116269737D01*
X66392734Y-116294846D01*
X66421153Y-116300499D01*
X66421156Y-116300500D01*
X66502044Y-116300500D01*
X66569083Y-116320185D01*
X66614838Y-116372989D01*
X66623661Y-116400309D01*
X66630261Y-116433489D01*
X66630264Y-116433501D01*
X66690602Y-116579172D01*
X66690609Y-116579185D01*
X66778210Y-116710288D01*
X66778213Y-116710292D01*
X66889707Y-116821786D01*
X66889711Y-116821789D01*
X67020814Y-116909390D01*
X67020827Y-116909397D01*
X67095732Y-116940423D01*
X67166503Y-116969737D01*
X67321153Y-117000499D01*
X67321156Y-117000500D01*
X67321158Y-117000500D01*
X67478844Y-117000500D01*
X67478845Y-117000499D01*
X67633497Y-116969737D01*
X67779179Y-116909394D01*
X67910289Y-116821789D01*
X68021789Y-116710289D01*
X68109394Y-116579179D01*
X68169737Y-116433497D01*
X68200500Y-116278842D01*
X68200500Y-116121158D01*
X68200500Y-116121155D01*
X68200499Y-116121153D01*
X68192417Y-116080521D01*
X68169737Y-115966503D01*
X68169735Y-115966498D01*
X68109397Y-115820827D01*
X68109390Y-115820814D01*
X68021398Y-115689125D01*
X68015747Y-115671078D01*
X68005523Y-115655169D01*
X68001071Y-115624207D01*
X68000520Y-115622447D01*
X68000500Y-115620234D01*
X68000500Y-115379765D01*
X68020185Y-115312726D01*
X68021398Y-115310874D01*
X68065745Y-115244505D01*
X68109394Y-115179179D01*
X68169737Y-115033497D01*
X68200500Y-114878842D01*
X68200500Y-114721158D01*
X68200500Y-114721155D01*
X68200499Y-114721153D01*
X68195988Y-114698473D01*
X68169737Y-114566503D01*
X68133427Y-114478842D01*
X68109397Y-114420827D01*
X68109390Y-114420814D01*
X68021789Y-114289711D01*
X68021786Y-114289707D01*
X67910292Y-114178213D01*
X67910288Y-114178210D01*
X67779185Y-114090609D01*
X67779172Y-114090602D01*
X67633501Y-114030264D01*
X67633489Y-114030261D01*
X67478845Y-113999500D01*
X67478842Y-113999500D01*
X67345134Y-113999500D01*
X67278095Y-113979815D01*
X67232340Y-113927011D01*
X67222396Y-113857853D01*
X67230573Y-113828047D01*
X67237651Y-113810959D01*
X67269737Y-113733497D01*
X67300500Y-113578842D01*
X67300500Y-113421158D01*
X67300500Y-113421155D01*
X67300499Y-113421153D01*
X67274531Y-113290606D01*
X67269737Y-113266503D01*
X67262694Y-113249500D01*
X67209397Y-113120827D01*
X67209390Y-113120814D01*
X67121789Y-112989711D01*
X67121786Y-112989707D01*
X67010292Y-112878213D01*
X67010288Y-112878210D01*
X66879185Y-112790609D01*
X66879172Y-112790602D01*
X66733501Y-112730264D01*
X66733489Y-112730261D01*
X66578845Y-112699500D01*
X66578842Y-112699500D01*
X66421158Y-112699500D01*
X66421155Y-112699500D01*
X66266510Y-112730261D01*
X66266507Y-112730262D01*
X66266506Y-112730262D01*
X66266503Y-112730263D01*
X66185410Y-112763852D01*
X66171452Y-112769634D01*
X66101982Y-112777102D01*
X66039503Y-112745826D01*
X66003851Y-112685737D01*
X66000000Y-112655072D01*
X66000000Y-112344927D01*
X66019685Y-112277888D01*
X66072489Y-112232133D01*
X66141647Y-112222189D01*
X66171450Y-112230365D01*
X66266503Y-112269737D01*
X66421153Y-112300499D01*
X66421156Y-112300500D01*
X66421158Y-112300500D01*
X66578844Y-112300500D01*
X66578845Y-112300499D01*
X66733497Y-112269737D01*
X66879179Y-112209394D01*
X67010289Y-112121789D01*
X67121789Y-112010289D01*
X67209394Y-111879179D01*
X67269737Y-111733497D01*
X67300500Y-111578842D01*
X67300500Y-111421158D01*
X67300500Y-111421155D01*
X67300499Y-111421153D01*
X67269738Y-111266510D01*
X67269737Y-111266503D01*
X67269735Y-111266498D01*
X67209397Y-111120827D01*
X67209390Y-111120814D01*
X67121789Y-110989711D01*
X67121786Y-110989707D01*
X67010292Y-110878213D01*
X67010288Y-110878210D01*
X66879185Y-110790609D01*
X66879172Y-110790602D01*
X66733501Y-110730264D01*
X66733489Y-110730261D01*
X66578845Y-110699500D01*
X66578842Y-110699500D01*
X66421158Y-110699500D01*
X66421155Y-110699500D01*
X66266510Y-110730261D01*
X66266507Y-110730262D01*
X66266506Y-110730262D01*
X66266503Y-110730263D01*
X66185410Y-110763852D01*
X66171452Y-110769634D01*
X66101982Y-110777102D01*
X66039503Y-110745826D01*
X66003851Y-110685737D01*
X66000000Y-110655072D01*
X66000000Y-108921153D01*
X70199500Y-108921153D01*
X70199500Y-109078846D01*
X70230261Y-109233489D01*
X70230264Y-109233501D01*
X70290602Y-109379172D01*
X70290609Y-109379185D01*
X70378210Y-109510288D01*
X70378213Y-109510292D01*
X70489707Y-109621786D01*
X70489711Y-109621789D01*
X70620814Y-109709390D01*
X70620827Y-109709397D01*
X70766498Y-109769735D01*
X70766503Y-109769737D01*
X70921153Y-109800499D01*
X70921156Y-109800500D01*
X70921158Y-109800500D01*
X71078844Y-109800500D01*
X71078845Y-109800499D01*
X71233497Y-109769737D01*
X71379179Y-109709394D01*
X71510289Y-109621789D01*
X71621789Y-109510289D01*
X71709394Y-109379179D01*
X71769737Y-109233497D01*
X71800500Y-109078842D01*
X71800500Y-108921158D01*
X71800500Y-108921155D01*
X71800499Y-108921153D01*
X71769738Y-108766510D01*
X71769737Y-108766503D01*
X71754228Y-108729060D01*
X71709397Y-108620827D01*
X71709390Y-108620814D01*
X71621789Y-108489711D01*
X71621786Y-108489707D01*
X71510292Y-108378213D01*
X71510288Y-108378210D01*
X71379185Y-108290609D01*
X71379172Y-108290602D01*
X71233501Y-108230264D01*
X71233489Y-108230261D01*
X71078845Y-108199500D01*
X71078842Y-108199500D01*
X70921158Y-108199500D01*
X70921155Y-108199500D01*
X70766510Y-108230261D01*
X70766498Y-108230264D01*
X70620827Y-108290602D01*
X70620814Y-108290609D01*
X70489711Y-108378210D01*
X70489707Y-108378213D01*
X70378213Y-108489707D01*
X70378210Y-108489711D01*
X70290609Y-108620814D01*
X70290602Y-108620827D01*
X70230264Y-108766498D01*
X70230261Y-108766510D01*
X70199500Y-108921153D01*
X66000000Y-108921153D01*
X66000000Y-107344927D01*
X66019685Y-107277888D01*
X66072489Y-107232133D01*
X66141647Y-107222189D01*
X66171450Y-107230365D01*
X66266503Y-107269737D01*
X66371418Y-107290606D01*
X66421153Y-107300499D01*
X66421156Y-107300500D01*
X66421158Y-107300500D01*
X66578844Y-107300500D01*
X66578845Y-107300499D01*
X66733497Y-107269737D01*
X66851592Y-107220821D01*
X66879172Y-107209397D01*
X66879172Y-107209396D01*
X66879179Y-107209394D01*
X67010289Y-107121789D01*
X67121789Y-107010289D01*
X67209394Y-106879179D01*
X67269737Y-106733497D01*
X67300500Y-106578842D01*
X67300500Y-106421158D01*
X67300500Y-106421155D01*
X67300499Y-106421153D01*
X67296291Y-106400000D01*
X67269737Y-106266503D01*
X67269735Y-106266498D01*
X67209397Y-106120827D01*
X67209390Y-106120814D01*
X67121789Y-105989711D01*
X67121786Y-105989707D01*
X67010292Y-105878213D01*
X67010288Y-105878210D01*
X66879185Y-105790609D01*
X66879172Y-105790602D01*
X66733501Y-105730264D01*
X66733489Y-105730261D01*
X66578845Y-105699500D01*
X66578842Y-105699500D01*
X66421158Y-105699500D01*
X66421155Y-105699500D01*
X66266510Y-105730261D01*
X66266507Y-105730262D01*
X66266506Y-105730262D01*
X66266503Y-105730263D01*
X66185410Y-105763852D01*
X66171452Y-105769634D01*
X66138813Y-105773142D01*
X66106353Y-105777810D01*
X66104265Y-105776856D01*
X66101982Y-105777102D01*
X66072639Y-105762413D01*
X66042797Y-105748785D01*
X66041555Y-105746853D01*
X66039503Y-105745826D01*
X66022757Y-105717603D01*
X66005023Y-105690007D01*
X66004587Y-105686978D01*
X66003851Y-105685737D01*
X66000000Y-105655072D01*
X66000000Y-105417947D01*
X66019685Y-105350908D01*
X66072489Y-105305153D01*
X66099809Y-105296330D01*
X66168435Y-105282678D01*
X66233497Y-105269737D01*
X66379179Y-105209394D01*
X66510289Y-105121789D01*
X66621789Y-105010289D01*
X66709394Y-104879179D01*
X66769737Y-104733497D01*
X66800500Y-104578842D01*
X66800500Y-104421158D01*
X66800500Y-104421155D01*
X66800499Y-104421153D01*
X66789627Y-104366498D01*
X66769737Y-104266503D01*
X66769735Y-104266498D01*
X66709397Y-104120827D01*
X66709390Y-104120814D01*
X66621789Y-103989711D01*
X66621786Y-103989707D01*
X66510292Y-103878213D01*
X66510288Y-103878210D01*
X66379185Y-103790609D01*
X66379172Y-103790602D01*
X66233501Y-103730264D01*
X66233491Y-103730261D01*
X66099808Y-103703669D01*
X66071677Y-103688954D01*
X66042797Y-103675765D01*
X66040940Y-103672875D01*
X66037897Y-103671284D01*
X66022184Y-103643691D01*
X66005023Y-103616987D01*
X66004362Y-103612393D01*
X66003323Y-103610568D01*
X66000000Y-103582052D01*
X66000000Y-103417947D01*
X66019685Y-103350908D01*
X66072489Y-103305153D01*
X66099809Y-103296330D01*
X66168435Y-103282678D01*
X66233497Y-103269737D01*
X66379179Y-103209394D01*
X66510289Y-103121789D01*
X66621789Y-103010289D01*
X66709394Y-102879179D01*
X66769737Y-102733497D01*
X66800500Y-102578842D01*
X66800500Y-102421158D01*
X66800500Y-102421155D01*
X66800499Y-102421153D01*
X66789628Y-102366503D01*
X66769737Y-102266503D01*
X66742398Y-102200500D01*
X66709397Y-102120827D01*
X66709390Y-102120814D01*
X66621789Y-101989711D01*
X66621786Y-101989707D01*
X66510292Y-101878213D01*
X66510288Y-101878210D01*
X66379185Y-101790609D01*
X66379172Y-101790602D01*
X66233501Y-101730264D01*
X66233491Y-101730261D01*
X66099808Y-101703669D01*
X66071677Y-101688954D01*
X66042797Y-101675765D01*
X66040940Y-101672875D01*
X66037897Y-101671284D01*
X66022184Y-101643691D01*
X66005023Y-101616987D01*
X66004362Y-101612393D01*
X66003323Y-101610568D01*
X66000000Y-101582052D01*
X66000000Y-101417947D01*
X66019685Y-101350908D01*
X66072489Y-101305153D01*
X66099809Y-101296330D01*
X66168435Y-101282678D01*
X66233497Y-101269737D01*
X66379179Y-101209394D01*
X66436411Y-101171153D01*
X72624500Y-101171153D01*
X72624500Y-101328846D01*
X72655261Y-101483489D01*
X72655264Y-101483501D01*
X72715602Y-101629172D01*
X72715609Y-101629185D01*
X72803210Y-101760288D01*
X72803213Y-101760292D01*
X72914707Y-101871786D01*
X72914711Y-101871789D01*
X73045814Y-101959390D01*
X73045827Y-101959397D01*
X73191498Y-102019735D01*
X73191503Y-102019737D01*
X73346153Y-102050499D01*
X73346156Y-102050500D01*
X73346158Y-102050500D01*
X73503844Y-102050500D01*
X73503845Y-102050499D01*
X73658497Y-102019737D01*
X73804179Y-101959394D01*
X73935289Y-101871789D01*
X74046789Y-101760289D01*
X74134394Y-101629179D01*
X74194737Y-101483497D01*
X74225500Y-101328842D01*
X74225500Y-101171158D01*
X74225500Y-101171155D01*
X74225499Y-101171153D01*
X74206847Y-101077385D01*
X74194737Y-101016503D01*
X74192163Y-101010288D01*
X74134397Y-100870827D01*
X74134390Y-100870814D01*
X74046789Y-100739711D01*
X74046786Y-100739707D01*
X73935292Y-100628213D01*
X73935288Y-100628210D01*
X73804185Y-100540609D01*
X73804172Y-100540602D01*
X73658501Y-100480264D01*
X73658489Y-100480261D01*
X73503845Y-100449500D01*
X73503842Y-100449500D01*
X73346158Y-100449500D01*
X73346155Y-100449500D01*
X73191510Y-100480261D01*
X73191498Y-100480264D01*
X73045827Y-100540602D01*
X73045814Y-100540609D01*
X72914711Y-100628210D01*
X72914707Y-100628213D01*
X72803213Y-100739707D01*
X72803210Y-100739711D01*
X72715609Y-100870814D01*
X72715602Y-100870827D01*
X72655264Y-101016498D01*
X72655261Y-101016510D01*
X72624500Y-101171153D01*
X66436411Y-101171153D01*
X66510289Y-101121789D01*
X66510292Y-101121786D01*
X66554694Y-101077385D01*
X66621786Y-101010292D01*
X66621789Y-101010289D01*
X66709394Y-100879179D01*
X66712854Y-100870827D01*
X66723067Y-100846166D01*
X66769737Y-100733497D01*
X66800500Y-100578842D01*
X66800500Y-100421158D01*
X66800500Y-100421155D01*
X66800499Y-100421153D01*
X66798338Y-100410288D01*
X66769737Y-100266503D01*
X66769735Y-100266498D01*
X66709397Y-100120827D01*
X66709390Y-100120814D01*
X66621789Y-99989711D01*
X66621786Y-99989707D01*
X66510292Y-99878213D01*
X66510288Y-99878210D01*
X66379185Y-99790609D01*
X66379172Y-99790602D01*
X66233501Y-99730264D01*
X66233491Y-99730261D01*
X66099808Y-99703669D01*
X66037897Y-99671284D01*
X66003323Y-99610568D01*
X66000000Y-99582052D01*
X66000000Y-97417947D01*
X66019685Y-97350908D01*
X66072489Y-97305153D01*
X66099809Y-97296330D01*
X66187723Y-97278842D01*
X66233497Y-97269737D01*
X66351592Y-97220821D01*
X66379172Y-97209397D01*
X66379172Y-97209396D01*
X66379179Y-97209394D01*
X66510289Y-97121789D01*
X66621789Y-97010289D01*
X66709394Y-96879179D01*
X66769737Y-96733497D01*
X66800500Y-96578842D01*
X66800500Y-96421158D01*
X66800500Y-96421155D01*
X66800499Y-96421153D01*
X66788418Y-96360417D01*
X66769737Y-96266503D01*
X66769735Y-96266498D01*
X66709397Y-96120827D01*
X66709390Y-96120814D01*
X66621789Y-95989711D01*
X66621786Y-95989707D01*
X66510292Y-95878213D01*
X66510288Y-95878210D01*
X66379185Y-95790609D01*
X66379172Y-95790602D01*
X66233501Y-95730264D01*
X66233491Y-95730261D01*
X66099808Y-95703669D01*
X66037897Y-95671284D01*
X66003323Y-95610568D01*
X66000000Y-95582052D01*
X66000000Y-92417947D01*
X66019685Y-92350908D01*
X66072489Y-92305153D01*
X66099809Y-92296330D01*
X66168435Y-92282678D01*
X66233497Y-92269737D01*
X66379179Y-92209394D01*
X66510289Y-92121789D01*
X66621789Y-92010289D01*
X66709394Y-91879179D01*
X66769737Y-91733497D01*
X66800500Y-91578842D01*
X66800500Y-91421158D01*
X66800500Y-91421155D01*
X66800499Y-91421153D01*
X66769738Y-91266510D01*
X66769737Y-91266503D01*
X66713728Y-91131284D01*
X66709397Y-91120827D01*
X66709390Y-91120814D01*
X66621789Y-90989711D01*
X66621786Y-90989707D01*
X66510292Y-90878213D01*
X66510288Y-90878210D01*
X66379185Y-90790609D01*
X66379172Y-90790602D01*
X66233501Y-90730264D01*
X66233491Y-90730261D01*
X66099808Y-90703669D01*
X66071677Y-90688954D01*
X66042797Y-90675765D01*
X66040940Y-90672875D01*
X66037897Y-90671284D01*
X66022184Y-90643691D01*
X66005023Y-90616987D01*
X66004362Y-90612393D01*
X66003323Y-90610568D01*
X66000000Y-90582052D01*
X66000000Y-90417947D01*
X66019685Y-90350908D01*
X66072489Y-90305153D01*
X66099809Y-90296330D01*
X66168435Y-90282678D01*
X66233497Y-90269737D01*
X66379179Y-90209394D01*
X66510289Y-90121789D01*
X66621789Y-90010289D01*
X66709394Y-89879179D01*
X66769737Y-89733497D01*
X66800500Y-89578842D01*
X66800500Y-89421158D01*
X66800500Y-89421155D01*
X66800499Y-89421153D01*
X66790271Y-89369735D01*
X66769737Y-89266503D01*
X66769735Y-89266498D01*
X66709397Y-89120827D01*
X66709390Y-89120814D01*
X66621789Y-88989711D01*
X66621786Y-88989707D01*
X66510292Y-88878213D01*
X66510288Y-88878210D01*
X66379185Y-88790609D01*
X66379172Y-88790602D01*
X66233501Y-88730264D01*
X66233491Y-88730261D01*
X66099808Y-88703669D01*
X66037897Y-88671284D01*
X66003323Y-88610568D01*
X66000000Y-88582052D01*
X66000000Y-75320259D01*
X67799500Y-75320259D01*
X67799500Y-75679740D01*
X67839746Y-76036935D01*
X67839748Y-76036951D01*
X67919737Y-76387407D01*
X67919741Y-76387419D01*
X68038465Y-76726711D01*
X68194432Y-77050579D01*
X68194434Y-77050582D01*
X68385685Y-77354956D01*
X68609812Y-77636003D01*
X68863997Y-77890188D01*
X69145044Y-78114315D01*
X69449418Y-78305566D01*
X69773292Y-78461536D01*
X69942765Y-78520837D01*
X70112580Y-78580258D01*
X70112592Y-78580262D01*
X70463052Y-78660252D01*
X70820260Y-78700499D01*
X70820261Y-78700500D01*
X70820264Y-78700500D01*
X71179739Y-78700500D01*
X71179739Y-78700499D01*
X71536948Y-78660252D01*
X71887408Y-78580262D01*
X72226708Y-78461536D01*
X72550582Y-78305566D01*
X72854956Y-78114315D01*
X73136003Y-77890188D01*
X73390188Y-77636003D01*
X73614315Y-77354956D01*
X73805566Y-77050582D01*
X73961536Y-76726708D01*
X74080262Y-76387408D01*
X74160252Y-76036948D01*
X74200500Y-75679736D01*
X74200500Y-75320264D01*
X74160252Y-74963052D01*
X74080262Y-74612592D01*
X73961536Y-74273292D01*
X73805566Y-73949418D01*
X73614315Y-73645044D01*
X73390188Y-73363997D01*
X73136003Y-73109812D01*
X72854956Y-72885685D01*
X72550582Y-72694434D01*
X72550579Y-72694432D01*
X72226711Y-72538465D01*
X71887419Y-72419741D01*
X71887407Y-72419737D01*
X71536951Y-72339748D01*
X71536935Y-72339746D01*
X71179740Y-72299500D01*
X71179736Y-72299500D01*
X70820264Y-72299500D01*
X70820259Y-72299500D01*
X70463064Y-72339746D01*
X70463048Y-72339748D01*
X70112592Y-72419737D01*
X70112580Y-72419741D01*
X69773288Y-72538465D01*
X69449420Y-72694432D01*
X69145045Y-72885684D01*
X68863997Y-73109811D01*
X68609811Y-73363997D01*
X68385684Y-73645045D01*
X68194432Y-73949420D01*
X68038465Y-74273288D01*
X67919741Y-74612580D01*
X67919737Y-74612592D01*
X67839748Y-74963048D01*
X67839746Y-74963064D01*
X67799500Y-75320259D01*
X66000000Y-75320259D01*
X66000000Y-67449165D01*
X66019685Y-67382126D01*
X66072489Y-67336371D01*
X66141647Y-67326427D01*
X66143359Y-67326686D01*
X66293713Y-67350500D01*
X66293714Y-67350500D01*
X66756286Y-67350500D01*
X66756287Y-67350500D01*
X66966243Y-67317246D01*
X67168412Y-67251557D01*
X67357816Y-67155051D01*
X67419426Y-67110289D01*
X67533734Y-67027241D01*
X67534364Y-67028108D01*
X67593419Y-67001641D01*
X67610200Y-67000500D01*
X68598543Y-67000500D01*
X68758328Y-66968716D01*
X68791835Y-66962051D01*
X68973914Y-66886632D01*
X69137782Y-66777139D01*
X69277139Y-66637782D01*
X69386632Y-66473914D01*
X69462051Y-66291835D01*
X69476177Y-66220821D01*
X69500500Y-66098543D01*
X69500500Y-65901456D01*
X69462052Y-65708170D01*
X69462051Y-65708169D01*
X69462051Y-65708165D01*
X69425872Y-65620821D01*
X69386635Y-65526092D01*
X69386628Y-65526079D01*
X69277139Y-65362218D01*
X69277136Y-65362214D01*
X69137785Y-65222863D01*
X69137781Y-65222860D01*
X68973920Y-65113371D01*
X68973907Y-65113364D01*
X68791839Y-65037950D01*
X68791829Y-65037947D01*
X68598543Y-64999500D01*
X68598541Y-64999500D01*
X67610200Y-64999500D01*
X67589678Y-64993474D01*
X67568328Y-64992216D01*
X67550837Y-64982069D01*
X67543161Y-64979815D01*
X67537141Y-64975692D01*
X67531406Y-64971510D01*
X67529792Y-64969896D01*
X67364952Y-64850133D01*
X67364607Y-64849882D01*
X67343236Y-64822068D01*
X67322115Y-64794678D01*
X67322105Y-64794567D01*
X67322037Y-64794478D01*
X67319113Y-64759727D01*
X67316136Y-64725065D01*
X67316188Y-64724965D01*
X67316179Y-64724855D01*
X67332422Y-64694198D01*
X67348741Y-64663270D01*
X67348867Y-64663160D01*
X67348891Y-64663116D01*
X67348970Y-64663071D01*
X67364781Y-64649371D01*
X67529466Y-64529721D01*
X67679723Y-64379464D01*
X67679727Y-64379459D01*
X67804620Y-64207557D01*
X67901095Y-64018217D01*
X67966757Y-63816129D01*
X67966757Y-63816126D01*
X67977231Y-63750000D01*
X66929146Y-63750000D01*
X66967630Y-63683343D01*
X67000000Y-63562535D01*
X67000000Y-63437465D01*
X66967630Y-63316657D01*
X66929146Y-63250000D01*
X67977231Y-63250000D01*
X67966757Y-63183873D01*
X67966757Y-63183870D01*
X67901095Y-62981782D01*
X67804620Y-62792442D01*
X67735195Y-62696885D01*
X67711715Y-62631079D01*
X67727541Y-62563025D01*
X67777647Y-62514330D01*
X67835513Y-62500000D01*
X74599403Y-62500000D01*
X74666442Y-62519685D01*
G37*
%TD.AperFunction*%
%TA.AperFunction,Conductor*%
G36*
X100080703Y-156007045D02*
G01*
X100118477Y-156065823D01*
X100121117Y-156076567D01*
X100175791Y-156351437D01*
X100175792Y-156351443D01*
X100275623Y-156680540D01*
X100407219Y-156998241D01*
X100407226Y-156998255D01*
X100569322Y-157301518D01*
X100569333Y-157301536D01*
X100760377Y-157587453D01*
X100760387Y-157587467D01*
X100928785Y-157792659D01*
X100928786Y-157792660D01*
X101816777Y-156904668D01*
X101879731Y-156986711D01*
X102088289Y-157195269D01*
X102170329Y-157258221D01*
X101282338Y-158146212D01*
X101282339Y-158146213D01*
X101445537Y-158280147D01*
X101484871Y-158337893D01*
X101486742Y-158407737D01*
X101450554Y-158467506D01*
X101387798Y-158498221D01*
X101366872Y-158500000D01*
X100250000Y-158500000D01*
X99498769Y-158500000D01*
X99431730Y-158480315D01*
X99385975Y-158427511D01*
X99376031Y-158358353D01*
X99399502Y-158301690D01*
X99515890Y-158146213D01*
X99562226Y-158084315D01*
X99699367Y-157833161D01*
X99799369Y-157565046D01*
X99860196Y-157285428D01*
X99875500Y-157071448D01*
X99875500Y-156100758D01*
X99895185Y-156033719D01*
X99947989Y-155987964D01*
X100017147Y-155978020D01*
X100080703Y-156007045D01*
G37*
%TD.AperFunction*%
%TD*%
M02*
