M48
; DRILL file {KiCad 9.0.7} date 2026-01-20T00:59:49+0100
; FORMAT={-:-/ absolute / metric / decimal}
; #@! TF.CreationDate,2026-01-20T00:59:49+01:00
; #@! TF.GenerationSoftware,Kicad,Pcbnew,9.0.7
; #@! TF.FileFunction,Plated,1,4,PTH
FMAT,2
METRIC
; #@! TA.AperFunction,Plated,PTH,ViaDrill
T1C0.300
; #@! TA.AperFunction,Plated,PTH,ComponentDrill
T2C0.500
; #@! TA.AperFunction,Plated,PTH,ComponentDrill
T3C0.750
; #@! TA.AperFunction,Plated,PTH,ComponentDrill
T4C0.950
; #@! TA.AperFunction,Plated,PTH,ComponentDrill
T5C2.700
; #@! TA.AperFunction,Plated,PTH,ComponentDrill
T6C3.200
; #@! TA.AperFunction,Plated,PTH,ComponentDrill
T7C4.500
%
G90
G05
T1
X66.0Y-89.5
X66.0Y-91.5
X66.0Y-96.5
X66.0Y-100.5
X66.0Y-102.5
X66.0Y-104.5
X66.0Y-126.5
X66.0Y-128.5
X66.5Y-106.5
X66.5Y-111.5
X66.5Y-113.5
X66.5Y-115.5
X66.5Y-119.5
X66.5Y-121.5
X66.9Y-133.5
X67.0Y-135.5
X67.0Y-137.5
X67.0Y-139.5
X67.4Y-114.8
X67.4Y-116.2
X67.5Y-49.5
X67.5Y-55.5
X68.0Y-145.0
X68.0Y-147.5
X68.0Y-150.0
X68.5Y-63.5
X68.5Y-66.0
X71.0Y-109.0
X73.0Y-53.6
X73.425Y-101.25
X73.5Y-148.0
X74.15Y-53.6
X75.5Y-148.0
X76.2Y-111.2
X76.4Y-133.4
X76.8Y-60.0
X76.8Y-86.2
X77.0Y-111.2
X77.049Y-95.6
X77.564Y-60.014
X77.6Y-86.2
X77.8Y-99.8
X77.8Y-100.8
X77.8Y-103.8
X78.4Y-88.0
X78.4Y-130.5
X79.75Y-130.5
X80.5Y-103.0
X80.5Y-104.0
X80.5Y-148.0
X80.547Y-68.139
X80.6Y-96.0
X80.6Y-98.05
X80.6Y-99.5
X80.6Y-100.6
X80.6Y-101.6
X80.6Y-109.1
X82.35Y-61.18
X82.4Y-92.8
X82.4Y-93.6
X82.4Y-94.8
X82.4Y-96.65
X82.4Y-99.4
X82.4Y-102.8
X82.4Y-104.0
X82.4Y-105.8
X82.4Y-107.0
X82.5Y-148.0
X83.6Y-92.8
X83.6Y-93.6
X83.6Y-94.8
X83.6Y-96.4
X83.6Y-98.55
X83.6Y-100.2
X83.6Y-103.0
X83.6Y-104.0
X83.6Y-105.8
X83.6Y-106.8
X83.6Y-108.2
X83.6Y-111.8
X83.75Y-134.25
X83.85Y-61.18
X84.388Y-69.58
X85.1Y-67.53
X85.389Y-103.568
X85.39Y-108.0
X85.4Y-97.2
X85.4Y-98.0
X85.4Y-99.15
X85.4Y-100.0
X85.4Y-101.95
X85.4Y-102.8
X85.4Y-104.4
X85.4Y-109.0
X85.5Y-52.5
X86.0Y-135.75
X86.0Y-137.25
X86.0Y-138.75
X86.0Y-140.25
X87.35Y-61.18
X87.5Y-148.0
X88.0Y-127.0
X88.75Y-134.5
X89.2Y-130.1
X89.5Y-65.33
X89.5Y-124.5
X89.5Y-127.0
X89.5Y-148.0
X90.0Y-66.0
X90.0Y-69.5
X91.35Y-68.4
X91.4Y-62.4
X91.4Y-64.0
X91.75Y-136.0
X92.0Y-127.0
X92.5Y-131.2
X92.5Y-142.5
X92.75Y-57.75
X92.8Y-69.2
X92.8Y-70.2
X93.2Y-123.6
X95.25Y-142.5
X95.5Y-65.5
X95.65Y-130.0
X96.0Y-57.75
X96.0Y-70.0
X96.5Y-60.921
X96.85Y-128.4
X97.0Y-57.75
X97.152Y-65.919
X97.5Y-70.0
X97.95Y-128.4
X98.0Y-57.75
X98.952Y-60.919
X99.0Y-134.25
X99.0Y-135.7
X99.0Y-137.25
X99.0Y-138.75
X99.0Y-140.25
X99.952Y-60.919
X100.0Y-66.05
X100.887Y-137.237
X100.887Y-138.737
X100.887Y-140.237
X101.0Y-57.75
X101.4Y-132.1
X101.5Y-66.0
X102.267Y-69.767
X102.6Y-127.0
X103.0Y-66.0
X103.75Y-65.0
X104.0Y-57.75
X105.106Y-137.694
X105.637Y-138.987
X107.0Y-57.75
X107.4Y-127.0
X109.137Y-136.987
X109.2Y-137.8
X111.5Y-148.0
X112.5Y-134.7
X112.8Y-140.6
X113.3Y-131.7
X113.5Y-60.0
X113.5Y-148.0
X114.125Y-80.0
X114.125Y-80.8
X114.2Y-83.6
X114.2Y-84.4
X114.5Y-52.5
X114.5Y-94.5
X114.6Y-100.2
X114.6Y-112.2
X116.0Y-80.0
X116.0Y-80.8
X116.2Y-83.6
X116.2Y-84.4
X116.3Y-138.8
X116.4Y-94.6
X116.4Y-96.0
X116.4Y-97.2
X116.4Y-98.4
X117.6Y-94.6
X117.6Y-96.0
X117.6Y-97.2
X117.6Y-98.32
X118.0Y-117.1
X118.0Y-117.9
X118.5Y-148.0
X119.4Y-102.6
X119.4Y-103.8
X119.4Y-105.0
X119.4Y-106.2
X119.4Y-107.4
X119.4Y-108.6
X119.4Y-109.8
X119.4Y-111.0
X119.4Y-112.2
X119.8Y-136.8
X120.5Y-148.0
X121.1Y-135.5
X122.5Y-148.0
X122.8Y-99.1
X122.8Y-99.9
X122.8Y-135.6
X122.8Y-138.4
X123.4Y-86.6
X123.6Y-139.4
X124.0Y-66.6
X124.0Y-114.0
X124.5Y-148.0
X125.4Y-88.6
X126.75Y-95.445
X126.927Y-79.708
X126.994Y-99.1
X126.994Y-99.9
X127.0Y-70.8
X127.0Y-94.4
X127.0Y-97.6
X127.0Y-101.4
X127.0Y-104.6
X127.0Y-107.6
X127.0Y-114.4
X127.493Y-79.143
X127.5Y-96.0
X131.201Y-83.999
X131.751Y-83.417
X132.0Y-61.0
X132.0Y-63.5
X132.0Y-66.0
X132.0Y-145.0
X132.0Y-147.5
X132.0Y-150.0
X133.0Y-49.5
X133.0Y-55.5
X133.0Y-133.5
X133.0Y-135.5
X133.0Y-137.5
X133.0Y-139.5
X133.75Y-129.25
X134.0Y-117.1
X134.0Y-117.9
T2
X63.6Y-43.5
X63.6Y-156.5
X64.303Y-41.803
X64.303Y-45.197
X64.303Y-154.803
X64.303Y-158.197
X66.0Y-41.1
X66.0Y-45.9
X66.0Y-154.1
X66.0Y-158.9
X67.697Y-41.803
X67.697Y-45.197
X67.697Y-154.803
X67.697Y-158.197
X68.4Y-43.5
X68.4Y-156.5
X131.6Y-43.5
X131.6Y-156.5
X132.303Y-41.803
X132.303Y-45.197
X132.303Y-154.803
X132.303Y-158.197
X134.0Y-41.1
X134.0Y-45.9
X134.0Y-154.1
X134.0Y-158.9
X135.697Y-41.803
X135.697Y-45.197
X135.697Y-154.803
X135.697Y-158.197
X136.4Y-43.5
X136.4Y-156.5
T3
X64.45Y-89.5
X64.45Y-91.5
X64.45Y-96.5
X64.45Y-98.5
X64.45Y-100.5
X64.45Y-102.5
X64.45Y-104.5
X64.45Y-106.5
X64.45Y-111.5
X64.45Y-113.5
X64.45Y-115.5
X64.45Y-117.5
X64.45Y-119.5
X64.45Y-121.5
X64.45Y-126.5
X64.45Y-128.5
X65.55Y-133.5
X65.55Y-135.5
X65.55Y-137.5
X65.55Y-139.5
X66.05Y-49.5
X66.05Y-51.5
X66.05Y-53.5
X66.05Y-55.5
X73.0Y-150.55
X75.0Y-150.55
X80.0Y-150.55
X82.0Y-150.55
X87.0Y-150.55
X89.0Y-150.55
X112.0Y-150.55
X114.0Y-150.55
X119.0Y-150.55
X121.0Y-150.55
X123.0Y-150.55
X125.0Y-150.55
X134.45Y-133.5
X134.45Y-135.5
X134.45Y-137.5
X134.45Y-139.5
X134.5Y-49.5
X134.5Y-51.5
X134.5Y-53.5
X134.5Y-55.5
X135.5Y-71.5
X135.5Y-73.5
X135.5Y-75.5
X135.5Y-77.5
X135.5Y-79.5
X135.5Y-81.5
X135.5Y-83.5
X135.5Y-85.5
X135.5Y-114.5
X135.5Y-116.5
X135.5Y-118.5
X135.5Y-120.5
X135.5Y-122.5
X135.5Y-124.5
X135.5Y-126.5
X135.5Y-128.5
T4
X66.025Y-145.0
X66.025Y-147.5
X66.025Y-150.0
X66.525Y-61.0
X66.525Y-63.5
X66.525Y-66.0
X133.975Y-61.0
X133.975Y-63.5
X133.975Y-66.0
X133.975Y-145.0
X133.975Y-147.5
X133.975Y-150.0
T5
X71.0Y-75.5
X71.0Y-124.5
X129.0Y-75.5
X129.0Y-124.5
T6
X66.0Y-43.5
X66.0Y-156.5
X134.0Y-43.5
X134.0Y-156.5
T7
X96.375Y-155.5
X103.575Y-155.5
M30
